# Blender 4.1.1
# www.blender.org
o Circle.005
v -0.016315 0.150000 0.162717
v -0.000000 0.150000 0.161987
v -0.032003 0.150000 0.164881
v -0.046462 0.150000 0.168393
v -0.059135 0.150000 0.173121
v -0.069535 0.150000 0.178881
v -0.077263 0.150000 0.185453
v -0.082022 0.150000 0.192584
v -0.083629 0.150000 0.200000
v -0.082022 0.150000 0.207416
v -0.077263 0.150000 0.214547
v -0.069535 0.150000 0.221119
v -0.059135 0.150000 0.226879
v -0.046462 0.150000 0.231607
v -0.032003 0.150000 0.235120
v -0.016315 0.150000 0.237283
v -0.000000 0.150000 0.238013
v 0.016315 0.150000 0.237283
v 0.032003 0.150000 0.235120
v 0.046462 0.150000 0.231607
v 0.059134 0.150000 0.226879
v 0.069535 0.150000 0.221119
v 0.077263 0.150000 0.214547
v 0.082022 0.150000 0.207416
v 0.083629 0.150000 0.200000
v 0.082022 0.150000 0.192584
v 0.077263 0.150000 0.185453
v 0.069535 0.150000 0.178881
v 0.059134 0.150000 0.173121
v 0.046462 0.150000 0.168393
v 0.032003 0.150000 0.164881
v 0.016315 0.150000 0.162717
v -0.085187 0.050000 0.005335
v 0.000000 0.050000 0.001521
v -0.167100 0.050000 0.016630
v -0.242591 0.050000 0.034971
v -0.308760 0.050000 0.059654
v -0.363064 0.050000 0.089731
v -0.403415 0.050000 0.124046
v -0.428263 0.050000 0.161279
v -0.436653 0.050000 0.200000
v -0.428263 0.050000 0.238721
v -0.403415 0.050000 0.275955
v -0.363064 0.050000 0.310269
v -0.308760 0.050000 0.340346
v -0.242591 0.050000 0.365029
v -0.167100 0.050000 0.383370
v -0.085187 0.050000 0.394665
v 0.000000 0.050000 0.398479
v 0.085187 0.050000 0.394665
v 0.167100 0.050000 0.383370
v 0.242591 0.050000 0.365029
v 0.308760 0.050000 0.340346
v 0.363064 0.050000 0.310269
v 0.403415 0.050000 0.275955
v 0.428263 0.050000 0.238721
v 0.436653 0.050000 0.200000
v 0.428263 0.050000 0.161279
v 0.403415 0.050000 0.124046
v 0.363064 0.050000 0.089731
v 0.308760 0.050000 0.059654
v 0.242591 0.050000 0.034971
v 0.167100 0.050000 0.016630
v 0.085187 0.050000 0.005335
v -0.063761 0.070000 0.054296
v 0.000000 0.070000 0.051442
v -0.125072 0.070000 0.062750
v -0.181576 0.070000 0.076478
v -0.231103 0.070000 0.094953
v -0.271748 0.070000 0.117465
v -0.301950 0.070000 0.143149
v -0.320549 0.070000 0.171018
v -0.326829 0.070000 0.200000
v -0.320549 0.070000 0.228982
v -0.301950 0.070000 0.256851
v -0.271748 0.070000 0.282535
v -0.231103 0.070000 0.305047
v -0.181576 0.070000 0.323522
v -0.125072 0.070000 0.337250
v -0.063761 0.070000 0.345704
v 0.000000 0.070000 0.348559
v 0.063761 0.070000 0.345704
v 0.125072 0.070000 0.337250
v 0.181576 0.070000 0.323522
v 0.231103 0.070000 0.305047
v 0.271748 0.070000 0.282535
v 0.301950 0.070000 0.256851
v 0.320549 0.070000 0.228982
v 0.326829 0.070000 0.200000
v 0.320549 0.070000 0.171018
v 0.301950 0.070000 0.143149
v 0.271748 0.070000 0.117465
v 0.231103 0.070000 0.094953
v 0.181576 0.070000 0.076478
v 0.125072 0.070000 0.062750
v 0.063761 0.070000 0.054296
v -0.000000 0.158739 0.200000
v -0.042799 0.050000 0.002478
v -0.126753 0.050000 0.010069
v -0.205836 0.050000 0.024958
v -0.277009 0.050000 0.046575
v -0.337536 0.050000 0.074087
v -0.385092 0.050000 0.106438
v -0.417849 0.050000 0.142385
v -0.434549 0.050000 0.180546
v -0.434549 0.050000 0.219454
v -0.417849 0.050000 0.257615
v -0.385092 0.050000 0.293562
v -0.337536 0.050000 0.325913
v -0.277009 0.050000 0.353426
v -0.205836 0.050000 0.375042
v -0.126753 0.050000 0.389932
v -0.042799 0.050000 0.397522
v 0.042799 0.050000 0.397522
v 0.126753 0.050000 0.389932
v 0.205836 0.050000 0.375042
v 0.277009 0.050000 0.353426
v 0.337536 0.050000 0.325913
v 0.385092 0.050000 0.293562
v 0.417849 0.050000 0.257615
v 0.434549 0.050000 0.219454
v 0.434549 0.050000 0.180546
v 0.417849 0.050000 0.142385
v 0.385092 0.050000 0.106438
v 0.337536 0.050000 0.074087
v 0.277009 0.050000 0.046575
v 0.205836 0.050000 0.024958
v 0.126753 0.050000 0.010069
v 0.042799 0.050000 0.002478
v -0.032035 0.070000 0.052157
v -0.094873 0.070000 0.057839
v -0.154065 0.070000 0.068984
v -0.207337 0.070000 0.085163
v -0.252641 0.070000 0.105756
v -0.288236 0.070000 0.129970
v -0.312754 0.070000 0.156876
v -0.325254 0.070000 0.185439
v -0.325254 0.070000 0.214561
v -0.312754 0.070000 0.243124
v -0.288236 0.070000 0.270030
v -0.252641 0.070000 0.294244
v -0.207337 0.070000 0.314837
v -0.154065 0.070000 0.331016
v -0.094873 0.070000 0.342161
v -0.032035 0.070000 0.347843
v 0.032035 0.070000 0.347843
v 0.094873 0.070000 0.342161
v 0.154065 0.070000 0.331016
v 0.207337 0.070000 0.314837
v 0.252641 0.070000 0.294244
v 0.288236 0.070000 0.270030
v 0.312754 0.070000 0.243124
v 0.325254 0.070000 0.214561
v 0.325254 0.070000 0.185439
v 0.312754 0.070000 0.156876
v 0.288236 0.070000 0.129970
v 0.252641 0.070000 0.105756
v 0.207337 0.070000 0.085163
v 0.154065 0.070000 0.068984
v 0.094873 0.070000 0.057839
v 0.032035 0.070000 0.052157
v -0.074474 0.060000 0.029816
v 0.000000 0.060000 0.026481
v -0.146086 0.060000 0.039690
v -0.212084 0.060000 0.055725
v -0.269932 0.060000 0.077304
v -0.317406 0.060000 0.103598
v -0.352683 0.060000 0.133597
v -0.374406 0.060000 0.166148
v -0.381741 0.060000 0.200000
v -0.374406 0.060000 0.233852
v -0.352683 0.060000 0.266403
v -0.317406 0.060000 0.296402
v -0.269932 0.060000 0.322696
v -0.212084 0.060000 0.344275
v -0.146086 0.060000 0.360310
v -0.074474 0.060000 0.370184
v 0.000000 0.060000 0.373519
v 0.074474 0.060000 0.370184
v 0.146086 0.060000 0.360310
v 0.212084 0.060000 0.344275
v 0.269932 0.060000 0.322696
v 0.317406 0.060000 0.296402
v 0.352683 0.060000 0.266403
v 0.374406 0.060000 0.233852
v 0.381741 0.060000 0.200000
v 0.374406 0.060000 0.166148
v 0.352683 0.060000 0.133597
v 0.317406 0.060000 0.103598
v 0.269932 0.060000 0.077304
v 0.212084 0.060000 0.055725
v 0.146086 0.060000 0.039690
v 0.074474 0.060000 0.029816
v -0.008197 0.150000 0.162170
v -0.024276 0.150000 0.163624
v -0.039422 0.150000 0.166476
v -0.053053 0.150000 0.170616
v -0.064646 0.150000 0.175885
v -0.073754 0.150000 0.182081
v -0.080027 0.150000 0.188965
v -0.083226 0.150000 0.196274
v -0.083226 0.150000 0.203726
v -0.080027 0.150000 0.211035
v -0.073754 0.150000 0.217919
v -0.064646 0.150000 0.224115
v -0.053053 0.150000 0.229384
v -0.039422 0.150000 0.233524
v -0.024276 0.150000 0.236376
v -0.008197 0.150000 0.237830
v 0.008197 0.150000 0.237830
v 0.024276 0.150000 0.236376
v 0.039422 0.150000 0.233524
v 0.053053 0.150000 0.229384
v 0.064646 0.150000 0.224115
v 0.073754 0.150000 0.217919
v 0.080027 0.150000 0.211035
v 0.083226 0.150000 0.203726
v 0.083226 0.150000 0.196274
v 0.080027 0.150000 0.188965
v 0.073754 0.150000 0.182081
v 0.064646 0.150000 0.175885
v 0.053053 0.150000 0.170616
v 0.039422 0.150000 0.166476
v 0.024276 0.150000 0.163624
v 0.008197 0.150000 0.162170
v -0.009881 0.153877 0.177420
v -0.000000 0.153877 0.176977
v 0.042114 0.153877 0.187209
v 0.035815 0.153877 0.183721
v -0.019383 0.153877 0.221270
v -0.009881 0.153877 0.222580
v -0.019383 0.153877 0.178730
v 0.028139 0.153877 0.180857
v -0.000000 0.153877 0.223023
v -0.028139 0.153877 0.180857
v 0.019383 0.153877 0.178730
v 0.009881 0.153877 0.222580
v -0.035815 0.153877 0.183721
v 0.009881 0.153877 0.177420
v 0.019383 0.153877 0.221270
v -0.042114 0.153877 0.187209
v 0.028139 0.153877 0.219143
v -0.046794 0.153877 0.191190
v 0.035815 0.153877 0.216279
v -0.049677 0.153877 0.195509
v 0.042114 0.153877 0.212791
v -0.050650 0.153877 0.200000
v 0.046794 0.153877 0.208810
v -0.049677 0.153877 0.204491
v 0.049676 0.153877 0.204491
v -0.046794 0.153877 0.208810
v 0.050650 0.153877 0.200000
v -0.042114 0.153877 0.212791
v 0.049676 0.153877 0.195509
v -0.035815 0.153877 0.216279
v 0.046794 0.153877 0.191190
v -0.028140 0.153877 0.219143
v -0.037417 0.060000 0.027318
v -0.110813 0.060000 0.033954
v -0.179951 0.060000 0.046971
v -0.242173 0.060000 0.065869
v -0.295089 0.060000 0.089921
v -0.336664 0.060000 0.118204
v -0.365302 0.060000 0.149630
v -0.379901 0.060000 0.182992
v -0.379901 0.060000 0.217008
v -0.365302 0.060000 0.250370
v -0.336664 0.060000 0.281796
v -0.295089 0.060000 0.310079
v -0.242173 0.060000 0.334131
v -0.179951 0.060000 0.353029
v -0.110813 0.060000 0.366046
v -0.037417 0.060000 0.372682
v 0.037417 0.060000 0.372682
v 0.110813 0.060000 0.366046
v 0.179951 0.060000 0.353029
v 0.242173 0.060000 0.334131
v 0.295089 0.060000 0.310079
v 0.336664 0.060000 0.281796
v 0.365302 0.060000 0.250370
v 0.379901 0.060000 0.217008
v 0.379901 0.060000 0.182992
v 0.365302 0.060000 0.149630
v 0.336664 0.060000 0.118204
v 0.295089 0.060000 0.089921
v 0.242173 0.060000 0.065869
v 0.179951 0.060000 0.046971
v 0.110813 0.060000 0.033954
v 0.037417 0.060000 0.027318
v -0.005689 0.153034 0.173743
v 0.044870 0.153034 0.183262
v -0.016850 0.153034 0.225248
v -0.016850 0.153034 0.174752
v 0.036824 0.153034 0.179605
v -0.005689 0.153034 0.226257
v -0.027363 0.153034 0.176731
v 0.027362 0.153034 0.176731
v 0.005689 0.153034 0.226257
v -0.036824 0.153034 0.179605
v 0.016850 0.153034 0.174752
v 0.016850 0.153034 0.225248
v -0.044870 0.153034 0.183262
v 0.005689 0.153034 0.173743
v 0.027362 0.153034 0.223269
v -0.051192 0.153034 0.187562
v 0.036824 0.153034 0.220395
v -0.055546 0.153034 0.192341
v 0.044870 0.153034 0.216738
v -0.057766 0.153034 0.197414
v 0.051192 0.153034 0.212437
v -0.057766 0.153034 0.202586
v 0.055546 0.153034 0.207659
v -0.055546 0.153034 0.207659
v 0.057766 0.153034 0.202586
v -0.051192 0.153034 0.212437
v 0.057766 0.153034 0.197414
v -0.044870 0.153034 0.216738
v 0.055546 0.153034 0.192341
v -0.036824 0.153034 0.220395
v 0.051192 0.153034 0.187562
v -0.027363 0.153034 0.223269
vn -0.0249 0.9292 -0.3687
vn -0.0083 0.9282 -0.3719
vn -0.0574 0.9340 -0.3527
vn -0.0413 0.9311 -0.3623
vn -0.0883 0.9419 -0.3241
vn -0.0731 0.9376 -0.3400
vn -0.1166 0.9520 -0.2830
vn -0.1028 0.9468 -0.3050
vn -0.1410 0.9629 -0.2301
vn -0.1294 0.9575 -0.2579
vn -0.1603 0.9729 -0.1669
vn -0.1514 0.9681 -0.1996
vn -0.1734 0.9802 -0.0956
vn -0.1677 0.9770 -0.1320
vn -0.1791 0.9836 -0.0194
vn -0.1772 0.9825 -0.0578
vn -0.1772 0.9825 0.0578
vn -0.1791 0.9836 0.0194
vn -0.1677 0.9770 0.1320
vn -0.1734 0.9802 0.0956
vn -0.1514 0.9681 0.1996
vn -0.1603 0.9729 0.1669
vn -0.1294 0.9575 0.2579
vn -0.1410 0.9629 0.2301
vn -0.1028 0.9468 0.3050
vn -0.1166 0.9520 0.2830
vn -0.0731 0.9376 0.3400
vn -0.0883 0.9419 0.3241
vn -0.0413 0.9311 0.3623
vn -0.0574 0.9340 0.3527
vn -0.0083 0.9282 0.3719
vn -0.0249 0.9292 0.3687
vn 0.0249 0.9292 0.3687
vn 0.0083 0.9282 0.3719
vn 0.0574 0.9340 0.3527
vn 0.0413 0.9311 0.3623
vn 0.0883 0.9419 0.3241
vn 0.0731 0.9376 0.3400
vn 0.1166 0.9520 0.2830
vn 0.1028 0.9468 0.3050
vn 0.1410 0.9629 0.2301
vn 0.1294 0.9575 0.2579
vn 0.1603 0.9729 0.1669
vn 0.1514 0.9681 0.1996
vn 0.1734 0.9802 0.0956
vn 0.1677 0.9770 0.1320
vn 0.1791 0.9836 0.0194
vn 0.1772 0.9825 0.0578
vn 0.1772 0.9825 -0.0578
vn 0.1791 0.9836 -0.0194
vn 0.1677 0.9770 -0.1320
vn 0.1734 0.9802 -0.0956
vn 0.1514 0.9681 -0.1996
vn 0.1603 0.9729 -0.1669
vn 0.1294 0.9575 -0.2579
vn 0.1410 0.9629 -0.2301
vn 0.1028 0.9468 -0.3050
vn 0.1166 0.9520 -0.2830
vn 0.0731 0.9376 -0.3400
vn 0.0883 0.9419 -0.3241
vn 0.0413 0.9311 -0.3623
vn 0.0574 0.9340 -0.3527
vn 0.0083 0.9282 -0.3719
vn 0.0249 0.9292 -0.3687
vn -0.0035 0.9679 -0.2515
vn -0.0189 0.9685 -0.2483
vn -0.0094 0.9776 -0.2103
vn 0.0947 0.9844 -0.1486
vn 0.0844 0.9810 -0.1747
vn 0.0751 0.9879 -0.1355
vn -0.0406 0.9709 0.2360
vn -0.0258 0.9691 0.2455
vn -0.0279 0.9789 0.2025
vn -0.0258 0.9691 -0.2455
vn -0.0406 0.9709 -0.2360
vn -0.0279 0.9789 -0.2025
vn 0.0793 0.9794 -0.1855
vn 0.0670 0.9761 -0.2066
vn 0.0614 0.9845 -0.1645
vn -0.0189 0.9685 0.2483
vn -0.0035 0.9679 0.2515
vn -0.0094 0.9776 0.2103
vn -0.0472 0.9720 -0.2304
vn -0.0610 0.9747 -0.2149
vn -0.0455 0.9813 -0.1871
vn 0.0610 0.9747 -0.2149
vn 0.0472 0.9720 -0.2304
vn 0.0455 0.9813 -0.1871
vn 0.0035 0.9679 0.2515
vn 0.0189 0.9685 0.2483
vn 0.0094 0.9776 0.2103
vn -0.0670 0.9761 -0.2066
vn -0.0793 0.9794 -0.1855
vn -0.0614 0.9845 -0.1645
vn 0.0406 0.9709 -0.2360
vn 0.0258 0.9691 -0.2455
vn 0.0279 0.9789 -0.2025
vn 0.0258 0.9691 0.2455
vn 0.0406 0.9709 0.2360
vn 0.0279 0.9789 0.2025
vn -0.0844 0.9810 -0.1747
vn -0.0947 0.9844 -0.1486
vn -0.0751 0.9879 -0.1355
vn 0.0189 0.9685 -0.2483
vn 0.0035 0.9679 -0.2515
vn 0.0094 0.9776 -0.2104
vn 0.0472 0.9720 0.2304
vn 0.0610 0.9747 0.2149
vn 0.0455 0.9813 0.1871
vn -0.0988 0.9858 -0.1358
vn -0.1065 0.9887 -0.1056
vn -0.0859 0.9912 -0.1010
vn 0.0670 0.9761 0.2066
vn 0.0793 0.9794 0.1855
vn 0.0614 0.9845 0.1645
vn -0.1094 0.9898 -0.0911
vn -0.1142 0.9918 -0.0580
vn -0.0935 0.9937 -0.0624
vn 0.0844 0.9810 0.1747
vn 0.0947 0.9844 0.1486
vn 0.0751 0.9879 0.1355
vn -0.1157 0.9924 -0.0426
vn -0.1173 0.9931 -0.0079
vn -0.0973 0.9950 -0.0211
vn 0.0988 0.9858 0.1358
vn 0.1065 0.9887 0.1056
vn 0.0859 0.9912 0.1010
vn -0.1173 0.9931 0.0079
vn -0.1157 0.9924 0.0426
vn -0.0973 0.9950 0.0211
vn 0.1094 0.9898 0.0911
vn 0.1142 0.9918 0.0580
vn 0.0935 0.9937 0.0624
vn -0.1142 0.9918 0.0580
vn -0.1094 0.9898 0.0911
vn -0.0935 0.9937 0.0624
vn 0.1157 0.9924 0.0425
vn 0.1173 0.9931 0.0079
vn 0.0973 0.9950 0.0211
vn -0.1065 0.9887 0.1056
vn -0.0988 0.9858 0.1358
vn -0.0859 0.9912 0.1010
vn 0.1173 0.9931 -0.0079
vn 0.1157 0.9924 -0.0425
vn 0.0973 0.9950 -0.0211
vn -0.0947 0.9843 0.1486
vn -0.0844 0.9810 0.1747
vn -0.0751 0.9879 0.1355
vn 0.1142 0.9918 -0.0580
vn 0.1094 0.9898 -0.0911
vn 0.0935 0.9937 -0.0624
vn -0.0793 0.9794 0.1855
vn -0.0670 0.9761 0.2066
vn -0.0614 0.9845 0.1645
vn 0.1065 0.9887 -0.1056
vn 0.0988 0.9858 -0.1358
vn 0.0859 0.9912 -0.1010
vn -0.0610 0.9747 0.2149
vn -0.0472 0.9720 0.2304
vn -0.0455 0.9813 0.1871
vt 0.000000 0.000000
s 0
f 65/1/1 130/1/1 258/1/1 162/1/1
f 130/1/2 66/1/2 163/1/2 258/1/2
f 258/1/2 163/1/2 34/1/2 98/1/2
f 162/1/1 258/1/1 98/1/1 33/1/1
f 67/1/3 131/1/3 259/1/3 164/1/3
f 131/1/4 65/1/4 162/1/4 259/1/4
f 259/1/4 162/1/4 33/1/4 99/1/4
f 164/1/3 259/1/3 99/1/3 35/1/3
f 68/1/5 132/1/5 260/1/5 165/1/5
f 132/1/6 67/1/6 164/1/6 260/1/6
f 260/1/6 164/1/6 35/1/6 100/1/6
f 165/1/5 260/1/5 100/1/5 36/1/5
f 69/1/7 133/1/7 261/1/7 166/1/7
f 133/1/8 68/1/8 165/1/8 261/1/8
f 261/1/8 165/1/8 36/1/8 101/1/8
f 166/1/7 261/1/7 101/1/7 37/1/7
f 70/1/9 134/1/9 262/1/9 167/1/9
f 134/1/10 69/1/10 166/1/10 262/1/10
f 262/1/10 166/1/10 37/1/10 102/1/10
f 167/1/9 262/1/9 102/1/9 38/1/9
f 71/1/11 135/1/11 263/1/11 168/1/11
f 135/1/12 70/1/12 167/1/12 263/1/12
f 263/1/12 167/1/12 38/1/12 103/1/12
f 168/1/11 263/1/11 103/1/11 39/1/11
f 72/1/13 136/1/13 264/1/13 169/1/13
f 136/1/14 71/1/14 168/1/14 264/1/14
f 264/1/14 168/1/14 39/1/14 104/1/14
f 169/1/13 264/1/13 104/1/13 40/1/13
f 73/1/15 137/1/15 265/1/15 170/1/15
f 137/1/16 72/1/16 169/1/16 265/1/16
f 265/1/16 169/1/16 40/1/16 105/1/16
f 170/1/15 265/1/15 105/1/15 41/1/15
f 74/1/17 138/1/17 266/1/17 171/1/17
f 138/1/18 73/1/18 170/1/18 266/1/18
f 266/1/18 170/1/18 41/1/18 106/1/18
f 171/1/17 266/1/17 106/1/17 42/1/17
f 75/1/19 139/1/19 267/1/19 172/1/19
f 139/1/20 74/1/20 171/1/20 267/1/20
f 267/1/20 171/1/20 42/1/20 107/1/20
f 172/1/19 267/1/19 107/1/19 43/1/19
f 76/1/21 140/1/21 268/1/21 173/1/21
f 140/1/22 75/1/22 172/1/22 268/1/22
f 268/1/22 172/1/22 43/1/22 108/1/22
f 173/1/21 268/1/21 108/1/21 44/1/21
f 77/1/23 141/1/23 269/1/23 174/1/23
f 141/1/24 76/1/24 173/1/24 269/1/24
f 269/1/24 173/1/24 44/1/24 109/1/24
f 174/1/23 269/1/23 109/1/23 45/1/23
f 78/1/25 142/1/25 270/1/25 175/1/25
f 142/1/26 77/1/26 174/1/26 270/1/26
f 270/1/26 174/1/26 45/1/26 110/1/26
f 175/1/25 270/1/25 110/1/25 46/1/25
f 79/1/27 143/1/27 271/1/27 176/1/27
f 143/1/28 78/1/28 175/1/28 271/1/28
f 271/1/28 175/1/28 46/1/28 111/1/28
f 176/1/27 271/1/27 111/1/27 47/1/27
f 80/1/29 144/1/29 272/1/29 177/1/29
f 144/1/30 79/1/30 176/1/30 272/1/30
f 272/1/30 176/1/30 47/1/30 112/1/30
f 177/1/29 272/1/29 112/1/29 48/1/29
f 81/1/31 145/1/31 273/1/31 178/1/31
f 145/1/32 80/1/32 177/1/32 273/1/32
f 273/1/32 177/1/32 48/1/32 113/1/32
f 178/1/31 273/1/31 113/1/31 49/1/31
f 82/1/33 146/1/33 274/1/33 179/1/33
f 146/1/34 81/1/34 178/1/34 274/1/34
f 274/1/34 178/1/34 49/1/34 114/1/34
f 179/1/33 274/1/33 114/1/33 50/1/33
f 83/1/35 147/1/35 275/1/35 180/1/35
f 147/1/36 82/1/36 179/1/36 275/1/36
f 275/1/36 179/1/36 50/1/36 115/1/36
f 180/1/35 275/1/35 115/1/35 51/1/35
f 84/1/37 148/1/37 276/1/37 181/1/37
f 148/1/38 83/1/38 180/1/38 276/1/38
f 276/1/38 180/1/38 51/1/38 116/1/38
f 181/1/37 276/1/37 116/1/37 52/1/37
f 85/1/39 149/1/39 277/1/39 182/1/39
f 149/1/40 84/1/40 181/1/40 277/1/40
f 277/1/40 181/1/40 52/1/40 117/1/40
f 182/1/39 277/1/39 117/1/39 53/1/39
f 86/1/41 150/1/41 278/1/41 183/1/41
f 150/1/42 85/1/42 182/1/42 278/1/42
f 278/1/42 182/1/42 53/1/42 118/1/42
f 183/1/41 278/1/41 118/1/41 54/1/41
f 87/1/43 151/1/43 279/1/43 184/1/43
f 151/1/44 86/1/44 183/1/44 279/1/44
f 279/1/44 183/1/44 54/1/44 119/1/44
f 184/1/43 279/1/43 119/1/43 55/1/43
f 88/1/45 152/1/45 280/1/45 185/1/45
f 152/1/46 87/1/46 184/1/46 280/1/46
f 280/1/46 184/1/46 55/1/46 120/1/46
f 185/1/45 280/1/45 120/1/45 56/1/45
f 89/1/47 153/1/47 281/1/47 186/1/47
f 153/1/48 88/1/48 185/1/48 281/1/48
f 281/1/48 185/1/48 56/1/48 121/1/48
f 186/1/47 281/1/47 121/1/47 57/1/47
f 90/1/49 154/1/49 282/1/49 187/1/49
f 154/1/50 89/1/50 186/1/50 282/1/50
f 282/1/50 186/1/50 57/1/50 122/1/50
f 187/1/49 282/1/49 122/1/49 58/1/49
f 91/1/51 155/1/51 283/1/51 188/1/51
f 155/1/52 90/1/52 187/1/52 283/1/52
f 283/1/52 187/1/52 58/1/52 123/1/52
f 188/1/51 283/1/51 123/1/51 59/1/51
f 92/1/53 156/1/53 284/1/53 189/1/53
f 156/1/54 91/1/54 188/1/54 284/1/54
f 284/1/54 188/1/54 59/1/54 124/1/54
f 189/1/53 284/1/53 124/1/53 60/1/53
f 93/1/55 157/1/55 285/1/55 190/1/55
f 157/1/56 92/1/56 189/1/56 285/1/56
f 285/1/56 189/1/56 60/1/56 125/1/56
f 190/1/55 285/1/55 125/1/55 61/1/55
f 94/1/57 158/1/57 286/1/57 191/1/57
f 158/1/58 93/1/58 190/1/58 286/1/58
f 286/1/58 190/1/58 61/1/58 126/1/58
f 191/1/57 286/1/57 126/1/57 62/1/57
f 95/1/59 159/1/59 287/1/59 192/1/59
f 159/1/60 94/1/60 191/1/60 287/1/60
f 287/1/60 191/1/60 62/1/60 127/1/60
f 192/1/59 287/1/59 127/1/59 63/1/59
f 96/1/61 160/1/61 288/1/61 193/1/61
f 160/1/62 95/1/62 192/1/62 288/1/62
f 288/1/62 192/1/62 63/1/62 128/1/62
f 193/1/61 288/1/61 128/1/61 64/1/61
f 66/1/63 161/1/63 289/1/63 163/1/63
f 161/1/64 96/1/64 193/1/64 289/1/64
f 289/1/64 193/1/64 64/1/64 129/1/64
f 163/1/63 289/1/63 129/1/63 34/1/63
f 2/1/65 194/1/65 290/1/65 227/1/65
f 1/1/66 226/1/66 290/1/66 194/1/66
f 97/1/67 227/1/67 290/1/67 226/1/67
f 28/1/68 221/1/68 291/1/68 228/1/68
f 29/1/69 229/1/69 291/1/69 221/1/69
f 97/1/70 228/1/70 291/1/70 229/1/70
f 15/1/71 208/1/71 292/1/71 230/1/71
f 16/1/72 231/1/72 292/1/72 208/1/72
f 97/1/73 230/1/73 292/1/73 231/1/73
f 1/1/74 195/1/74 293/1/74 226/1/74
f 3/1/75 232/1/75 293/1/75 195/1/75
f 97/1/76 226/1/76 293/1/76 232/1/76
f 29/1/77 222/1/77 294/1/77 229/1/77
f 30/1/78 233/1/78 294/1/78 222/1/78
f 97/1/79 229/1/79 294/1/79 233/1/79
f 16/1/80 209/1/80 295/1/80 231/1/80
f 17/1/81 234/1/81 295/1/81 209/1/81
f 97/1/82 231/1/82 295/1/82 234/1/82
f 3/1/83 196/1/83 296/1/83 232/1/83
f 4/1/84 235/1/84 296/1/84 196/1/84
f 97/1/85 232/1/85 296/1/85 235/1/85
f 30/1/86 223/1/86 297/1/86 233/1/86
f 31/1/87 236/1/87 297/1/87 223/1/87
f 97/1/88 233/1/88 297/1/88 236/1/88
f 17/1/89 210/1/89 298/1/89 234/1/89
f 18/1/90 237/1/90 298/1/90 210/1/90
f 97/1/91 234/1/91 298/1/91 237/1/91
f 4/1/92 197/1/92 299/1/92 235/1/92
f 5/1/93 238/1/93 299/1/93 197/1/93
f 97/1/94 235/1/94 299/1/94 238/1/94
f 31/1/95 224/1/95 300/1/95 236/1/95
f 32/1/96 239/1/96 300/1/96 224/1/96
f 97/1/97 236/1/97 300/1/97 239/1/97
f 18/1/98 211/1/98 301/1/98 237/1/98
f 19/1/99 240/1/99 301/1/99 211/1/99
f 97/1/100 237/1/100 301/1/100 240/1/100
f 5/1/101 198/1/101 302/1/101 238/1/101
f 6/1/102 241/1/102 302/1/102 198/1/102
f 97/1/103 238/1/103 302/1/103 241/1/103
f 32/1/104 225/1/104 303/1/104 239/1/104
f 2/1/105 227/1/105 303/1/105 225/1/105
f 97/1/106 239/1/106 303/1/106 227/1/106
f 19/1/107 212/1/107 304/1/107 240/1/107
f 20/1/108 242/1/108 304/1/108 212/1/108
f 97/1/109 240/1/109 304/1/109 242/1/109
f 6/1/110 199/1/110 305/1/110 241/1/110
f 7/1/111 243/1/111 305/1/111 199/1/111
f 97/1/112 241/1/112 305/1/112 243/1/112
f 20/1/113 213/1/113 306/1/113 242/1/113
f 21/1/114 244/1/114 306/1/114 213/1/114
f 97/1/115 242/1/115 306/1/115 244/1/115
f 7/1/116 200/1/116 307/1/116 243/1/116
f 8/1/117 245/1/117 307/1/117 200/1/117
f 97/1/118 243/1/118 307/1/118 245/1/118
f 21/1/119 214/1/119 308/1/119 244/1/119
f 22/1/120 246/1/120 308/1/120 214/1/120
f 97/1/121 244/1/121 308/1/121 246/1/121
f 8/1/122 201/1/122 309/1/122 245/1/122
f 9/1/123 247/1/123 309/1/123 201/1/123
f 97/1/124 245/1/124 309/1/124 247/1/124
f 22/1/125 215/1/125 310/1/125 246/1/125
f 23/1/126 248/1/126 310/1/126 215/1/126
f 97/1/127 246/1/127 310/1/127 248/1/127
f 9/1/128 202/1/128 311/1/128 247/1/128
f 10/1/129 249/1/129 311/1/129 202/1/129
f 97/1/130 247/1/130 311/1/130 249/1/130
f 23/1/131 216/1/131 312/1/131 248/1/131
f 24/1/132 250/1/132 312/1/132 216/1/132
f 97/1/133 248/1/133 312/1/133 250/1/133
f 10/1/134 203/1/134 313/1/134 249/1/134
f 11/1/135 251/1/135 313/1/135 203/1/135
f 97/1/136 249/1/136 313/1/136 251/1/136
f 24/1/137 217/1/137 314/1/137 250/1/137
f 25/1/138 252/1/138 314/1/138 217/1/138
f 97/1/139 250/1/139 314/1/139 252/1/139
f 11/1/140 204/1/140 315/1/140 251/1/140
f 12/1/141 253/1/141 315/1/141 204/1/141
f 97/1/142 251/1/142 315/1/142 253/1/142
f 25/1/143 218/1/143 316/1/143 252/1/143
f 26/1/144 254/1/144 316/1/144 218/1/144
f 97/1/145 252/1/145 316/1/145 254/1/145
f 12/1/146 205/1/146 317/1/146 253/1/146
f 13/1/147 255/1/147 317/1/147 205/1/147
f 97/1/148 253/1/148 317/1/148 255/1/148
f 26/1/149 219/1/149 318/1/149 254/1/149
f 27/1/150 256/1/150 318/1/150 219/1/150
f 97/1/151 254/1/151 318/1/151 256/1/151
f 13/1/152 206/1/152 319/1/152 255/1/152
f 14/1/153 257/1/153 319/1/153 206/1/153
f 97/1/154 255/1/154 319/1/154 257/1/154
f 27/1/155 220/1/155 320/1/155 256/1/155
f 28/1/156 228/1/156 320/1/156 220/1/156
f 97/1/157 256/1/157 320/1/157 228/1/157
f 14/1/158 207/1/158 321/1/158 257/1/158
f 15/1/159 230/1/159 321/1/159 207/1/159
f 97/1/160 257/1/160 321/1/160 230/1/160
