# Blender 4.0.2
# www.blender.org
mtllib hopo_bottom.mtl
o Notes.001
v 0.000000 0.028739 0.004942
v 0.000000 -0.000205 0.005160
v 0.233352 0.158262 0.108661
v 0.203350 0.168405 0.108686
v 0.232296 0.150887 0.081142
v 0.203023 0.162656 0.075388
v 0.111075 0.171098 0.108689
v 0.111071 0.164028 0.072950
v 0.248438 0.142856 0.108620
v 0.242520 0.135529 0.067466
v 0.203083 0.147529 0.045904
v 0.268175 0.101935 0.108507
v 0.255101 0.101964 0.056784
v 0.111069 0.148251 0.045766
v 0.236264 0.120029 0.044690
v 0.202751 0.129060 0.026048
v 0.236766 0.101981 0.034354
v 0.202531 0.102294 0.012469
v 0.111062 0.129782 0.027020
v 0.111054 0.102292 0.011823
v 0.272516 0.064134 0.108403
v 0.268229 0.064135 0.082274
v 0.272885 0.028720 0.108305
v 0.269306 0.028734 0.082290
v 0.272977 -0.000207 0.108225
v 0.269368 -0.000205 0.083799
v 0.261160 0.064135 0.058854
v 0.262944 0.028781 0.058996
v 0.239470 0.064135 0.027849
v 0.202246 0.064117 0.006122
v 0.241399 0.028754 0.027359
v 0.201882 0.028821 0.005026
v 0.111043 0.064135 0.005970
v 0.111032 0.028739 0.004942
v 0.262964 -0.000206 0.060113
v 0.241389 -0.000205 0.027500
v 0.201582 -0.000206 0.005238
v 0.111024 -0.000205 0.005160
v 0.180440 0.064130 0.006044
v 0.180095 -0.000205 0.005199
v 0.180776 0.129269 0.026609
v 0.181014 0.170976 0.108691
v 0.180250 0.028782 0.004984
v 0.180876 0.148281 0.045833
v 0.180644 0.102292 0.012146
v 0.180948 0.163948 0.072616
v 0.233352 0.158262 0.129999
v 0.203350 0.169405 0.129999
v 0.111075 0.172098 0.129999
v 0.250742 0.142856 0.129999
v 0.268175 0.101935 0.129999
v 0.272516 0.064134 0.129999
v 0.272885 0.028720 0.129999
v 0.272977 -0.000207 0.129999
v 0.181014 0.171976 0.129999
v 0.256764 0.120224 0.086163
v 0.260928 0.120330 0.108558
v 0.262575 0.120431 0.129999
v 0.248755 0.120113 0.062560
v -0.233352 0.158262 0.108661
v -0.203350 0.168405 0.108686
v -0.232296 0.150887 0.081142
v -0.203023 0.162656 0.075388
v -0.111074 0.171098 0.108689
v -0.111070 0.164028 0.072950
v -0.248438 0.142856 0.108620
v -0.242520 0.135529 0.067466
v -0.203083 0.147529 0.045904
v -0.268175 0.101935 0.108507
v -0.255101 0.101964 0.056784
v -0.111068 0.148251 0.045766
v -0.236263 0.120029 0.044690
v -0.202752 0.129060 0.026048
v -0.236766 0.101981 0.034354
v -0.202531 0.102294 0.012469
v -0.111061 0.129782 0.027020
v -0.111053 0.102292 0.011823
v -0.272516 0.064134 0.108403
v -0.268229 0.064135 0.082274
v -0.272885 0.028720 0.108305
v -0.269306 0.028734 0.082290
v -0.272977 -0.000207 0.108225
v -0.269368 -0.000205 0.083799
v -0.261160 0.064135 0.058854
v -0.262943 0.028781 0.058996
v -0.239469 0.064135 0.027849
v -0.202247 0.064117 0.006122
v -0.241399 0.028754 0.027359
v -0.201882 0.028821 0.005026
v -0.111042 0.064135 0.005970
v -0.111032 0.028739 0.004942
v -0.262964 -0.000206 0.060113
v -0.241388 -0.000205 0.027500
v -0.201582 -0.000206 0.005238
v -0.111023 -0.000205 0.005160
v -0.180440 0.064130 0.006044
v -0.180095 -0.000205 0.005199
v -0.180776 0.129269 0.026609
v -0.181014 0.170976 0.108691
v -0.180250 0.028782 0.004984
v -0.180876 0.148281 0.045833
v -0.180644 0.102292 0.012146
v -0.180948 0.163948 0.072616
v -0.233352 0.158262 0.129999
v -0.203350 0.169405 0.129999
v -0.111074 0.172098 0.129999
v -0.250742 0.142856 0.129999
v -0.268175 0.101935 0.129999
v -0.272516 0.064134 0.129999
v -0.272885 0.028720 0.129999
v -0.272977 -0.000207 0.129999
v -0.181014 0.171976 0.129999
v -0.256764 0.120225 0.086163
v -0.260928 0.120330 0.108558
v -0.262575 0.120431 0.129999
v -0.248755 0.120113 0.062560
v 0.000000 0.028739 0.255056
v 0.000000 -0.000205 0.254838
v 0.233352 0.158262 0.151337
v 0.203350 0.168405 0.151313
v 0.232296 0.150887 0.178856
v 0.203023 0.162656 0.184610
v 0.111075 0.171098 0.151309
v 0.111071 0.164028 0.187048
v 0.248438 0.142856 0.151378
v 0.242520 0.135529 0.192531
v 0.203083 0.147529 0.214094
v 0.268175 0.101935 0.151491
v 0.255101 0.101964 0.203214
v 0.111069 0.148251 0.214232
v 0.236264 0.120029 0.215308
v 0.202751 0.129060 0.233950
v 0.236766 0.101981 0.225645
v 0.202531 0.102294 0.247530
v 0.111062 0.129782 0.232978
v 0.111054 0.102292 0.248175
v 0.272516 0.064134 0.151595
v 0.268229 0.064135 0.177724
v 0.272885 0.028720 0.151693
v 0.269306 0.028734 0.177709
v 0.272977 -0.000207 0.151773
v 0.269368 -0.000205 0.176199
v 0.261160 0.064135 0.201144
v 0.262944 0.028781 0.201002
v 0.239470 0.064135 0.232150
v 0.202246 0.064117 0.253876
v 0.241399 0.028754 0.232639
v 0.201882 0.028821 0.254971
v 0.111043 0.064135 0.254028
v 0.111032 0.028739 0.255056
v 0.262964 -0.000206 0.199884
v 0.241389 -0.000205 0.232499
v 0.201582 -0.000206 0.254760
v 0.111024 -0.000205 0.254838
v 0.180440 0.064130 0.253955
v 0.180095 -0.000205 0.254799
v 0.180776 0.129269 0.233390
v 0.181014 0.170976 0.151307
v 0.180250 0.028782 0.255014
v 0.180876 0.148281 0.214166
v 0.180644 0.102292 0.247852
v 0.180948 0.163948 0.187382
v 0.256764 0.120224 0.173835
v 0.260928 0.120330 0.151440
v 0.248755 0.120113 0.197438
v -0.233352 0.158262 0.151337
v -0.203350 0.168405 0.151313
v -0.232296 0.150887 0.178856
v -0.203023 0.162656 0.184610
v -0.111074 0.171098 0.151309
v -0.111070 0.164028 0.187048
v -0.248438 0.142856 0.151378
v -0.242520 0.135529 0.192531
v -0.203083 0.147529 0.214094
v -0.268175 0.101935 0.151491
v -0.255101 0.101964 0.203214
v -0.111068 0.148251 0.214232
v -0.236263 0.120029 0.215308
v -0.202752 0.129060 0.233950
v -0.236766 0.101981 0.225645
v -0.202531 0.102294 0.247530
v -0.111061 0.129782 0.232978
v -0.111053 0.102292 0.248175
v -0.272516 0.064134 0.151595
v -0.268229 0.064135 0.177724
v -0.272885 0.028720 0.151693
v -0.269306 0.028734 0.177709
v -0.272977 -0.000207 0.151773
v -0.269368 -0.000205 0.176199
v -0.261160 0.064135 0.201144
v -0.262943 0.028781 0.201002
v -0.239469 0.064135 0.232150
v -0.202247 0.064117 0.253876
v -0.241399 0.028754 0.232639
v -0.201882 0.028821 0.254971
v -0.111042 0.064135 0.254028
v -0.111032 0.028739 0.255056
v -0.262964 -0.000206 0.199884
v -0.241388 -0.000205 0.232499
v -0.201582 -0.000206 0.254760
v -0.111023 -0.000205 0.254838
v -0.180440 0.064130 0.253955
v -0.180095 -0.000205 0.254799
v -0.180776 0.129269 0.233390
v -0.181014 0.170976 0.151307
v -0.180250 0.028782 0.255014
v -0.180876 0.148281 0.214166
v -0.180644 0.102292 0.247852
v -0.180948 0.163948 0.187382
v -0.256764 0.120225 0.173835
v -0.260928 0.120330 0.151440
v -0.248755 0.120113 0.197438
vn -0.0000 -0.0075 -1.0000
vn 0.0005 0.0048 -1.0000
vn 0.0003 -0.0075 -1.0000
vn 0.5269 0.8415 -0.1199
vn 0.5333 0.7914 -0.2987
vn 0.2454 0.9105 -0.3327
vn 0.2271 0.9672 -0.1141
vn 0.7841 0.6065 -0.1318
vn 0.9005 0.4176 -0.1212
vn 0.8828 0.4116 -0.2265
vn 0.6853 0.6105 -0.3971
vn 0.2596 0.5805 -0.7718
vn 0.6114 0.4876 -0.6233
vn 0.6417 0.2671 -0.7189
vn 0.2633 0.3059 -0.9149
vn 0.2644 0.7738 -0.5756
vn 0.8194 0.4135 -0.3970
vn 0.0535 0.9917 -0.1169
vn 0.0419 0.9363 -0.3487
vn 0.0002 0.9358 -0.3525
vn 0.0014 0.9928 -0.1201
vn 0.0019 0.6013 -0.7990
vn 0.0027 0.3184 -0.9480
vn 0.0201 0.8006 -0.5989
vn 0.0010 0.6021 -0.7984
vn -0.0000 0.7941 -0.6078
vn 0.9716 0.0870 -0.2202
vn 0.9654 0.2332 -0.1169
vn 0.9949 0.0646 -0.0776
vn 0.9973 0.0083 -0.0727
vn 0.9780 0.0117 -0.2084
vn 0.9975 0.0012 -0.0708
vn 0.9798 -0.0055 -0.2001
vn 0.2630 0.0977 -0.9598
vn 0.6680 0.0920 -0.7384
vn 0.6793 0.0145 -0.7338
vn 0.2558 0.0118 -0.9667
vn 0.6789 -0.0102 -0.7341
vn 0.2529 -0.0079 -0.9675
vn 0.9001 0.0942 -0.4254
vn 0.9065 0.0156 -0.4219
vn 0.0039 0.0941 -0.9956
vn 0.0015 0.0113 -0.9999
vn 0.0012 -0.0074 -1.0000
vn 0.9112 -0.0114 -0.4119
vn 0.8627 0.2543 -0.4372
vn 0.0020 0.3210 -0.9471
vn 0.0018 0.0923 -0.9957
vn 0.0580 0.9983 -0.0000
vn 0.2251 0.9743 -0.0000
vn 0.9154 0.4025 -0.0000
vn 0.9749 0.2228 -0.0000
vn 0.9981 0.0623 -0.0000
vn 1.0000 0.0068 -0.0000
vn 0.0017 1.0000 -0.0000
vn 1.0000 0.0032 -0.0000
vn 0.5226 0.8526 -0.0000
vn 0.7976 0.6032 -0.0000
vn -0.0003 -0.0075 -1.0000
vn -0.0005 0.0048 -1.0000
vn -0.5269 0.8415 -0.1199
vn -0.2271 0.9672 -0.1141
vn -0.2454 0.9105 -0.3327
vn -0.5333 0.7914 -0.2987
vn -0.7841 0.6065 -0.1318
vn -0.6853 0.6105 -0.3971
vn -0.8828 0.4116 -0.2265
vn -0.9005 0.4177 -0.1212
vn -0.2596 0.5805 -0.7718
vn -0.2633 0.3059 -0.9149
vn -0.6417 0.2671 -0.7189
vn -0.6114 0.4876 -0.6233
vn -0.2644 0.7738 -0.5756
vn -0.8193 0.4135 -0.3971
vn -0.0535 0.9917 -0.1169
vn -0.0014 0.9928 -0.1201
vn -0.0002 0.9358 -0.3525
vn -0.0419 0.9363 -0.3487
vn -0.0019 0.6013 -0.7990
vn -0.0027 0.3184 -0.9480
vn -0.0201 0.8006 -0.5989
vn -0.0010 0.6021 -0.7984
vn -0.9716 0.0870 -0.2202
vn -0.9949 0.0646 -0.0776
vn -0.9654 0.2332 -0.1169
vn -0.9780 0.0117 -0.2084
vn -0.9973 0.0083 -0.0727
vn -0.9798 -0.0055 -0.2001
vn -0.9975 0.0012 -0.0708
vn -0.2630 0.0977 -0.9598
vn -0.2558 0.0118 -0.9667
vn -0.6793 0.0145 -0.7338
vn -0.6680 0.0920 -0.7384
vn -0.2529 -0.0079 -0.9675
vn -0.6789 -0.0102 -0.7341
vn -0.9001 0.0942 -0.4254
vn -0.9065 0.0156 -0.4220
vn -0.0039 0.0941 -0.9956
vn -0.0015 0.0113 -0.9999
vn -0.0012 -0.0074 -1.0000
vn -0.9112 -0.0114 -0.4119
vn -0.8627 0.2543 -0.4372
vn -0.0020 0.3210 -0.9471
vn -0.0018 0.0923 -0.9957
vn -0.2251 0.9743 -0.0000
vn -0.0580 0.9983 -0.0000
vn -0.9749 0.2228 -0.0000
vn -0.9154 0.4025 -0.0000
vn -1.0000 0.0068 -0.0000
vn -0.9981 0.0623 -0.0000
vn -0.0017 1.0000 -0.0000
vn -1.0000 0.0032 -0.0000
vn -0.5226 0.8526 -0.0000
vn -0.7976 0.6032 -0.0000
vn -0.0000 -0.0075 1.0000
vn 0.0003 -0.0075 1.0000
vn 0.0005 0.0048 1.0000
vn 0.5269 0.8415 0.1199
vn 0.2271 0.9672 0.1141
vn 0.2454 0.9105 0.3327
vn 0.5333 0.7914 0.2987
vn 0.7841 0.6065 0.1319
vn 0.6853 0.6105 0.3971
vn 0.8828 0.4116 0.2265
vn 0.9005 0.4176 0.1212
vn 0.2596 0.5805 0.7718
vn 0.2633 0.3059 0.9149
vn 0.6417 0.2671 0.7189
vn 0.6114 0.4876 0.6233
vn 0.2644 0.7738 0.5756
vn 0.8194 0.4135 0.3970
vn 0.0535 0.9917 0.1169
vn 0.0014 0.9928 0.1201
vn 0.0002 0.9358 0.3525
vn 0.0419 0.9363 0.3487
vn 0.0019 0.6013 0.7990
vn 0.0027 0.3184 0.9480
vn 0.0201 0.8006 0.5989
vn -0.0000 0.7941 0.6078
vn 0.0010 0.6021 0.7984
vn 0.9716 0.0870 0.2202
vn 0.9949 0.0646 0.0776
vn 0.9654 0.2332 0.1169
vn 0.9780 0.0117 0.2084
vn 0.9973 0.0083 0.0727
vn 0.9798 -0.0055 0.2001
vn 0.9975 0.0012 0.0708
vn 0.2630 0.0977 0.9598
vn 0.2558 0.0118 0.9667
vn 0.6792 0.0145 0.7338
vn 0.6680 0.0920 0.7384
vn 0.2529 -0.0079 0.9675
vn 0.6789 -0.0102 0.7341
vn 0.9001 0.0942 0.4254
vn 0.9065 0.0156 0.4219
vn 0.0039 0.0941 0.9956
vn 0.0015 0.0113 0.9999
vn 0.0012 -0.0074 1.0000
vn 0.9112 -0.0114 0.4119
vn 0.8627 0.2543 0.4372
vn 0.0020 0.3210 0.9471
vn 0.0018 0.0923 0.9957
vn -0.0005 0.0048 1.0000
vn -0.0003 -0.0075 1.0000
vn -0.5269 0.8415 0.1199
vn -0.5333 0.7914 0.2987
vn -0.2454 0.9105 0.3327
vn -0.2271 0.9672 0.1141
vn -0.7841 0.6065 0.1319
vn -0.9005 0.4177 0.1212
vn -0.8828 0.4116 0.2265
vn -0.6853 0.6105 0.3971
vn -0.2596 0.5805 0.7718
vn -0.6114 0.4876 0.6233
vn -0.6417 0.2671 0.7189
vn -0.2633 0.3059 0.9149
vn -0.2644 0.7738 0.5756
vn -0.8193 0.4135 0.3971
vn -0.0535 0.9917 0.1169
vn -0.0419 0.9363 0.3487
vn -0.0002 0.9358 0.3525
vn -0.0014 0.9928 0.1201
vn -0.0019 0.6013 0.7990
vn -0.0027 0.3184 0.9480
vn -0.0201 0.8006 0.5989
vn -0.0010 0.6021 0.7984
vn -0.9716 0.0870 0.2202
vn -0.9654 0.2332 0.1169
vn -0.9949 0.0646 0.0776
vn -0.9973 0.0083 0.0727
vn -0.9780 0.0117 0.2085
vn -0.9975 0.0012 0.0708
vn -0.9798 -0.0055 0.2001
vn -0.2630 0.0977 0.9598
vn -0.6680 0.0920 0.7384
vn -0.6793 0.0145 0.7338
vn -0.2558 0.0118 0.9667
vn -0.6789 -0.0102 0.7341
vn -0.2529 -0.0079 0.9675
vn -0.9001 0.0942 0.4254
vn -0.9065 0.0156 0.4220
vn -0.0039 0.0941 0.9956
vn -0.0015 0.0113 0.9999
vn -0.0012 -0.0074 1.0000
vn -0.9112 -0.0114 0.4119
vn -0.8627 0.2543 0.4372
vn -0.0020 0.3210 0.9471
vn -0.0018 0.0923 0.9957
vt 0.500000 0.167989
vt 0.257315 0.167989
vt 0.257326 0.000010
vt 0.500000 0.000010
vt 0.053120 0.919698
vt 0.054535 0.876898
vt 0.093778 0.945198
vt 0.093339 0.978563
vt 0.032897 0.830289
vt 0.016153 0.699554
vt 0.021734 0.698942
vt 0.040830 0.787765
vt 0.094142 0.750220
vt 0.049217 0.697810
vt 0.048544 0.593063
vt 0.094437 0.594878
vt 0.093697 0.857407
vt 0.032472 0.698298
vt 0.123283 0.993489
vt 0.123371 0.952702
vt 0.257263 0.953163
vt 0.257258 0.994196
vt 0.123601 0.751436
vt 0.123779 0.594870
vt 0.123468 0.861776
vt 0.257276 0.754412
vt 0.257267 0.861599
vt 0.006365 0.373419
vt 0.006437 0.592798
vt 0.000618 0.373412
vt 0.000123 0.167883
vt 0.004921 0.167962
vt 0.000000 0.000000
vt 0.004838 0.000010
vt 0.094819 0.373312
vt 0.044919 0.373419
vt 0.042333 0.168081
vt 0.095308 0.168469
vt 0.042347 0.000010
vt 0.095710 0.000006
vt 0.015841 0.373419
vt 0.013451 0.168235
vt 0.124052 0.373388
vt 0.124306 0.168238
vt 0.124515 0.000011
vt 0.013423 0.000005
vt 0.023964 0.592965
vt 0.257286 0.594868
vt 0.257301 0.373417
vt 0.123283 0.999292
vt 0.093339 0.984367
vt 0.013945 0.700140
vt 0.257258 0.996815
vt 0.029808 0.830289
vt 0.742674 0.000010
vt 0.742685 0.167989
vt 0.946880 0.919698
vt 0.906661 0.978564
vt 0.906222 0.945198
vt 0.945465 0.876898
vt 0.967103 0.830290
vt 0.959170 0.787765
vt 0.978266 0.698942
vt 0.983847 0.699554
vt 0.905858 0.750220
vt 0.905563 0.594878
vt 0.951456 0.593063
vt 0.950783 0.697810
vt 0.906303 0.857407
vt 0.967528 0.698298
vt 0.876717 0.993489
vt 0.742742 0.994196
vt 0.742737 0.953163
vt 0.876629 0.952702
vt 0.876399 0.751436
vt 0.876221 0.594871
vt 0.876533 0.861776
vt 0.742733 0.861599
vt 0.742725 0.754412
vt 0.993635 0.373419
vt 0.999382 0.373412
vt 0.993563 0.592798
vt 0.995079 0.167962
vt 0.999877 0.167883
vt 0.995162 0.000011
vt 1.000000 0.000000
vt 0.905181 0.373312
vt 0.904692 0.168469
vt 0.957667 0.168081
vt 0.955081 0.373419
vt 0.904290 0.000006
vt 0.957654 0.000011
vt 0.984159 0.373419
vt 0.986549 0.168235
vt 0.875948 0.373388
vt 0.875694 0.168238
vt 0.875485 0.000011
vt 0.986577 0.000005
vt 0.976036 0.592965
vt 0.742715 0.594868
vt 0.742700 0.373417
vt 0.906661 0.984367
vt 0.876717 0.999292
vt 0.986055 0.700140
vt 0.742742 0.996815
vt 0.970193 0.830290
vt 0.257326 0.000010
vt 0.257315 0.167989
vt 0.257267 0.861599
vt 0.742685 0.167989
vt 0.742742 0.994196
vt 0.742733 0.861599
vt 0.742715 0.594868
s 1
g Notes.001_Material.003
usemtl Material.003
f 1/1/1 34/2/2 38/3/3 2/4/1
f 3/5/4 5/6/5 6/7/6 4/8/7
f 9/9/8 57/10/9 56/11/10 10/12/11
f 16/13/12 15/14/13 17/15/14 18/16/15
f 6/7/6 5/6/5 10/12/11 11/17/16
f 3/5/4 9/9/8 5/6/5
f 10/12/11 15/14/13 16/13/12 11/17/16
f 10/12/11 59/18/17 15/14/13
f 42/19/18 46/20/19 8/21/20 7/22/21
f 41/23/22 16/13/12 18/16/15 45/24/23
f 44/25/24 41/23/22 19/26/25 14/27/26
f 46/20/19 6/7/6 11/17/16 44/25/24
f 22/28/27 12/29/28 21/30/29
f 21/30/29 23/31/30 24/32/31 22/28/27
f 23/31/30 25/33/32 26/34/33 24/32/31
f 30/35/34 29/36/35 31/37/36 32/38/37
f 32/38/37 31/37/36 36/39/38 37/40/39
f 27/41/40 28/42/41 31/37/36 29/36/35
f 39/43/42 30/35/34 32/38/37 43/44/43
f 43/44/43 32/38/37 37/40/39 40/45/44
f 28/42/41 35/46/45 36/39/38 31/37/36
f 27/41/40 22/28/27 24/32/31 28/42/41
f 28/42/41 24/32/31 26/34/33 35/46/45
f 18/16/15 17/15/14 29/36/35 30/35/34
f 45/24/23 18/16/15 30/35/34 39/43/42
f 13/47/46 27/41/40 29/36/35 17/15/14
f 12/29/28 22/28/27 27/41/40 13/47/46
f 20/48/47 45/24/23 39/43/42 33/49/48
f 34/2/2 43/44/43 40/45/44 38/3/3
f 33/49/48 39/43/42 43/44/43 34/2/2
f 8/21/20 46/20/19 44/25/24 14/27/26
f 11/17/16 16/13/12 41/23/22 44/25/24
f 19/26/25 41/23/22 45/24/23 20/48/47
f 4/8/7 6/7/6 46/20/19 42/19/18
f 12/29/28 13/47/46 59/18/17 56/11/10
f 9/9/8 10/12/11 5/6/5
f 13/47/46 17/15/14 15/14/13
f 4/8/7 42/19/18 55/50/49 48/51/50
f 12/29/28 57/10/9 58/52/51 51/29/52
f 23/31/30 21/30/29 52/30/53 53/31/54
f 42/19/18 7/22/21 49/53/55 55/50/49
f 25/33/32 23/31/30 53/31/54 54/33/56
f 21/30/29 12/29/28 51/29/52 52/30/53
f 3/5/4 4/8/7 48/51/50 47/5/57
f 9/9/8 3/5/4 47/5/57 50/54/58
f 58/52/51 57/10/9 9/9/8 50/54/58
f 56/11/10 59/18/17 10/12/11
f 15/14/13 59/18/17 13/47/46
f 56/11/10 57/10/9 12/29/28
f 1/1/1 2/4/1 95/55/59 91/56/60
f 60/57/61 61/58/62 63/59/63 62/60/64
f 66/61/65 67/62/66 113/63/67 114/64/68
f 73/65/69 75/66/70 74/67/71 72/68/72
f 63/59/63 68/69/73 67/62/66 62/60/64
f 60/57/61 62/60/64 66/61/65
f 67/62/66 68/69/73 73/65/69 72/68/72
f 67/62/66 72/68/72 116/70/74
f 99/71/75 64/72/76 65/73/77 103/74/78
f 98/75/79 102/76/80 75/66/70 73/65/69
f 101/77/81 71/78/26 76/79/82 98/75/79
f 103/74/78 101/77/81 68/69/73 63/59/63
f 79/80/83 78/81/84 69/82/85
f 78/81/84 79/80/83 81/83/86 80/84/87
f 80/84/87 81/83/86 83/85/88 82/86/89
f 87/87/90 89/88/91 88/89/92 86/90/93
f 89/88/91 94/91/94 93/92/95 88/89/92
f 84/93/96 86/90/93 88/89/92 85/94/97
f 96/95/98 100/96/99 89/88/91 87/87/90
f 100/96/99 97/97/100 94/91/94 89/88/91
f 85/94/97 88/89/92 93/92/95 92/98/101
f 84/93/96 85/94/97 81/83/86 79/80/83
f 85/94/97 92/98/101 83/85/88 81/83/86
f 75/66/70 87/87/90 86/90/93 74/67/71
f 102/76/80 96/95/98 87/87/90 75/66/70
f 70/99/102 74/67/71 86/90/93 84/93/96
f 69/82/85 70/99/102 84/93/96 79/80/83
f 77/100/103 90/101/104 96/95/98 102/76/80
f 91/56/60 95/55/59 97/97/100 100/96/99
f 90/101/104 91/56/60 100/96/99 96/95/98
f 65/73/77 71/78/26 101/77/81 103/74/78
f 68/69/73 101/77/81 98/75/79 73/65/69
f 76/79/82 77/100/103 102/76/80 98/75/79
f 61/58/62 99/71/75 103/74/78 63/59/63
f 69/82/85 113/63/67 116/70/74 70/99/102
f 66/61/65 62/60/64 67/62/66
f 70/99/102 72/68/72 74/67/71
f 61/58/62 105/102/105 112/103/106 99/71/75
f 69/82/85 108/82/107 115/104/108 114/64/68
f 80/84/87 110/84/109 109/81/110 78/81/84
f 99/71/75 112/103/106 106/105/111 64/72/76
f 82/86/89 111/86/112 110/84/109 80/84/87
f 78/81/84 109/81/110 108/82/107 69/82/85
f 60/57/61 104/57/113 105/102/105 61/58/62
f 66/61/65 107/106/114 104/57/113 60/57/61
f 115/104/108 107/106/114 66/61/65 114/64/68
f 113/63/67 67/62/66 116/70/74
f 72/68/72 70/99/102 116/70/74
f 113/63/67 69/82/85 114/64/68
f 117/1/115 118/4/115 154/107/116 150/108/117
f 119/5/118 120/8/119 122/7/120 121/6/121
f 125/9/122 126/12/123 163/11/124 164/10/125
f 132/13/126 134/16/127 133/15/128 131/14/129
f 122/7/120 127/17/130 126/12/123 121/6/121
f 119/5/118 121/6/121 125/9/122
f 126/12/123 127/17/130 132/13/126 131/14/129
f 126/12/123 131/14/129 165/18/131
f 158/19/132 123/22/133 124/21/134 162/20/135
f 157/23/136 161/24/137 134/16/127 132/13/126
f 160/25/138 130/109/139 135/26/140 157/23/136
f 162/20/135 160/25/138 127/17/130 122/7/120
f 138/28/141 137/30/142 128/29/143
f 137/30/142 138/28/141 140/32/144 139/31/145
f 139/31/145 140/32/144 142/34/146 141/33/147
f 146/35/148 148/38/149 147/37/150 145/36/151
f 148/38/149 153/40/152 152/39/153 147/37/150
f 143/41/154 145/36/151 147/37/150 144/42/155
f 155/43/156 159/44/157 148/38/149 146/35/148
f 159/44/157 156/45/158 153/40/152 148/38/149
f 144/42/155 147/37/150 152/39/153 151/46/159
f 143/41/154 144/42/155 140/32/144 138/28/141
f 144/42/155 151/46/159 142/34/146 140/32/144
f 134/16/127 146/35/148 145/36/151 133/15/128
f 161/24/137 155/43/156 146/35/148 134/16/127
f 129/47/160 133/15/128 145/36/151 143/41/154
f 128/29/143 129/47/160 143/41/154 138/28/141
f 136/48/161 149/49/162 155/43/156 161/24/137
f 150/108/117 154/107/116 156/45/158 159/44/157
f 149/49/162 150/108/117 159/44/157 155/43/156
f 124/21/134 130/109/139 160/25/138 162/20/135
f 127/17/130 160/25/138 157/23/136 132/13/126
f 135/26/140 136/48/161 161/24/137 157/23/136
f 120/8/119 158/19/132 162/20/135 122/7/120
f 128/29/143 163/11/124 165/18/131 129/47/160
f 125/9/122 121/6/121 126/12/123
f 129/47/160 131/14/129 133/15/128
f 120/8/119 48/51/50 55/50/49 158/19/132
f 128/29/143 51/29/52 58/52/51 164/10/125
f 139/31/145 53/31/54 52/30/53 137/30/142
f 158/19/132 55/50/49 49/53/55 123/22/133
f 141/33/147 54/33/56 53/31/54 139/31/145
f 137/30/142 52/30/53 51/29/52 128/29/143
f 119/5/118 47/5/57 48/51/50 120/8/119
f 125/9/122 50/54/58 47/5/57 119/5/118
f 58/52/51 50/54/58 125/9/122 164/10/125
f 163/11/124 126/12/123 165/18/131
f 131/14/129 129/47/160 165/18/131
f 163/11/124 128/29/143 164/10/125
f 117/1/115 197/110/163 201/55/164 118/4/115
f 166/57/165 168/60/166 169/59/167 167/58/168
f 172/61/169 211/64/170 210/63/171 173/62/172
f 179/65/173 178/68/174 180/67/175 181/66/176
f 169/59/167 168/60/166 173/62/172 174/69/177
f 166/57/165 172/61/169 168/60/166
f 173/62/172 178/68/174 179/65/173 174/69/177
f 173/62/172 212/70/178 178/68/174
f 205/71/179 209/74/180 171/73/181 170/111/182
f 204/75/183 179/65/173 181/66/176 208/76/184
f 207/77/185 204/75/183 182/79/186 177/112/139
f 209/74/180 169/59/167 174/69/177 207/77/185
f 185/80/187 175/82/188 184/81/189
f 184/81/189 186/84/190 187/83/191 185/80/187
f 186/84/190 188/86/192 189/85/193 187/83/191
f 193/87/194 192/90/195 194/89/196 195/88/197
f 195/88/197 194/89/196 199/92/198 200/91/199
f 190/93/200 191/94/201 194/89/196 192/90/195
f 202/95/202 193/87/194 195/88/197 206/96/203
f 206/96/203 195/88/197 200/91/199 203/97/204
f 191/94/201 198/98/205 199/92/198 194/89/196
f 190/93/200 185/80/187 187/83/191 191/94/201
f 191/94/201 187/83/191 189/85/193 198/98/205
f 181/66/176 180/67/175 192/90/195 193/87/194
f 208/76/184 181/66/176 193/87/194 202/95/202
f 176/99/206 190/93/200 192/90/195 180/67/175
f 175/82/188 185/80/187 190/93/200 176/99/206
f 183/113/207 208/76/184 202/95/202 196/101/208
f 197/110/163 206/96/203 203/97/204 201/55/164
f 196/101/208 202/95/202 206/96/203 197/110/163
f 171/73/181 209/74/180 207/77/185 177/112/139
f 174/69/177 179/65/173 204/75/183 207/77/185
f 182/79/186 204/75/183 208/76/184 183/113/207
f 167/58/168 169/59/167 209/74/180 205/71/179
f 175/82/188 176/99/206 212/70/178 210/63/171
f 172/61/169 173/62/172 168/60/166
f 176/99/206 180/67/175 178/68/174
f 167/58/168 205/71/179 112/103/106 105/102/105
f 175/82/188 211/64/170 115/104/108 108/82/107
f 186/84/190 184/81/189 109/81/110 110/84/109
f 205/71/179 170/111/182 106/105/111 112/103/106
f 188/86/192 186/84/190 110/84/109 111/86/112
f 184/81/189 175/82/188 108/82/107 109/81/110
f 166/57/165 167/58/168 105/102/105 104/57/113
f 172/61/169 166/57/165 104/57/113 107/106/114
f 115/104/108 211/64/170 172/61/169 107/106/114
f 210/63/171 212/70/178 173/62/172
f 178/68/174 212/70/178 176/99/206
f 210/63/171 211/64/170 175/82/188
