# Blender 4.1.1
# www.blender.org
o Plane.006
v 2.490000 0.010000 0.400000
v 2.490000 0.010000 0.000000
v 2.570000 0.120000 0.400000
v 2.570000 0.120000 0.000000
v 2.650000 0.010000 0.400000
v 2.650000 0.010000 0.000000
v -2.490000 0.010000 0.400000
v -2.490000 0.010000 0.000000
v -2.570000 0.120000 0.400000
v -2.570000 0.120000 0.000000
v -2.650000 0.010000 0.400000
v -2.650000 0.010000 0.000000
vn -0.8087 0.5882 -0.0000
vn 0.8087 0.5882 -0.0000
vn -0.0000 -1.0000 -0.0000
vn -0.0000 -0.0000 -1.0000
vn -0.0000 -0.0000 1.0000
vt 1.000000 0.000000
vt 1.000000 1.000000
vt 0.500000 0.875000
vt 0.500000 0.125000
vt 0.000000 0.999999
vt 0.000000 0.000000
vt 0.000000 0.000000
vt 0.000000 1.000000
vt 0.000000 0.000000
vt 0.000000 1.000000
vt 1.000000 0.000000
s 0
f 2/1/1 1/2/1 3/3/1 4/4/1
f 4/4/2 3/3/2 5/5/2 6/6/2
f 1/7/3 2/8/3 6/8/3 5/7/3
f 4/4/4 6/6/4 2/1/4
f 3/3/5 1/2/5 5/5/5
f 8/9/2 10/4/2 9/3/2 7/10/2
f 10/4/1 12/11/1 11/2/1 9/3/1
f 7/7/3 11/7/3 12/8/3 8/8/3
f 10/4/4 8/9/4 12/11/4
f 9/3/5 11/2/5 7/10/5
