# Blender 4.0.2
# www.blender.org
o Energy_Lifts.001
v 0.000000 0.170000 0.150000
v 0.000000 0.170000 -0.150000
v -0.216506 0.020000 0.150000
v -0.216506 0.020000 -0.150000
v 0.216506 0.020000 0.150000
v 0.216506 0.020000 -0.150000
vn -0.5695 0.8220 -0.0000
vn -0.0000 -1.0000 -0.0000
vn -0.0000 -0.0000 -1.0000
vn 0.5695 0.8220 -0.0000
vn -0.0000 -0.0000 1.0000
vt 1.000000 0.000000
vt 1.000000 1.000000
vt 0.000000 1.000000
vt 0.000000 0.000000
vt 1.000000 0.500000
vt 0.001169 1.000000
vt 0.000000 1.000000
vt -0.000000 0.000000
vt 1.000000 0.000000
vt 1.000000 1.000000
vt 0.750000 0.490000
vt 0.957846 0.130000
vt 0.542154 0.130000
s 0
f 1/1/1 2/2/1 4/3/1 3/4/1
f 3/1/2 4/2/2 6/3/2 5/4/2
f 4/4/3 2/5/3 6/6/3
f 5/7/4 6/8/4 2/9/4 1/10/4
f 1/11/5 3/12/5 5/13/5
