# Blender 4.0.2
# www.blender.org
mtllib note_bottom.mtl
o note
v 0.000000 0.028908 -0.000214
v 0.000000 -0.000036 0.000004
v 0.369306 0.028903 0.077133
v 0.372977 -0.000038 0.103069
v 0.369368 -0.000036 0.078643
v 0.258617 0.028908 -0.000214
v 0.362964 -0.000037 0.054957
v 0.341388 -0.000036 0.022343
v 0.301582 -0.000037 0.000082
v 0.258605 -0.000036 0.000004
v 0.280095 -0.000036 0.000043
v 0.372977 -0.000038 0.124843
v 0.372977 -0.000038 0.146617
v 0.369368 -0.000036 0.171043
v -0.369306 0.028903 0.077133
v -0.372977 -0.000038 0.103069
v -0.369368 -0.000036 0.078643
v -0.301882 0.028990 -0.000130
v -0.362964 -0.000037 0.054957
v -0.341388 -0.000036 0.022343
v -0.301582 -0.000037 0.000082
v -0.258605 -0.000036 0.000004
v -0.280095 -0.000036 0.000043
v -0.280250 0.028951 -0.000172
v -0.372885 0.028889 0.124843
v -0.372977 -0.000038 0.124843
v -0.369306 0.028903 0.172553
v -0.372977 -0.000038 0.146617
v -0.369368 -0.000036 0.171043
v 0.372885 0.028889 0.103149
v 0.362943 0.028950 0.053840
v 0.341399 0.028923 0.022203
v 0.301882 0.028990 -0.000130
v 0.280250 0.028951 -0.000172
v 0.372885 0.028889 0.124843
v 0.372885 0.028889 0.146537
v 0.369306 0.028903 0.172553
v -0.372885 0.028889 0.103149
v -0.362943 0.028950 0.053840
v -0.341399 0.028923 0.022203
v -0.258617 0.028908 -0.000214
v -0.372885 0.028889 0.146537
vn -0.0000 -0.0075 -1.0000
vn 0.0009 -0.0075 -1.0000
vn 0.9975 0.0012 -0.0706
vn 0.9975 0.0012 -0.0708
vn 0.9798 -0.0055 -0.2001
vn 0.9789 -0.0059 -0.2041
vn 0.2555 -0.0079 -0.9668
vn 0.6783 -0.0102 -0.7348
vn 0.6789 -0.0102 -0.7341
vn 0.2529 -0.0079 -0.9675
vn 0.0019 -0.0074 -1.0000
vn 0.9081 -0.0114 -0.4186
vn 0.9112 -0.0114 -0.4119
vn 1.0000 0.0032 -0.0000
vn 0.9975 0.0012 0.0706
vn 0.9900 -0.0009 0.1411
vn 0.9975 0.0012 0.0708
vn -0.0009 -0.0075 -1.0000
vn -0.9975 0.0012 -0.0706
vn -0.9789 -0.0059 -0.2041
vn -0.9798 -0.0055 -0.2001
vn -0.9975 0.0012 -0.0708
vn -0.2555 -0.0079 -0.9668
vn -0.2529 -0.0079 -0.9675
vn -0.6789 -0.0102 -0.7341
vn -0.6783 -0.0102 -0.7348
vn -0.0019 -0.0074 -1.0000
vn -0.9081 -0.0114 -0.4186
vn -0.9112 -0.0114 -0.4119
vn -1.0000 0.0032 -0.0000
vn -0.9975 0.0012 0.0706
vn -0.9975 0.0012 0.0708
vn -0.9900 -0.0009 0.1411
vt 0.500000 0.168970
vt 0.153307 0.168969
vt 0.153323 0.000010
vt 0.500000 0.000010
vt 0.000123 0.168863
vt 0.000000 0.000000
vt 0.004838 0.000010
vt 0.004921 0.168942
vt 0.095308 0.169452
vt 0.042333 0.169061
vt 0.042346 0.000010
vt 0.095709 0.000005
vt 0.124306 0.169219
vt 0.124515 0.000010
vt 0.013451 0.169217
vt 0.013423 0.000005
vt 0.846677 0.000010
vt 0.846693 0.168970
vt 0.999877 0.168863
vt 0.995079 0.168942
vt 0.995162 0.000010
vt 1.000000 0.000000
vt 0.904693 0.169452
vt 0.904291 0.000005
vt 0.957654 0.000010
vt 0.957667 0.169062
vt 0.875694 0.169219
vt 0.875485 0.000011
vt 0.986549 0.169217
vt 0.986577 0.000005
s 1
usemtl Material.002
f 1/1/1 6/2/2 10/3/2 2/4/1
f 30/5/3 4/6/4 5/7/5 3/8/6
f 33/9/7 32/10/8 8/11/9 9/12/10
f 34/13/11 33/9/7 9/12/10 11/14/11
f 31/15/12 7/16/13 8/11/9 32/10/8
f 31/15/12 3/8/6 5/7/5 7/16/13
f 6/2/2 34/13/11 11/14/11 10/3/2
f 4/6/4 30/5/3 35/5/14 12/6/14
f 36/5/15 37/8/16 14/7/16 13/6/17
f 13/6/17 12/6/14 35/5/14 36/5/15
f 1/1/1 2/4/1 22/17/18 41/18/18
f 38/19/19 15/20/20 17/21/21 16/22/22
f 18/23/23 21/24/24 20/25/25 40/26/26
f 24/27/27 23/28/27 21/24/24 18/23/23
f 39/29/28 40/26/26 20/25/25 19/30/29
f 39/29/28 19/30/29 17/21/21 15/20/20
f 41/18/18 22/17/18 23/28/27 24/27/27
f 16/22/22 26/22/30 25/19/30 38/19/19
f 42/19/31 28/22/32 29/21/33 27/20/33
f 28/22/32 42/19/31 25/19/30 26/22/30
