# Blender 4.1.1
# www.blender.org
o CymbalWhite
v -0.089528 0.110068 -0.004584
v 0.000000 0.110068 -0.008592
v -0.175615 0.110068 0.007286
v -0.254953 0.110068 0.026562
v -0.324493 0.110068 0.052503
v -0.381564 0.110068 0.084112
v -0.423971 0.110068 0.120175
v -0.450085 0.110068 0.159306
v -0.458903 0.110068 0.200000
v -0.450085 0.110068 0.240694
v -0.423971 0.110068 0.279825
v -0.381564 0.110068 0.315888
v -0.324493 0.110068 0.347497
v -0.254953 0.110068 0.373438
v -0.175615 0.110068 0.392714
v -0.089528 0.110068 0.404584
v 0.000000 0.110068 0.408592
v 0.089528 0.110068 0.404584
v 0.175615 0.110068 0.392714
v 0.254953 0.110068 0.373438
v 0.324493 0.110068 0.347497
v 0.381564 0.110068 0.315888
v 0.423971 0.110068 0.279825
v 0.450085 0.110068 0.240694
v 0.458903 0.110068 0.200000
v 0.450085 0.110068 0.159306
v 0.423971 0.110068 0.120175
v 0.381564 0.110068 0.084112
v 0.324493 0.110068 0.052503
v 0.254953 0.110068 0.026562
v 0.175615 0.110068 0.007286
v 0.089528 0.110068 -0.004584
v -0.063761 0.129800 0.054296
v 0.000000 0.129800 0.051442
v -0.125072 0.129800 0.062750
v -0.181576 0.129800 0.076478
v -0.231103 0.129800 0.094953
v -0.271748 0.129800 0.117465
v -0.301950 0.129800 0.143149
v -0.320549 0.129800 0.171018
v -0.326829 0.129800 0.200000
v -0.320549 0.129800 0.228982
v -0.301950 0.129800 0.256851
v -0.271748 0.129800 0.282535
v -0.231103 0.129800 0.305047
v -0.181576 0.129800 0.323522
v -0.125072 0.129800 0.337250
v -0.063761 0.129800 0.345704
v 0.000000 0.129800 0.348559
v 0.063761 0.129800 0.345704
v 0.125072 0.129800 0.337250
v 0.181576 0.129800 0.323522
v 0.231103 0.129800 0.305047
v 0.271748 0.129800 0.282535
v 0.301950 0.129800 0.256851
v 0.320549 0.129800 0.228982
v 0.326829 0.129800 0.200000
v 0.320549 0.129800 0.171018
v 0.301950 0.129800 0.143149
v 0.271748 0.129800 0.117465
v 0.231103 0.129800 0.094953
v 0.181576 0.129800 0.076478
v 0.125072 0.129800 0.062750
v 0.063761 0.129800 0.054296
v -0.016315 0.208925 0.162717
v -0.000000 0.208925 0.161987
v -0.032003 0.208925 0.164881
v -0.046462 0.208925 0.168393
v -0.059135 0.208925 0.173121
v -0.069535 0.208925 0.178881
v -0.077263 0.208925 0.185453
v -0.082022 0.208925 0.192584
v -0.083629 0.208925 0.200000
v -0.082022 0.208925 0.207416
v -0.077263 0.208925 0.214547
v -0.069535 0.208925 0.221119
v -0.059135 0.208925 0.226879
v -0.046462 0.208925 0.231607
v -0.032003 0.208925 0.235120
v -0.016315 0.208925 0.237283
v -0.000000 0.208925 0.238013
v 0.016315 0.208925 0.237283
v 0.032003 0.208925 0.235120
v 0.046462 0.208925 0.231607
v 0.059134 0.208925 0.226879
v 0.069535 0.208925 0.221119
v 0.077263 0.208925 0.214547
v 0.082022 0.208925 0.207416
v 0.083629 0.208925 0.200000
v 0.082022 0.208925 0.192584
v 0.077263 0.208925 0.185453
v 0.069535 0.208925 0.178881
v 0.059134 0.208925 0.173121
v 0.046462 0.208925 0.168393
v 0.032003 0.208925 0.164881
v 0.016315 0.208925 0.162717
v -0.000000 0.247960 0.200000
v -0.044980 0.110068 -0.007587
v -0.133212 0.110068 0.000390
v -0.216325 0.110068 0.016039
v -0.291124 0.110068 0.038757
v -0.354735 0.110068 0.067671
v -0.404715 0.110068 0.101671
v -0.439141 0.110068 0.139449
v -0.456691 0.110068 0.179554
v -0.456691 0.110068 0.220446
v -0.439141 0.110068 0.260551
v -0.404715 0.110068 0.298329
v -0.354735 0.110068 0.332329
v -0.291124 0.110068 0.361243
v -0.216325 0.110068 0.383961
v -0.133212 0.110068 0.399610
v -0.044980 0.110068 0.407587
v 0.044980 0.110068 0.407587
v 0.133212 0.110068 0.399610
v 0.216325 0.110068 0.383961
v 0.291124 0.110068 0.361243
v 0.354735 0.110068 0.332329
v 0.404715 0.110068 0.298329
v 0.439141 0.110068 0.260551
v 0.456691 0.110068 0.220446
v 0.456691 0.110068 0.179554
v 0.439141 0.110068 0.139449
v 0.404715 0.110068 0.101671
v 0.354735 0.110068 0.067671
v 0.291124 0.110068 0.038757
v 0.216325 0.110068 0.016039
v 0.133212 0.110068 0.000390
v 0.044980 0.110068 -0.007587
v -0.032035 0.129800 0.052157
v -0.094873 0.129800 0.057839
v -0.154065 0.129800 0.068984
v -0.207337 0.129800 0.085163
v -0.252641 0.129800 0.105756
v -0.288236 0.129800 0.129970
v -0.312754 0.129800 0.156876
v -0.325254 0.129800 0.185439
v -0.325254 0.129800 0.214561
v -0.312754 0.129800 0.243124
v -0.288236 0.129800 0.270030
v -0.252641 0.129800 0.294244
v -0.207337 0.129800 0.314837
v -0.154065 0.129800 0.331016
v -0.094873 0.129800 0.342161
v -0.032035 0.129800 0.347843
v 0.032035 0.129800 0.347843
v 0.094873 0.129800 0.342161
v 0.154065 0.129800 0.331016
v 0.207337 0.129800 0.314837
v 0.252641 0.129800 0.294244
v 0.288236 0.129800 0.270030
v 0.312754 0.129800 0.243124
v 0.325254 0.129800 0.214561
v 0.325254 0.129800 0.185439
v 0.312754 0.129800 0.156876
v 0.288236 0.129800 0.129970
v 0.252641 0.129800 0.105756
v 0.207337 0.129800 0.085163
v 0.154065 0.129800 0.068984
v 0.094873 0.129800 0.057839
v 0.032035 0.129800 0.052157
v -0.076644 0.119934 0.024856
v -0.000000 0.119934 0.021425
v -0.150343 0.119934 0.035018
v -0.218265 0.119934 0.051520
v -0.277798 0.119934 0.073728
v -0.326656 0.119934 0.100789
v -0.362961 0.119934 0.131662
v -0.385317 0.119934 0.165162
v -0.392866 0.119934 0.200000
v -0.385317 0.119934 0.234838
v -0.362961 0.119934 0.268338
v -0.326656 0.119934 0.299211
v -0.277798 0.119934 0.326272
v -0.218265 0.119934 0.348480
v -0.150343 0.119934 0.364982
v -0.076644 0.119934 0.375144
v 0.000000 0.119934 0.378575
v 0.076644 0.119934 0.375144
v 0.150343 0.119934 0.364982
v 0.218265 0.119934 0.348480
v 0.277798 0.119934 0.326272
v 0.326656 0.119934 0.299211
v 0.362961 0.119934 0.268338
v 0.385317 0.119934 0.234838
v 0.392866 0.119934 0.200000
v 0.385317 0.119934 0.165162
v 0.362961 0.119934 0.131662
v 0.326656 0.119934 0.100789
v 0.277798 0.119934 0.073728
v 0.218265 0.119934 0.051520
v 0.150343 0.119934 0.035018
v 0.076644 0.119934 0.024856
v -0.008197 0.208925 0.162170
v -0.024276 0.208925 0.163624
v -0.039422 0.208925 0.166476
v -0.053053 0.208925 0.170616
v -0.064646 0.208925 0.175885
v -0.073754 0.208925 0.182081
v -0.080027 0.208925 0.188965
v -0.083226 0.208925 0.196274
v -0.083226 0.208925 0.203726
v -0.080027 0.208925 0.211035
v -0.073754 0.208925 0.217919
v -0.064646 0.208925 0.224115
v -0.053053 0.208925 0.229384
v -0.039422 0.208925 0.233524
v -0.024276 0.208925 0.236376
v -0.008197 0.208925 0.237830
v 0.008197 0.208925 0.237830
v 0.024276 0.208925 0.236376
v 0.039422 0.208925 0.233524
v 0.053053 0.208925 0.229384
v 0.064646 0.208925 0.224115
v 0.073754 0.208925 0.217919
v 0.080027 0.208925 0.211035
v 0.083226 0.208925 0.203726
v 0.083226 0.208925 0.196274
v 0.080027 0.208925 0.188965
v 0.073754 0.208925 0.182081
v 0.064646 0.208925 0.175885
v 0.053053 0.208925 0.170616
v 0.039422 0.208925 0.166476
v 0.024276 0.208925 0.163624
v 0.008197 0.208925 0.162170
v -0.009881 0.226244 0.177420
v -0.000000 0.226244 0.176977
v 0.042114 0.226244 0.187209
v 0.035815 0.226245 0.183721
v -0.019383 0.226244 0.221270
v -0.009881 0.226244 0.222580
v -0.019383 0.226244 0.178730
v 0.028139 0.226245 0.180857
v -0.000000 0.226244 0.223023
v -0.028139 0.226244 0.180857
v 0.019383 0.226244 0.178730
v 0.009881 0.226245 0.222580
v -0.035815 0.226244 0.183721
v 0.009881 0.226244 0.177420
v 0.019383 0.226245 0.221270
v -0.042114 0.226244 0.187209
v 0.028139 0.226245 0.219143
v -0.046794 0.226244 0.191190
v 0.035815 0.226245 0.216279
v -0.049677 0.226244 0.195509
v 0.042114 0.226245 0.212791
v -0.050650 0.226244 0.200000
v 0.046794 0.226245 0.208810
v -0.049677 0.226244 0.204491
v 0.049676 0.226245 0.204491
v -0.046794 0.226244 0.208810
v 0.050650 0.226245 0.200000
v -0.042114 0.226244 0.212791
v 0.049676 0.226245 0.195509
v -0.035815 0.226244 0.216279
v 0.046794 0.226245 0.191190
v -0.028140 0.226244 0.219143
v -0.038507 0.119934 0.022285
v -0.114042 0.119934 0.029115
v -0.185195 0.119934 0.042511
v -0.249230 0.119934 0.061960
v -0.303688 0.119934 0.086713
v -0.346475 0.119934 0.115820
v -0.375948 0.119934 0.148163
v -0.390972 0.119934 0.182497
v -0.390973 0.119934 0.217503
v -0.375948 0.119934 0.251837
v -0.346475 0.119934 0.284180
v -0.303688 0.119934 0.313287
v -0.249230 0.119934 0.338040
v -0.185195 0.119934 0.357489
v -0.114042 0.119934 0.370885
v -0.038507 0.119934 0.377715
v 0.038507 0.119934 0.377715
v 0.114042 0.119934 0.370885
v 0.185195 0.119934 0.357489
v 0.249230 0.119934 0.338040
v 0.303688 0.119934 0.313287
v 0.346475 0.119934 0.284180
v 0.375948 0.119934 0.251837
v 0.390972 0.119934 0.217503
v 0.390973 0.119934 0.182497
v 0.375948 0.119934 0.148163
v 0.346475 0.119934 0.115820
v 0.303688 0.119934 0.086713
v 0.249230 0.119934 0.061960
v 0.185195 0.119934 0.042511
v 0.114042 0.119934 0.029115
v 0.038507 0.119934 0.022285
v -0.005689 0.222477 0.173743
v 0.044870 0.222477 0.183262
v -0.016850 0.222477 0.225248
v -0.016850 0.222477 0.174752
v 0.036824 0.222477 0.179605
v -0.005689 0.222477 0.226257
v -0.027363 0.222477 0.176731
v 0.027362 0.222477 0.176731
v 0.005689 0.222477 0.226257
v -0.036824 0.222477 0.179605
v 0.016850 0.222477 0.174752
v 0.016850 0.222477 0.225248
v -0.044870 0.222477 0.183262
v 0.005689 0.222477 0.173743
v 0.027362 0.222477 0.223269
v -0.051192 0.222477 0.187562
v 0.036824 0.222477 0.220395
v -0.055546 0.222477 0.192341
v 0.044870 0.222477 0.216738
v -0.057766 0.222477 0.197414
v 0.051192 0.222477 0.212437
v -0.057766 0.222477 0.202586
v 0.055546 0.222477 0.207659
v -0.055546 0.222477 0.207659
v 0.057766 0.222477 0.202586
v -0.051192 0.222477 0.212437
v 0.057766 0.222477 0.197414
v -0.044870 0.222477 0.216738
v 0.055546 0.222477 0.192341
v -0.036824 0.222477 0.220395
v 0.051192 0.222477 0.187562
v -0.027363 0.222477 0.223269
vn -0.0277 0.9514 -0.3067
vn -0.0000 0.9500 -0.3123
vn -0.0546 0.9554 -0.2901
vn -0.0798 0.9615 -0.2628
vn -0.1024 0.9689 -0.2252
vn -0.1213 0.9765 -0.1783
vn -0.1357 0.9830 -0.1236
vn -0.1447 0.9874 -0.0633
vn -0.1478 0.9890 -0.0000
vn -0.1447 0.9874 0.0633
vn -0.1357 0.9830 0.1236
vn -0.1213 0.9765 0.1783
vn -0.1024 0.9689 0.2252
vn -0.0798 0.9615 0.2628
vn -0.0546 0.9554 0.2901
vn -0.0277 0.9514 0.3067
vn -0.0000 0.9500 0.3123
vn 0.0277 0.9514 0.3067
vn 0.0546 0.9554 0.2901
vn 0.0798 0.9615 0.2628
vn 0.1024 0.9689 0.2252
vn 0.1213 0.9765 0.1783
vn 0.1357 0.9830 0.1236
vn 0.1447 0.9874 0.0633
vn 0.1478 0.9890 -0.0000
vn 0.1447 0.9874 -0.0633
vn 0.1357 0.9830 -0.1236
vn 0.1213 0.9765 -0.1783
vn 0.1024 0.9689 -0.2252
vn 0.0798 0.9615 -0.2628
vn 0.0546 0.9554 -0.2901
vn 0.0277 0.9514 -0.3067
vn -0.0678 0.6585 -0.7496
vn -0.0000 0.6527 -0.7576
vn -0.1364 0.6756 -0.7245
vn -0.2064 0.7041 -0.6795
vn -0.2771 0.7427 -0.6096
vn -0.3459 0.7885 -0.5085
vn -0.4069 0.8348 -0.3708
vn -0.4505 0.8707 -0.1972
vn -0.4666 0.8845 -0.0000
vn -0.4505 0.8707 0.1972
vn -0.4069 0.8348 0.3708
vn -0.3459 0.7885 0.5085
vn -0.2771 0.7427 0.6096
vn -0.2064 0.7041 0.6795
vn -0.1364 0.6757 0.7245
vn -0.0678 0.6585 0.7496
vn -0.0000 0.6527 0.7576
vn 0.0678 0.6585 0.7496
vn 0.1364 0.6756 0.7245
vn 0.2064 0.7041 0.6795
vn 0.2771 0.7427 0.6096
vn 0.3459 0.7885 0.5085
vn 0.4069 0.8348 0.3708
vn 0.4505 0.8707 0.1972
vn 0.4666 0.8845 -0.0000
vn 0.4505 0.8707 -0.1972
vn 0.4069 0.8348 -0.3708
vn 0.3459 0.7885 -0.5085
vn 0.2771 0.7427 -0.6096
vn 0.2064 0.7041 -0.6795
vn 0.1364 0.6756 -0.7245
vn 0.0678 0.6585 -0.7496
vn -0.0000 1.0000 -0.0000
vn -0.0139 0.9504 -0.3109
vn -0.0413 0.9531 -0.2998
vn -0.0675 0.9583 -0.2778
vn -0.0915 0.9651 -0.2452
vn -0.1123 0.9727 -0.2028
vn -0.1291 0.9799 -0.1518
vn -0.1409 0.9855 -0.0940
vn -0.1470 0.9886 -0.0319
vn -0.1470 0.9886 0.0319
vn -0.1409 0.9855 0.0940
vn -0.1291 0.9799 0.1518
vn -0.1123 0.9727 0.2028
vn -0.0915 0.9651 0.2452
vn -0.0675 0.9583 0.2778
vn -0.0413 0.9531 0.2998
vn -0.0139 0.9504 0.3109
vn 0.0139 0.9504 0.3109
vn 0.0413 0.9531 0.2998
vn 0.0675 0.9583 0.2778
vn 0.0915 0.9651 0.2452
vn 0.1123 0.9727 0.2028
vn 0.1291 0.9799 0.1518
vn 0.1409 0.9855 0.0940
vn 0.1470 0.9886 0.0319
vn 0.1470 0.9886 -0.0319
vn 0.1409 0.9855 -0.0940
vn 0.1291 0.9799 -0.1518
vn 0.1123 0.9727 -0.2028
vn 0.0915 0.9651 -0.2452
vn 0.0675 0.9583 -0.2778
vn 0.0413 0.9531 -0.2998
vn 0.0139 0.9504 -0.3109
vn -0.0338 0.6548 -0.7550
vn -0.1019 0.6663 -0.7387
vn -0.1711 0.6891 -0.7041
vn -0.2415 0.7229 -0.6474
vn -0.3117 0.7656 -0.5627
vn -0.3775 0.8127 -0.4439
vn -0.4310 0.8553 -0.2876
vn -0.4619 0.8813 -0.1001
vn -0.4619 0.8813 0.1001
vn -0.4310 0.8553 0.2876
vn -0.3775 0.8127 0.4439
vn -0.3117 0.7656 0.5627
vn -0.2415 0.7229 0.6474
vn -0.1711 0.6891 0.7041
vn -0.1019 0.6663 0.7387
vn -0.0338 0.6548 0.7550
vn 0.0338 0.6548 0.7550
vn 0.1019 0.6663 0.7387
vn 0.1711 0.6891 0.7041
vn 0.2415 0.7229 0.6474
vn 0.3117 0.7656 0.5627
vn 0.3775 0.8127 0.4439
vn 0.4310 0.8553 0.2876
vn 0.4619 0.8813 0.1001
vn 0.4619 0.8813 -0.1001
vn 0.4310 0.8553 -0.2876
vn 0.3775 0.8127 -0.4439
vn 0.3117 0.7656 -0.5627
vn 0.2415 0.7229 -0.6474
vn 0.1711 0.6891 -0.7041
vn 0.1019 0.6663 -0.7387
vn 0.0338 0.6548 -0.7550
vn -0.0632 0.7128 -0.6985
vn -0.0000 0.7074 -0.7068
vn 0.3135 0.8302 -0.4609
vn 0.2537 0.7900 -0.5582
vn -0.1267 0.7289 0.6728
vn -0.0632 0.7128 0.6985
vn -0.1267 0.7289 -0.6728
vn 0.1905 0.7551 -0.6273
vn -0.0000 0.7074 0.7068
vn -0.1905 0.7551 -0.6273
vn 0.1267 0.7289 -0.6728
vn 0.0632 0.7128 0.6985
vn -0.2537 0.7900 -0.5582
vn 0.0632 0.7128 -0.6985
vn 0.1267 0.7289 0.6728
vn -0.3135 0.8302 -0.4609
vn 0.1905 0.7551 0.6273
vn -0.3649 0.8696 -0.3325
vn 0.2537 0.7900 0.5582
vn -0.4006 0.8993 -0.1753
vn 0.3135 0.8302 0.4609
vn -0.4135 0.9105 -0.0000
vn 0.3649 0.8696 0.3325
vn -0.4006 0.8993 0.1753
vn 0.4006 0.8993 0.1753
vn -0.3649 0.8696 0.3325
vn 0.4135 0.9105 -0.0000
vn -0.3135 0.8302 0.4609
vn 0.4006 0.8993 -0.1753
vn -0.2537 0.7900 0.5582
vn 0.3649 0.8696 -0.3325
vn -0.1905 0.7551 0.6273
vn -0.0334 0.6657 -0.7455
vn 0.3063 0.7748 -0.5531
vn -0.1005 0.6771 0.7290
vn -0.1005 0.6770 -0.7290
vn 0.2378 0.7329 -0.6375
vn -0.0334 0.6657 0.7455
vn -0.1687 0.6996 -0.6943
vn 0.1687 0.6996 -0.6943
vn 0.0334 0.6657 0.7455
vn -0.2378 0.7329 -0.6375
vn 0.1005 0.6770 -0.7290
vn 0.1005 0.6771 0.7290
vn -0.3063 0.7748 -0.5531
vn 0.0334 0.6657 -0.7455
vn 0.1687 0.6996 0.6943
vn -0.3702 0.8207 -0.4353
vn 0.2378 0.7329 0.6375
vn -0.4218 0.8619 -0.2815
vn 0.3063 0.7748 0.5531
vn -0.4515 0.8869 -0.0978
vn 0.3702 0.8207 0.4353
vn -0.4515 0.8869 0.0978
vn 0.4218 0.8619 0.2815
vn -0.4218 0.8619 0.2815
vn 0.4515 0.8869 0.0978
vn -0.3702 0.8207 0.4353
vn 0.4515 0.8869 -0.0978
vn -0.3063 0.7748 0.5531
vn 0.4218 0.8619 -0.2815
vn -0.2378 0.7329 0.6375
vn 0.3702 0.8207 -0.4353
vn -0.1687 0.6996 0.6943
vt 0.000000 0.000000
s 1
f 33/1/1 130/1/66 258/1/66 162/1/1
f 130/1/66 34/1/2 163/1/2 258/1/66
f 258/1/66 163/1/2 2/1/2 98/1/66
f 162/1/1 258/1/66 98/1/66 1/1/1
f 35/1/3 131/1/67 259/1/67 164/1/3
f 131/1/67 33/1/1 162/1/1 259/1/67
f 259/1/67 162/1/1 1/1/1 99/1/67
f 164/1/3 259/1/67 99/1/67 3/1/3
f 36/1/4 132/1/68 260/1/68 165/1/4
f 132/1/68 35/1/3 164/1/3 260/1/68
f 260/1/68 164/1/3 3/1/3 100/1/68
f 165/1/4 260/1/68 100/1/68 4/1/4
f 37/1/5 133/1/69 261/1/69 166/1/5
f 133/1/69 36/1/4 165/1/4 261/1/69
f 261/1/69 165/1/4 4/1/4 101/1/69
f 166/1/5 261/1/69 101/1/69 5/1/5
f 38/1/6 134/1/70 262/1/70 167/1/6
f 134/1/70 37/1/5 166/1/5 262/1/70
f 262/1/70 166/1/5 5/1/5 102/1/70
f 167/1/6 262/1/70 102/1/70 6/1/6
f 39/1/7 135/1/71 263/1/71 168/1/7
f 135/1/71 38/1/6 167/1/6 263/1/71
f 263/1/71 167/1/6 6/1/6 103/1/71
f 168/1/7 263/1/71 103/1/71 7/1/7
f 40/1/8 136/1/72 264/1/72 169/1/8
f 136/1/72 39/1/7 168/1/7 264/1/72
f 264/1/72 168/1/7 7/1/7 104/1/72
f 169/1/8 264/1/72 104/1/72 8/1/8
f 41/1/9 137/1/73 265/1/73 170/1/9
f 137/1/73 40/1/8 169/1/8 265/1/73
f 265/1/73 169/1/8 8/1/8 105/1/73
f 170/1/9 265/1/73 105/1/73 9/1/9
f 42/1/10 138/1/74 266/1/74 171/1/10
f 138/1/74 41/1/9 170/1/9 266/1/74
f 266/1/74 170/1/9 9/1/9 106/1/74
f 171/1/10 266/1/74 106/1/74 10/1/10
f 43/1/11 139/1/75 267/1/75 172/1/11
f 139/1/75 42/1/10 171/1/10 267/1/75
f 267/1/75 171/1/10 10/1/10 107/1/75
f 172/1/11 267/1/75 107/1/75 11/1/11
f 44/1/12 140/1/76 268/1/76 173/1/12
f 140/1/76 43/1/11 172/1/11 268/1/76
f 268/1/76 172/1/11 11/1/11 108/1/76
f 173/1/12 268/1/76 108/1/76 12/1/12
f 45/1/13 141/1/77 269/1/77 174/1/13
f 141/1/77 44/1/12 173/1/12 269/1/77
f 269/1/77 173/1/12 12/1/12 109/1/77
f 174/1/13 269/1/77 109/1/77 13/1/13
f 46/1/14 142/1/78 270/1/78 175/1/14
f 142/1/78 45/1/13 174/1/13 270/1/78
f 270/1/78 174/1/13 13/1/13 110/1/78
f 175/1/14 270/1/78 110/1/78 14/1/14
f 47/1/15 143/1/79 271/1/79 176/1/15
f 143/1/79 46/1/14 175/1/14 271/1/79
f 271/1/79 175/1/14 14/1/14 111/1/79
f 176/1/15 271/1/79 111/1/79 15/1/15
f 48/1/16 144/1/80 272/1/80 177/1/16
f 144/1/80 47/1/15 176/1/15 272/1/80
f 272/1/80 176/1/15 15/1/15 112/1/80
f 177/1/16 272/1/80 112/1/80 16/1/16
f 49/1/17 145/1/81 273/1/81 178/1/17
f 145/1/81 48/1/16 177/1/16 273/1/81
f 273/1/81 177/1/16 16/1/16 113/1/81
f 178/1/17 273/1/81 113/1/81 17/1/17
f 50/1/18 146/1/82 274/1/82 179/1/18
f 146/1/82 49/1/17 178/1/17 274/1/82
f 274/1/82 178/1/17 17/1/17 114/1/82
f 179/1/18 274/1/82 114/1/82 18/1/18
f 51/1/19 147/1/83 275/1/83 180/1/19
f 147/1/83 50/1/18 179/1/18 275/1/83
f 275/1/83 179/1/18 18/1/18 115/1/83
f 180/1/19 275/1/83 115/1/83 19/1/19
f 52/1/20 148/1/84 276/1/84 181/1/20
f 148/1/84 51/1/19 180/1/19 276/1/84
f 276/1/84 180/1/19 19/1/19 116/1/84
f 181/1/20 276/1/84 116/1/84 20/1/20
f 53/1/21 149/1/85 277/1/85 182/1/21
f 149/1/85 52/1/20 181/1/20 277/1/85
f 277/1/85 181/1/20 20/1/20 117/1/85
f 182/1/21 277/1/85 117/1/85 21/1/21
f 54/1/22 150/1/86 278/1/86 183/1/22
f 150/1/86 53/1/21 182/1/21 278/1/86
f 278/1/86 182/1/21 21/1/21 118/1/86
f 183/1/22 278/1/86 118/1/86 22/1/22
f 55/1/23 151/1/87 279/1/87 184/1/23
f 151/1/87 54/1/22 183/1/22 279/1/87
f 279/1/87 183/1/22 22/1/22 119/1/87
f 184/1/23 279/1/87 119/1/87 23/1/23
f 56/1/24 152/1/88 280/1/88 185/1/24
f 152/1/88 55/1/23 184/1/23 280/1/88
f 280/1/88 184/1/23 23/1/23 120/1/88
f 185/1/24 280/1/88 120/1/88 24/1/24
f 57/1/25 153/1/89 281/1/89 186/1/25
f 153/1/89 56/1/24 185/1/24 281/1/89
f 281/1/89 185/1/24 24/1/24 121/1/89
f 186/1/25 281/1/89 121/1/89 25/1/25
f 58/1/26 154/1/90 282/1/90 187/1/26
f 154/1/90 57/1/25 186/1/25 282/1/90
f 282/1/90 186/1/25 25/1/25 122/1/90
f 187/1/26 282/1/90 122/1/90 26/1/26
f 59/1/27 155/1/91 283/1/91 188/1/27
f 155/1/91 58/1/26 187/1/26 283/1/91
f 283/1/91 187/1/26 26/1/26 123/1/91
f 188/1/27 283/1/91 123/1/91 27/1/27
f 60/1/28 156/1/92 284/1/92 189/1/28
f 156/1/92 59/1/27 188/1/27 284/1/92
f 284/1/92 188/1/27 27/1/27 124/1/92
f 189/1/28 284/1/92 124/1/92 28/1/28
f 61/1/29 157/1/93 285/1/93 190/1/29
f 157/1/93 60/1/28 189/1/28 285/1/93
f 285/1/93 189/1/28 28/1/28 125/1/93
f 190/1/29 285/1/93 125/1/93 29/1/29
f 62/1/30 158/1/94 286/1/94 191/1/30
f 158/1/94 61/1/29 190/1/29 286/1/94
f 286/1/94 190/1/29 29/1/29 126/1/94
f 191/1/30 286/1/94 126/1/94 30/1/30
f 63/1/31 159/1/95 287/1/95 192/1/31
f 159/1/95 62/1/30 191/1/30 287/1/95
f 287/1/95 191/1/30 30/1/30 127/1/95
f 192/1/31 287/1/95 127/1/95 31/1/31
f 64/1/32 160/1/96 288/1/96 193/1/32
f 160/1/96 63/1/31 192/1/31 288/1/96
f 288/1/96 192/1/31 31/1/31 128/1/96
f 193/1/32 288/1/96 128/1/96 32/1/32
f 34/1/2 161/1/97 289/1/97 163/1/2
f 161/1/97 64/1/32 193/1/32 289/1/97
f 289/1/97 193/1/32 32/1/32 129/1/97
f 163/1/2 289/1/97 129/1/97 2/1/2
f 66/1/34 194/1/98 290/1/162 227/1/131
f 65/1/33 226/1/130 290/1/162 194/1/98
f 97/1/65 227/1/131 290/1/162 226/1/130
f 92/1/60 221/1/125 291/1/163 228/1/132
f 93/1/61 229/1/133 291/1/163 221/1/125
f 97/1/65 228/1/132 291/1/163 229/1/133
f 79/1/47 208/1/112 292/1/164 230/1/134
f 80/1/48 231/1/135 292/1/164 208/1/112
f 97/1/65 230/1/134 292/1/164 231/1/135
f 65/1/33 195/1/99 293/1/165 226/1/130
f 67/1/35 232/1/136 293/1/165 195/1/99
f 97/1/65 226/1/130 293/1/165 232/1/136
f 93/1/61 222/1/126 294/1/166 229/1/133
f 94/1/62 233/1/137 294/1/166 222/1/126
f 97/1/65 229/1/133 294/1/166 233/1/137
f 80/1/48 209/1/113 295/1/167 231/1/135
f 81/1/49 234/1/138 295/1/167 209/1/113
f 97/1/65 231/1/135 295/1/167 234/1/138
f 67/1/35 196/1/100 296/1/168 232/1/136
f 68/1/36 235/1/139 296/1/168 196/1/100
f 97/1/65 232/1/136 296/1/168 235/1/139
f 94/1/62 223/1/127 297/1/169 233/1/137
f 95/1/63 236/1/140 297/1/169 223/1/127
f 97/1/65 233/1/137 297/1/169 236/1/140
f 81/1/49 210/1/114 298/1/170 234/1/138
f 82/1/50 237/1/141 298/1/170 210/1/114
f 97/1/65 234/1/138 298/1/170 237/1/141
f 68/1/36 197/1/101 299/1/171 235/1/139
f 69/1/37 238/1/142 299/1/171 197/1/101
f 97/1/65 235/1/139 299/1/171 238/1/142
f 95/1/63 224/1/128 300/1/172 236/1/140
f 96/1/64 239/1/143 300/1/172 224/1/128
f 97/1/65 236/1/140 300/1/172 239/1/143
f 82/1/50 211/1/115 301/1/173 237/1/141
f 83/1/51 240/1/144 301/1/173 211/1/115
f 97/1/65 237/1/141 301/1/173 240/1/144
f 69/1/37 198/1/102 302/1/174 238/1/142
f 70/1/38 241/1/145 302/1/174 198/1/102
f 97/1/65 238/1/142 302/1/174 241/1/145
f 96/1/64 225/1/129 303/1/175 239/1/143
f 66/1/34 227/1/131 303/1/175 225/1/129
f 97/1/65 239/1/143 303/1/175 227/1/131
f 83/1/51 212/1/116 304/1/176 240/1/144
f 84/1/52 242/1/146 304/1/176 212/1/116
f 97/1/65 240/1/144 304/1/176 242/1/146
f 70/1/38 199/1/103 305/1/177 241/1/145
f 71/1/39 243/1/147 305/1/177 199/1/103
f 97/1/65 241/1/145 305/1/177 243/1/147
f 84/1/52 213/1/117 306/1/178 242/1/146
f 85/1/53 244/1/148 306/1/178 213/1/117
f 97/1/65 242/1/146 306/1/178 244/1/148
f 71/1/39 200/1/104 307/1/179 243/1/147
f 72/1/40 245/1/149 307/1/179 200/1/104
f 97/1/65 243/1/147 307/1/179 245/1/149
f 85/1/53 214/1/118 308/1/180 244/1/148
f 86/1/54 246/1/150 308/1/180 214/1/118
f 97/1/65 244/1/148 308/1/180 246/1/150
f 72/1/40 201/1/105 309/1/181 245/1/149
f 73/1/41 247/1/151 309/1/181 201/1/105
f 97/1/65 245/1/149 309/1/181 247/1/151
f 86/1/54 215/1/119 310/1/182 246/1/150
f 87/1/55 248/1/152 310/1/182 215/1/119
f 97/1/65 246/1/150 310/1/182 248/1/152
f 73/1/41 202/1/106 311/1/183 247/1/151
f 74/1/42 249/1/153 311/1/183 202/1/106
f 97/1/65 247/1/151 311/1/183 249/1/153
f 87/1/55 216/1/120 312/1/184 248/1/152
f 88/1/56 250/1/154 312/1/184 216/1/120
f 97/1/65 248/1/152 312/1/184 250/1/154
f 74/1/42 203/1/107 313/1/185 249/1/153
f 75/1/43 251/1/155 313/1/185 203/1/107
f 97/1/65 249/1/153 313/1/185 251/1/155
f 88/1/56 217/1/121 314/1/186 250/1/154
f 89/1/57 252/1/156 314/1/186 217/1/121
f 97/1/65 250/1/154 314/1/186 252/1/156
f 75/1/43 204/1/108 315/1/187 251/1/155
f 76/1/44 253/1/157 315/1/187 204/1/108
f 97/1/65 251/1/155 315/1/187 253/1/157
f 89/1/57 218/1/122 316/1/188 252/1/156
f 90/1/58 254/1/158 316/1/188 218/1/122
f 97/1/65 252/1/156 316/1/188 254/1/158
f 76/1/44 205/1/109 317/1/189 253/1/157
f 77/1/45 255/1/159 317/1/189 205/1/109
f 97/1/65 253/1/157 317/1/189 255/1/159
f 90/1/58 219/1/123 318/1/190 254/1/158
f 91/1/59 256/1/160 318/1/190 219/1/123
f 97/1/65 254/1/158 318/1/190 256/1/160
f 77/1/45 206/1/110 319/1/191 255/1/159
f 78/1/46 257/1/161 319/1/191 206/1/110
f 97/1/65 255/1/159 319/1/191 257/1/161
f 91/1/59 220/1/124 320/1/192 256/1/160
f 92/1/60 228/1/132 320/1/192 220/1/124
f 97/1/65 256/1/160 320/1/192 228/1/132
f 78/1/46 207/1/111 321/1/193 257/1/161
f 79/1/47 230/1/134 321/1/193 207/1/111
f 97/1/65 257/1/161 321/1/193 230/1/134
