# Blender 4.3.0
# www.blender.org
o Cymbal_White
v -0.067740 0.205310 0.129724
v 0.245524 0.205310 0.177238
v -0.067740 0.205310 0.470276
v -0.132876 0.205310 0.139604
v 0.192907 0.205310 0.155647
v 0.000000 0.205310 0.473611
v -0.192907 0.205310 0.155647
v 0.132877 0.205310 0.139604
v 0.067740 0.205310 0.470276
v -0.245524 0.205310 0.177238
v 0.067740 0.205310 0.129724
v 0.132877 0.205310 0.460396
v -0.288705 0.205310 0.203547
v 0.000000 0.205310 0.126389
v 0.192907 0.205310 0.444353
v -0.320792 0.205310 0.233562
v 0.245524 0.205310 0.422762
v -0.340551 0.205310 0.266130
v 0.288705 0.205310 0.396453
v -0.347223 0.205310 0.300000
v 0.320792 0.205310 0.366438
v -0.340551 0.205310 0.333870
v 0.340551 0.205310 0.333870
v -0.320792 0.205310 0.366438
v 0.347223 0.205310 0.300000
v -0.288705 0.205310 0.396453
v 0.340551 0.205310 0.266130
v -0.245524 0.205310 0.422762
v 0.320792 0.205310 0.233562
v -0.192907 0.205310 0.444353
v 0.288705 0.205310 0.203547
v -0.132876 0.205310 0.460396
v -0.158488 0.184729 0.108688
v 0.230089 0.184729 0.127824
v 0.000000 0.184729 0.507075
v -0.230089 0.184729 0.127824
v 0.158488 0.184729 0.108688
v 0.080797 0.184729 0.503096
v -0.292848 0.184729 0.153576
v 0.080797 0.184729 0.096904
v 0.158488 0.184729 0.491312
v -0.344352 0.184729 0.184956
v 0.000000 0.184729 0.092925
v 0.230089 0.184729 0.472176
v -0.382624 0.184729 0.220756
v 0.292848 0.184729 0.446424
v -0.406191 0.184729 0.259602
v 0.344352 0.184729 0.415044
v -0.414149 0.184729 0.300000
v 0.382624 0.184729 0.379244
v -0.406191 0.184729 0.340398
v 0.406191 0.184729 0.340398
v -0.382624 0.184729 0.379244
v 0.414149 0.184729 0.300000
v -0.344352 0.184729 0.415045
v 0.406191 0.184729 0.259602
v -0.292848 0.184729 0.446424
v 0.382624 0.184729 0.220756
v -0.230089 0.184729 0.472176
v 0.344352 0.184729 0.184956
v -0.158488 0.184729 0.491312
v -0.080796 0.184729 0.096904
v 0.292848 0.184729 0.153576
v -0.080796 0.184729 0.503096
v -0.111572 0.228502 0.165321
v 0.161978 0.228502 0.178792
v 0.000000 0.228502 0.445776
v -0.161978 0.228502 0.178792
v 0.111572 0.228502 0.165321
v 0.056879 0.228502 0.442975
v -0.206158 0.228502 0.196921
v 0.056879 0.228502 0.157025
v 0.111572 0.228502 0.434680
v -0.242417 0.228502 0.219011
v 0.000000 0.228502 0.154224
v 0.161978 0.228502 0.421208
v -0.269359 0.228502 0.244214
v 0.206158 0.228502 0.403079
v -0.285950 0.228502 0.271560
v 0.242417 0.228502 0.380989
v -0.291552 0.228502 0.300000
v 0.269359 0.228502 0.355786
v -0.285950 0.228502 0.328440
v 0.285950 0.228502 0.328440
v -0.269359 0.228502 0.355786
v 0.291552 0.228502 0.300000
v -0.242417 0.228502 0.380989
v 0.285950 0.228502 0.271561
v -0.206158 0.228502 0.403079
v 0.269359 0.228502 0.244214
v -0.161978 0.228502 0.421208
v 0.242417 0.228502 0.219011
v -0.111572 0.228502 0.434680
v -0.100793 0.205310 0.466135
v 0.268406 0.205310 0.189862
v -0.034034 0.205310 0.127225
v -0.163679 0.205310 0.453111
v 0.306222 0.205310 0.218160
v -0.220275 0.205310 0.434203
v 0.332270 0.205310 0.249603
v -0.268406 0.205310 0.410138
v 0.345550 0.205310 0.282983
v -0.306222 0.205310 0.381840
v 0.345550 0.205310 0.317017
v -0.332270 0.205310 0.350397
v 0.332270 0.205310 0.350397
v -0.345550 0.205310 0.317017
v 0.306222 0.205310 0.381840
v -0.345550 0.205310 0.282983
v 0.268406 0.205310 0.410138
v -0.332270 0.205310 0.249603
v 0.220275 0.205310 0.434203
v -0.306222 0.205310 0.218160
v 0.163679 0.205310 0.453111
v 0.034034 0.205310 0.127225
v -0.268406 0.205310 0.189862
v 0.100793 0.205310 0.466135
v 0.100793 0.205310 0.133865
v -0.220275 0.205310 0.165797
v 0.034034 0.205310 0.472775
v 0.163679 0.205310 0.146889
v -0.163679 0.205310 0.146889
v -0.034034 0.205310 0.472775
v 0.220275 0.205310 0.165797
v -0.100793 0.205310 0.133865
v -0.056879 0.228502 0.157025
v 0.206158 0.228502 0.196921
v -0.056879 0.228502 0.442975
v -0.120221 0.184729 0.498157
v 0.320140 0.184729 0.168634
v -0.040594 0.184729 0.093923
v -0.195228 0.184729 0.482623
v 0.365246 0.184729 0.202386
v -0.262732 0.184729 0.460070
v 0.396314 0.184729 0.239890
v -0.320140 0.184729 0.431366
v 0.412153 0.184729 0.279703
v -0.365245 0.184729 0.397614
v 0.412153 0.184729 0.320297
v -0.396314 0.184729 0.360110
v 0.396315 0.184729 0.360110
v -0.412153 0.184729 0.320297
v 0.365246 0.184729 0.397614
v -0.412153 0.184729 0.279703
v 0.320140 0.184729 0.431366
v -0.396314 0.184729 0.239890
v 0.262732 0.184729 0.460070
v -0.365245 0.184729 0.202386
v 0.195228 0.184729 0.482623
v 0.040594 0.184729 0.093923
v -0.320140 0.184729 0.168634
v 0.120221 0.184729 0.498157
v 0.120221 0.184729 0.101843
v -0.262732 0.184729 0.139930
v 0.040594 0.184729 0.506077
v 0.195228 0.184729 0.117377
v -0.195228 0.184729 0.117377
v -0.040594 0.184729 0.506077
v 0.262732 0.184729 0.139930
v -0.120221 0.184729 0.101843
v -0.084633 0.228502 0.439498
v 0.225372 0.228502 0.207521
v -0.028577 0.228502 0.154927
v -0.137436 0.228502 0.428562
v 0.257125 0.228502 0.231282
v -0.184958 0.228502 0.412686
v 0.278997 0.228502 0.257684
v -0.225372 0.228502 0.392479
v 0.290147 0.228502 0.285711
v -0.257125 0.228502 0.368718
v 0.290147 0.228502 0.314289
v -0.278997 0.228502 0.342316
v 0.278997 0.228502 0.342316
v -0.290147 0.228502 0.314289
v 0.257125 0.228502 0.368718
v -0.290147 0.228502 0.285711
v 0.225372 0.228502 0.392479
v -0.278997 0.228502 0.257684
v 0.184958 0.228502 0.412686
v -0.257125 0.228502 0.231282
v 0.137436 0.228502 0.428563
v 0.028577 0.228502 0.154927
v -0.225372 0.228502 0.207521
v 0.084633 0.228502 0.439498
v 0.084633 0.228502 0.160502
v -0.184958 0.228502 0.187314
v 0.028577 0.228502 0.445074
v 0.137436 0.228502 0.171438
v -0.137436 0.228502 0.171438
v -0.028577 0.228502 0.445074
v 0.184958 0.228502 0.187314
v -0.084633 0.228502 0.160502
vn -0.0573 0.8166 -0.5744
vn 0.2212 0.8699 -0.4408
vn -0.0573 0.8166 0.5744
vn -0.1140 0.8282 -0.5487
vn 0.1692 0.8466 -0.5047
vn -0.0000 0.8126 0.5828
vn -0.1692 0.8466 -0.5047
vn 0.1140 0.8282 -0.5487
vn 0.0573 0.8166 0.5744
vn -0.2212 0.8699 -0.4408
vn 0.0573 0.8166 -0.5744
vn 0.1140 0.8282 0.5487
vn -0.2676 0.8953 -0.3560
vn -0.0000 0.8126 -0.5828
vn 0.1692 0.8466 0.5047
vn -0.3047 0.9188 -0.2511
vn 0.2212 0.8699 0.4408
vn -0.3287 0.9354 -0.1300
vn 0.2676 0.8953 0.3560
vn -0.3370 0.9415 -0.0000
vn 0.3047 0.9188 0.2511
vn -0.3287 0.9354 0.1300
vn 0.3287 0.9354 0.1300
vn -0.3047 0.9188 0.2511
vn 0.3370 0.9415 -0.0000
vn -0.2676 0.8953 0.3560
vn 0.3287 0.9354 -0.1300
vn -0.2212 0.8699 0.4408
vn 0.3047 0.9188 -0.2511
vn -0.1692 0.8466 0.5047
vn 0.2676 0.8953 -0.3560
vn -0.1140 0.8282 0.5487
vn -0.1053 0.8658 -0.4891
vn 0.1546 0.8818 -0.4456
vn -0.0000 0.8518 0.5239
vn -0.1546 0.8818 -0.4456
vn 0.1053 0.8658 -0.4891
vn 0.0533 0.8554 0.5152
vn -0.1997 0.9013 -0.3844
vn 0.0533 0.8554 -0.5152
vn 0.1053 0.8658 0.4891
vn -0.2385 0.9216 -0.3062
vn -0.0000 0.8518 -0.5239
vn 0.1546 0.8818 0.4456
vn -0.2686 0.9394 -0.2130
vn 0.1997 0.9013 0.3844
vn -0.2875 0.9516 -0.1091
vn 0.2385 0.9216 0.3062
vn -0.2939 0.9558 -0.0000
vn 0.2686 0.9394 0.2130
vn -0.2875 0.9516 0.1091
vn 0.2875 0.9516 0.1091
vn -0.2686 0.9394 0.2130
vn 0.2939 0.9558 -0.0000
vn -0.2385 0.9216 0.3062
vn 0.2875 0.9516 -0.1091
vn -0.1997 0.9013 0.3844
vn 0.2686 0.9394 -0.2130
vn -0.1546 0.8818 0.4456
vn 0.2385 0.9216 -0.3062
vn -0.1053 0.8658 0.4891
vn -0.0533 0.8554 -0.5152
vn 0.1997 0.9013 -0.3844
vn -0.0533 0.8554 0.5152
vn -0.1216 0.7851 -0.6073
vn 0.1822 0.8056 -0.5638
vn -0.0000 0.7683 0.6401
vn -0.1822 0.8056 -0.5638
vn 0.1216 0.7851 -0.6073
vn 0.0607 0.7725 0.6321
vn -0.2411 0.8325 -0.4987
vn 0.0607 0.7725 -0.6321
vn 0.1216 0.7851 0.6073
vn -0.2958 0.8632 -0.4091
vn -0.0000 0.7683 -0.6401
vn 0.1822 0.8056 0.5638
vn -0.3418 0.8928 -0.2936
vn 0.2411 0.8325 0.4987
vn -0.3732 0.9148 -0.1542
vn 0.2958 0.8632 0.4091
vn -0.3846 0.9231 -0.0000
vn 0.3418 0.8928 0.2936
vn -0.3732 0.9148 0.1542
vn 0.3732 0.9148 0.1542
vn -0.3418 0.8928 0.2936
vn 0.3846 0.9231 -0.0000
vn -0.2958 0.8632 0.4091
vn 0.3732 0.9148 -0.1542
vn -0.2411 0.8325 0.4987
vn 0.3418 0.8928 -0.2936
vn -0.1822 0.8056 0.5638
vn 0.2958 0.8632 -0.4091
vn -0.1216 0.7851 0.6073
vn -0.0857 0.8215 0.5638
vn 0.2453 0.8826 -0.4010
vn -0.0287 0.8136 -0.5807
vn -0.1418 0.8366 0.5291
vn 0.2875 0.9076 -0.3059
vn -0.1957 0.8578 0.4753
vn 0.3185 0.9282 -0.1922
vn -0.2453 0.8826 0.4010
vn 0.3349 0.9400 -0.0656
vn -0.2875 0.9076 0.3059
vn 0.3349 0.9400 0.0656
vn -0.3185 0.9282 0.1922
vn 0.3185 0.9282 0.1922
vn -0.3349 0.9400 0.0656
vn 0.2875 0.9076 0.3059
vn -0.3349 0.9400 -0.0656
vn 0.2453 0.8826 0.4010
vn -0.3185 0.9282 -0.1922
vn 0.1957 0.8578 0.4753
vn -0.2875 0.9076 -0.3059
vn 0.1418 0.8366 0.5291
vn 0.0287 0.8136 -0.5807
vn -0.2453 0.8826 -0.4010
vn 0.0857 0.8215 0.5638
vn 0.0857 0.8215 -0.5638
vn -0.1957 0.8578 -0.4753
vn 0.0287 0.8136 0.5807
vn 0.1418 0.8366 -0.5291
vn -0.1418 0.8366 -0.5291
vn -0.0287 0.8136 0.5807
vn 0.1957 0.8578 -0.4753
vn -0.0857 0.8215 -0.5638
vn -0.0607 0.7725 -0.6321
vn 0.2411 0.8325 -0.4987
vn -0.0607 0.7725 0.6321
vn -0.0795 0.8598 0.5043
vn 0.2201 0.9115 -0.3474
vn -0.0267 0.8527 -0.5217
vn -0.1304 0.8732 0.4696
vn 0.2548 0.9310 -0.2613
vn -0.1778 0.8912 0.4172
vn 0.2795 0.9464 -0.1621
vn -0.2201 0.9115 0.3474
vn 0.2923 0.9547 -0.0549
vn -0.2548 0.9310 0.2613
vn 0.2923 0.9547 0.0549
vn -0.2795 0.9464 0.1621
vn 0.2795 0.9464 0.1621
vn -0.2923 0.9547 0.0549
vn 0.2548 0.9310 0.2613
vn -0.2923 0.9547 -0.0549
vn 0.2201 0.9115 0.3474
vn -0.2795 0.9464 -0.1621
vn 0.1778 0.8912 0.4172
vn -0.2548 0.9310 -0.2613
vn 0.1304 0.8732 0.4696
vn 0.0267 0.8527 -0.5217
vn -0.2201 0.9115 -0.3474
vn 0.0795 0.8598 0.5043
vn 0.0795 0.8598 -0.5043
vn -0.1778 0.8912 -0.4172
vn 0.0267 0.8527 0.5217
vn 0.1304 0.8732 -0.4696
vn -0.1304 0.8732 -0.4696
vn -0.0267 0.8527 0.5217
vn 0.1778 0.8912 -0.4172
vn -0.0795 0.8598 -0.5043
vn -0.0911 0.7778 0.6219
vn 0.2693 0.8477 -0.4571
vn -0.0303 0.7693 -0.6381
vn -0.1520 0.7944 0.5881
vn 0.3202 0.8785 -0.3546
vn -0.2120 0.8184 0.5341
vn 0.3597 0.9052 -0.2265
vn -0.2693 0.8477 0.4571
vn 0.3817 0.9210 -0.0781
vn -0.3202 0.8785 0.3546
vn 0.3817 0.9210 0.0781
vn -0.3597 0.9052 0.2265
vn 0.3597 0.9052 0.2265
vn -0.3817 0.9210 0.0781
vn 0.3202 0.8785 0.3546
vn -0.3817 0.9210 -0.0781
vn 0.2693 0.8477 0.4571
vn -0.3597 0.9052 -0.2265
vn 0.2120 0.8184 0.5341
vn -0.3202 0.8785 -0.3546
vn 0.1520 0.7944 0.5881
vn 0.0303 0.7693 -0.6381
vn -0.2693 0.8477 -0.4571
vn 0.0911 0.7778 0.6219
vn 0.0911 0.7778 -0.6219
vn -0.2120 0.8184 -0.5341
vn 0.0303 0.7693 0.6381
vn 0.1520 0.7944 -0.5881
vn -0.1520 0.7944 -0.5881
vn -0.0303 0.7693 0.6381
vn 0.2120 0.8184 -0.5341
vn -0.0911 0.7778 -0.6219
vt 0.000000 0.000000
s 1
f 64/1/64 3/1/3 94/1/94 129/1/129
f 129/1/129 94/1/94 32/1/32 61/1/61
f 63/1/63 2/1/2 95/1/95 130/1/130
f 130/1/130 95/1/95 31/1/31 60/1/60
f 62/1/62 1/1/1 96/1/96 131/1/131
f 131/1/131 96/1/96 14/1/14 43/1/43
f 61/1/61 32/1/32 97/1/97 132/1/132
f 132/1/132 97/1/97 30/1/30 59/1/59
f 60/1/60 31/1/31 98/1/98 133/1/133
f 133/1/133 98/1/98 29/1/29 58/1/58
f 59/1/59 30/1/30 99/1/99 134/1/134
f 134/1/134 99/1/99 28/1/28 57/1/57
f 58/1/58 29/1/29 100/1/100 135/1/135
f 135/1/135 100/1/100 27/1/27 56/1/56
f 57/1/57 28/1/28 101/1/101 136/1/136
f 136/1/136 101/1/101 26/1/26 55/1/55
f 56/1/56 27/1/27 102/1/102 137/1/137
f 137/1/137 102/1/102 25/1/25 54/1/54
f 55/1/55 26/1/26 103/1/103 138/1/138
f 138/1/138 103/1/103 24/1/24 53/1/53
f 54/1/54 25/1/25 104/1/104 139/1/139
f 139/1/139 104/1/104 23/1/23 52/1/52
f 53/1/53 24/1/24 105/1/105 140/1/140
f 140/1/140 105/1/105 22/1/22 51/1/51
f 52/1/52 23/1/23 106/1/106 141/1/141
f 141/1/141 106/1/106 21/1/21 50/1/50
f 51/1/51 22/1/22 107/1/107 142/1/142
f 142/1/142 107/1/107 20/1/20 49/1/49
f 50/1/50 21/1/21 108/1/108 143/1/143
f 143/1/143 108/1/108 19/1/19 48/1/48
f 49/1/49 20/1/20 109/1/109 144/1/144
f 144/1/144 109/1/109 18/1/18 47/1/47
f 48/1/48 19/1/19 110/1/110 145/1/145
f 145/1/145 110/1/110 17/1/17 46/1/46
f 47/1/47 18/1/18 111/1/111 146/1/146
f 146/1/146 111/1/111 16/1/16 45/1/45
f 46/1/46 17/1/17 112/1/112 147/1/147
f 147/1/147 112/1/112 15/1/15 44/1/44
f 45/1/45 16/1/16 113/1/113 148/1/148
f 148/1/148 113/1/113 13/1/13 42/1/42
f 44/1/44 15/1/15 114/1/114 149/1/149
f 149/1/149 114/1/114 12/1/12 41/1/41
f 43/1/43 14/1/14 115/1/115 150/1/150
f 150/1/150 115/1/115 11/1/11 40/1/40
f 42/1/42 13/1/13 116/1/116 151/1/151
f 151/1/151 116/1/116 10/1/10 39/1/39
f 41/1/41 12/1/12 117/1/117 152/1/152
f 152/1/152 117/1/117 9/1/9 38/1/38
f 40/1/40 11/1/11 118/1/118 153/1/153
f 153/1/153 118/1/118 8/1/8 37/1/37
f 39/1/39 10/1/10 119/1/119 154/1/154
f 154/1/154 119/1/119 7/1/7 36/1/36
f 38/1/38 9/1/9 120/1/120 155/1/155
f 155/1/155 120/1/120 6/1/6 35/1/35
f 37/1/37 8/1/8 121/1/121 156/1/156
f 156/1/156 121/1/121 5/1/5 34/1/34
f 36/1/36 7/1/7 122/1/122 157/1/157
f 157/1/157 122/1/122 4/1/4 33/1/33
f 35/1/35 6/1/6 123/1/123 158/1/158
f 158/1/158 123/1/123 3/1/3 64/1/64
f 34/1/34 5/1/5 124/1/124 159/1/159
f 159/1/159 124/1/124 2/1/2 63/1/63
f 33/1/33 4/1/4 125/1/125 160/1/160
f 160/1/160 125/1/125 1/1/1 62/1/62
f 3/1/3 128/1/128 161/1/161 94/1/94
f 94/1/94 161/1/161 93/1/93 32/1/32
f 2/1/2 127/1/127 162/1/162 95/1/95
f 95/1/95 162/1/162 92/1/92 31/1/31
f 1/1/1 126/1/126 163/1/163 96/1/96
f 96/1/96 163/1/163 75/1/75 14/1/14
f 32/1/32 93/1/93 164/1/164 97/1/97
f 97/1/97 164/1/164 91/1/91 30/1/30
f 31/1/31 92/1/92 165/1/165 98/1/98
f 98/1/98 165/1/165 90/1/90 29/1/29
f 30/1/30 91/1/91 166/1/166 99/1/99
f 99/1/99 166/1/166 89/1/89 28/1/28
f 29/1/29 90/1/90 167/1/167 100/1/100
f 100/1/100 167/1/167 88/1/88 27/1/27
f 28/1/28 89/1/89 168/1/168 101/1/101
f 101/1/101 168/1/168 87/1/87 26/1/26
f 27/1/27 88/1/88 169/1/169 102/1/102
f 102/1/102 169/1/169 86/1/86 25/1/25
f 26/1/26 87/1/87 170/1/170 103/1/103
f 103/1/103 170/1/170 85/1/85 24/1/24
f 25/1/25 86/1/86 171/1/171 104/1/104
f 104/1/104 171/1/171 84/1/84 23/1/23
f 24/1/24 85/1/85 172/1/172 105/1/105
f 105/1/105 172/1/172 83/1/83 22/1/22
f 23/1/23 84/1/84 173/1/173 106/1/106
f 106/1/106 173/1/173 82/1/82 21/1/21
f 22/1/22 83/1/83 174/1/174 107/1/107
f 107/1/107 174/1/174 81/1/81 20/1/20
f 21/1/21 82/1/82 175/1/175 108/1/108
f 108/1/108 175/1/175 80/1/80 19/1/19
f 20/1/20 81/1/81 176/1/176 109/1/109
f 109/1/109 176/1/176 79/1/79 18/1/18
f 19/1/19 80/1/80 177/1/177 110/1/110
f 110/1/110 177/1/177 78/1/78 17/1/17
f 18/1/18 79/1/79 178/1/178 111/1/111
f 111/1/111 178/1/178 77/1/77 16/1/16
f 17/1/17 78/1/78 179/1/179 112/1/112
f 112/1/112 179/1/179 76/1/76 15/1/15
f 16/1/16 77/1/77 180/1/180 113/1/113
f 113/1/113 180/1/180 74/1/74 13/1/13
f 15/1/15 76/1/76 181/1/181 114/1/114
f 114/1/114 181/1/181 73/1/73 12/1/12
f 14/1/14 75/1/75 182/1/182 115/1/115
f 115/1/115 182/1/182 72/1/72 11/1/11
f 13/1/13 74/1/74 183/1/183 116/1/116
f 116/1/116 183/1/183 71/1/71 10/1/10
f 12/1/12 73/1/73 184/1/184 117/1/117
f 117/1/117 184/1/184 70/1/70 9/1/9
f 11/1/11 72/1/72 185/1/185 118/1/118
f 118/1/118 185/1/185 69/1/69 8/1/8
f 10/1/10 71/1/71 186/1/186 119/1/119
f 119/1/119 186/1/186 68/1/68 7/1/7
f 9/1/9 70/1/70 187/1/187 120/1/120
f 120/1/120 187/1/187 67/1/67 6/1/6
f 8/1/8 69/1/69 188/1/188 121/1/121
f 121/1/121 188/1/188 66/1/66 5/1/5
f 7/1/7 68/1/68 189/1/189 122/1/122
f 122/1/122 189/1/189 65/1/65 4/1/4
f 6/1/6 67/1/67 190/1/190 123/1/123
f 123/1/123 190/1/190 128/1/128 3/1/3
f 5/1/5 66/1/66 191/1/191 124/1/124
f 124/1/124 191/1/191 127/1/127 2/1/2
f 4/1/4 65/1/65 192/1/192 125/1/125
f 125/1/125 192/1/192 126/1/126 1/1/1
