# Blender 4.1.1
# www.blender.org
o Smasher_Board
v -2.500000 0.001000 3.000000
v 2.500000 0.001000 3.000000
v -2.500000 0.001000 1.900000
v 2.500000 0.001000 1.900000
v -2.307692 0.001000 1.900000
v -2.115385 0.001000 1.900000
v -1.923077 0.001000 1.900000
v -1.730769 0.001000 1.900000
v -1.538461 0.001000 1.900000
v -1.346154 0.001000 1.900000
v -1.153846 0.001000 1.900000
v -0.961538 0.001000 1.900000
v -0.769231 0.001000 1.900000
v -0.576923 0.001000 1.900000
v -0.384615 0.001000 1.900000
v -0.192308 0.001000 1.900000
v 0.000000 0.001000 1.900000
v 0.192308 0.001000 1.900000
v 0.384616 0.001000 1.900000
v 0.576923 0.001000 1.900000
v 0.769231 0.001000 1.900000
v 0.961539 0.001000 1.900000
v 1.153846 0.001000 1.900000
v 1.346154 0.001000 1.900000
v 1.538462 0.001000 1.900000
v 1.730769 0.001000 1.900000
v 1.923077 0.001000 1.900000
v 2.115385 0.001000 1.900000
v 2.307693 0.001000 1.900000
v -2.307692 0.001000 3.000000
v -2.115385 0.001000 3.000000
v -1.923077 0.001000 3.000000
v -1.730769 0.001000 3.000000
v -1.538461 0.001000 3.000000
v -1.346154 0.001000 3.000000
v -1.153846 0.001000 3.000000
v -0.961538 0.001000 3.000000
v -0.769231 0.001000 3.000000
v -0.576923 0.001000 3.000000
v -0.384615 0.001000 3.000000
v -0.192308 0.001000 3.000000
v 0.000000 0.001000 3.000000
v 0.192308 0.001000 3.000000
v 0.384616 0.001000 3.000000
v 0.576923 0.001000 3.000000
v 0.769231 0.001000 3.000000
v 0.961539 0.001000 3.000000
v 1.153846 0.001000 3.000000
v 1.346154 0.001000 3.000000
v 1.538462 0.001000 3.000000
v 1.730769 0.001000 3.000000
v 1.923077 0.001000 3.000000
v 2.115385 0.001000 3.000000
v 2.307693 0.001000 3.000000
vn -0.0000 1.0000 -0.0000
vt 0.000000 0.038462
vt 0.000000 0.000000
vt 1.000000 0.000000
vt 1.000000 0.038462
vt 0.000000 1.000000
vt 0.000000 0.961538
vt 1.000000 0.961538
vt 1.000000 1.000000
vt 0.000000 0.923077
vt 1.000000 0.923077
vt 0.000000 0.884615
vt 1.000000 0.884615
vt 0.000000 0.846154
vt 1.000000 0.846154
vt 0.000000 0.807692
vt 1.000000 0.807692
vt 0.000000 0.769231
vt 1.000000 0.769231
vt 0.000000 0.730769
vt 1.000000 0.730769
vt 0.000000 0.692308
vt 1.000000 0.692308
vt 0.000000 0.653846
vt 1.000000 0.653846
vt 0.000000 0.615385
vt 1.000000 0.615385
vt 0.000000 0.576923
vt 1.000000 0.576923
vt 0.000000 0.538462
vt 1.000000 0.538462
vt 0.000000 0.500000
vt 1.000000 0.500000
vt 0.000000 0.461538
vt 1.000000 0.461538
vt 0.000000 0.423077
vt 1.000000 0.423077
vt 0.000000 0.384615
vt 1.000000 0.384615
vt 0.000000 0.346154
vt 1.000000 0.346154
vt 0.000000 0.307692
vt 1.000000 0.307692
vt 0.000000 0.269231
vt 1.000000 0.269231
vt 0.000000 0.230769
vt 1.000000 0.230769
vt 0.000000 0.192308
vt 1.000000 0.192308
vt 0.000000 0.153846
vt 1.000000 0.153846
vt 0.000000 0.115385
vt 1.000000 0.115385
vt 0.000000 0.076923
vt 1.000000 0.076923
s 0
f 54/1/1 2/2/1 4/3/1 29/4/1
f 1/5/1 30/6/1 5/7/1 3/8/1
f 30/6/1 31/9/1 6/10/1 5/7/1
f 31/9/1 32/11/1 7/12/1 6/10/1
f 32/11/1 33/13/1 8/14/1 7/12/1
f 33/13/1 34/15/1 9/16/1 8/14/1
f 34/15/1 35/17/1 10/18/1 9/16/1
f 35/17/1 36/19/1 11/20/1 10/18/1
f 36/19/1 37/21/1 12/22/1 11/20/1
f 37/21/1 38/23/1 13/24/1 12/22/1
f 38/23/1 39/25/1 14/26/1 13/24/1
f 39/25/1 40/27/1 15/28/1 14/26/1
f 40/27/1 41/29/1 16/30/1 15/28/1
f 41/29/1 42/31/1 17/32/1 16/30/1
f 42/31/1 43/33/1 18/34/1 17/32/1
f 43/33/1 44/35/1 19/36/1 18/34/1
f 44/35/1 45/37/1 20/38/1 19/36/1
f 45/37/1 46/39/1 21/40/1 20/38/1
f 46/39/1 47/41/1 22/42/1 21/40/1
f 47/41/1 48/43/1 23/44/1 22/42/1
f 48/43/1 49/45/1 24/46/1 23/44/1
f 49/45/1 50/47/1 25/48/1 24/46/1
f 50/47/1 51/49/1 26/50/1 25/48/1
f 51/49/1 52/51/1 27/52/1 26/50/1
f 52/51/1 53/53/1 28/54/1 27/52/1
f 53/53/1 54/1/1 29/4/1 28/54/1
