# Blender 4.0.2
# www.blender.org
o HIGHWAY_EMH
v 2.000000 -0.000000 0.000000
v 2.000000 -0.000000 20.000000
v -2.000000 -0.033333 0.000000
v -2.000000 -0.033333 20.000000
v 1.000000 -0.000000 20.000000
v 0.000000 -0.000000 20.000000
v -1.000000 -0.000000 20.000000
v -2.000000 -0.000000 20.000000
v -2.000000 -0.000000 0.000000
v -1.000000 -0.000000 0.000000
v 0.000000 -0.000000 0.000000
v 1.000000 -0.000000 0.000000
v -2.140000 -0.033333 0.000000
v -2.140000 -0.033333 20.000000
v 2.140000 -0.000000 0.000000
v 2.140000 -0.000000 20.000000
v 2.070000 0.100000 20.000000
v 2.070000 0.100000 0.000000
v -2.070000 0.066667 0.000000
v -2.070000 0.066667 20.000000
vn -0.0000 1.0000 -0.0000
vn -0.8192 0.5735 -0.0000
vn 0.8192 0.5735 -0.0000
vt 0.044482 0.000000
vt 0.272241 0.000000
vt 0.272241 1.000000
vt 0.044482 1.000000
vt 0.500000 0.000000
vt 0.500000 1.000000
vt 0.727759 0.000000
vt 0.727759 1.000000
vt 0.955518 0.000000
vt 0.955518 1.000000
vt 0.977759 1.000000
vt 0.977759 0.000000
vt 1.000000 0.000000
vt 1.000000 1.000000
vt 0.022241 0.000000
vt 0.022241 1.000000
vt 0.000000 1.000000
vt -0.000000 0.000000
vt 0.044482 0.000000
vt 0.044482 1.000000
vt 0.955518 1.000000
vt 0.955518 0.000000
s 0
f 1/1/1 12/2/1 5/3/1 2/4/1
f 12/2/1 11/5/1 6/6/1 5/3/1
f 11/5/1 10/7/1 7/8/1 6/6/1
f 10/7/1 9/9/1 8/10/1 7/8/1
f 20/11/2 19/12/2 13/13/2 14/14/2
f 18/15/3 17/16/3 16/17/3 15/18/3
f 1/19/2 2/20/2 17/16/2 18/15/2
f 4/21/3 3/22/3 19/12/3 20/11/3
