# Blender 4.0.2
# www.blender.org
o Expert_Highway.001
v 2.000000 -0.000000 0.000000
v 2.000000 -0.000000 20.000000
v -2.000000 -0.000000 0.000000
v -2.000000 -0.000000 20.000000
v 1.000000 -0.000000 0.000000
v 0.000000 -0.000000 0.000000
v -1.000000 -0.000000 0.000000
v -1.000000 -0.000000 20.000000
v 0.000000 -0.000000 20.000000
v 1.000000 -0.000000 20.000000
vn -0.0000 1.0000 -0.0000
vt 0.044482 0.000000
vt 0.272241 0.000000
vt 0.272241 1.000000
vt 0.044482 1.000000
vt 0.500000 0.000000
vt 0.727759 0.000000
vt 0.727759 1.000000
vt 0.500000 1.000000
vt 0.955518 0.000000
vt 0.955518 1.000000
s 0
f 1/1/1 5/2/1 10/3/1 2/4/1
f 6/5/1 7/6/1 8/7/1 9/8/1
f 5/2/1 6/5/1 9/8/1 10/3/1
f 7/6/1 3/9/1 4/10/1 8/7/1
