# Blender 4.0.2
# www.blender.org
o Lane_Separators
v -1.510000 0.001000 20.500000
v -1.510000 0.001000 3.500000
v -0.510000 0.001000 20.500000
v -0.510000 0.001000 3.500000
v 0.462500 0.001000 20.500000
v 0.462500 0.001000 3.500000
v 1.490000 0.001000 20.500000
v 1.490000 0.001000 3.500000
v 1.510000 0.001000 20.500000
v 1.510000 0.001000 3.500000
v 0.537500 0.001000 20.500000
v 0.537500 0.001000 3.500000
v -0.490000 0.001000 20.500000
v -0.490000 0.001000 3.500000
v -1.490000 0.001000 20.500000
v -1.490000 0.001000 3.500000
vn -0.0000 -1.0000 -0.0000
vt 0.500000 1.000000
vt 0.500000 0.000000
vt -0.000000 0.000000
vt 0.000000 1.000000
vt 1.000000 1.000000
vt 1.000000 -0.000000
s 0
f 7/1/1 8/2/1 10/3/1 9/4/1
f 5/5/1 6/6/1 12/2/1 11/1/1
f 3/1/1 4/2/1 14/3/1 13/4/1
f 1/1/1 2/2/1 16/3/1 15/4/1
