# Blender 4.1.1
# www.blender.org
o SmasherInner
v -0.440000 0.014036 0.418916
v 0.440000 0.017008 0.397142
v 0.440000 0.034141 0.444820
v -0.440000 0.034141 0.444820
v 0.440000 0.062658 0.435374
v -0.440000 0.062658 0.435374
v 0.440000 0.014351 -0.407011
v -0.440000 0.014351 -0.407011
v -0.440000 0.029167 -0.446667
v 0.440000 0.029167 -0.446667
v -0.440000 0.045000 -0.446667
v 0.440000 0.045000 -0.446667
v 0.440000 0.102629 -0.272004
v -0.440000 0.102629 -0.272004
v -0.440000 0.119147 -0.086817
v 0.440000 0.119147 -0.086817
v -0.440000 0.119419 0.076676
v 0.440000 0.119419 0.076676
v -0.440000 0.065605 -0.408413
v 0.440000 0.065605 -0.408413
v 0.440000 0.087990 0.353199
v -0.440000 0.087990 0.353199
v -0.440000 0.108455 0.220516
v 0.440000 0.108455 0.220516
v 0.440000 0.015317 -0.263238
v -0.440000 0.015317 -0.263238
v 0.440000 0.017258 -0.068383
v -0.440000 0.017258 -0.068383
v 0.440000 0.016952 0.103609
v -0.440000 0.016952 0.103609
v 0.440000 0.014718 0.259014
v -0.440000 0.014718 0.259014
v 0.000000 0.016761 0.398957
v 0.000000 0.034141 0.444820
v 0.000000 0.062658 0.435374
v 0.000000 0.014351 -0.407011
v 0.000000 0.029167 -0.446667
v 0.000000 0.045000 -0.446667
v 0.000000 0.102629 -0.272004
v 0.000000 0.119147 -0.086817
v 0.000000 0.119419 0.076676
v 0.000000 0.065605 -0.408414
v 0.000000 0.087990 0.353199
v 0.000000 0.108455 0.220516
v 0.000000 0.015317 -0.263238
v 0.000000 0.017258 -0.068383
v 0.000000 0.016952 0.103609
v 0.000000 0.014718 0.259014
v -0.440000 0.015846 0.181677
v 0.440000 0.015846 0.181677
v -0.440000 0.017399 0.021371
v 0.440000 0.017399 0.021371
v -0.440000 0.016667 -0.166412
v 0.440000 0.016667 -0.166412
v -0.440000 0.013498 -0.347056
v 0.440000 0.013498 -0.347056
v -0.440000 0.014179 0.338281
v 0.440000 0.014551 0.335560
v -0.440000 0.120758 -0.001311
v 0.440000 0.120758 -0.001311
v -0.440000 0.075974 0.403163
v 0.440000 0.075974 0.403163
v 0.440000 0.084266 -0.351482
v -0.440000 0.084266 -0.351482
v -0.440000 0.099066 0.290137
v 0.440000 0.099066 0.290137
v -0.440000 0.115301 0.149725
v 0.440000 0.115301 0.149725
v 0.440000 0.037396 -0.449167
v -0.440000 0.037396 -0.449167
v 0.440000 0.113927 -0.180071
v -0.440000 0.113927 -0.180071
v -0.440000 0.047974 0.447524
v 0.440000 0.047974 0.447524
v 0.440000 0.020440 -0.436710
v -0.440000 0.020440 -0.436710
v 0.440000 0.053201 -0.436885
v -0.440000 0.053201 -0.436885
v -0.440000 0.023179 0.433810
v 0.440000 0.023550 0.431089
v 0.000000 0.015846 0.181677
v 0.000000 0.017399 0.021371
v 0.000000 0.016667 -0.166412
v 0.000000 0.013498 -0.347056
v 0.000000 0.014489 0.336013
v 0.000000 0.120758 -0.001311
v 0.000000 0.075974 0.403163
v 0.000000 0.084266 -0.351482
v 0.000000 0.099066 0.290137
v 0.000000 0.115301 0.149725
v 0.000000 0.037396 -0.449167
v 0.000000 0.113927 -0.180071
v 0.000000 0.047974 0.447524
v 0.000000 0.020440 -0.436710
v 0.000000 0.053201 -0.436885
v 0.000000 0.023488 0.431542
v -0.220000 0.015398 0.408936
v -0.220000 0.034141 0.444820
v -0.220000 0.062658 0.435374
v -0.220000 0.014351 -0.407011
v -0.220000 0.029167 -0.446667
v -0.220000 0.045000 -0.446667
v -0.220000 0.102629 -0.272004
v -0.220000 0.119147 -0.086817
v -0.220000 0.119419 0.076676
v -0.220000 0.065605 -0.408414
v -0.220000 0.087990 0.353199
v -0.220000 0.108455 0.220516
v -0.220000 0.015317 -0.263238
v -0.220000 0.017258 -0.068383
v -0.220000 0.016952 0.103609
v -0.220000 0.014718 0.259014
v -0.220000 0.015846 0.181677
v -0.220000 0.017399 0.021371
v -0.220000 0.016667 -0.166412
v -0.220000 0.013498 -0.347056
v -0.220000 0.014334 0.337147
v -0.220000 0.120758 -0.001311
v -0.220000 0.075974 0.403163
v -0.220000 0.084266 -0.351482
v -0.220000 0.099066 0.290137
v -0.220000 0.115301 0.149725
v -0.220000 0.037396 -0.449167
v -0.220000 0.113927 -0.180071
v -0.220000 0.047974 0.447524
v -0.220000 0.020440 -0.436710
v -0.220000 0.053201 -0.436885
v -0.220000 0.023333 0.432676
v 0.220000 0.016884 0.398049
v 0.220000 0.034141 0.444820
v 0.220000 0.062658 0.435374
v 0.220000 0.014351 -0.407011
v 0.220000 0.029167 -0.446667
v 0.220000 0.045000 -0.446667
v 0.220000 0.102629 -0.272004
v 0.220000 0.119147 -0.086817
v 0.220000 0.119419 0.076676
v 0.220000 0.065605 -0.408414
v 0.220000 0.087990 0.353199
v 0.220000 0.108455 0.220516
v 0.220000 0.015317 -0.263238
v 0.220000 0.017258 -0.068383
v 0.220000 0.016952 0.103609
v 0.220000 0.014718 0.259014
v 0.220000 0.015846 0.181677
v 0.220000 0.017399 0.021371
v 0.220000 0.016667 -0.166412
v 0.220000 0.013498 -0.347056
v 0.220000 0.014520 0.335786
v 0.220000 0.120758 -0.001311
v 0.220000 0.075974 0.403163
v 0.220000 0.084266 -0.351482
v 0.220000 0.099066 0.290137
v 0.220000 0.115301 0.149725
v 0.220000 0.037396 -0.449167
v 0.220000 0.113927 -0.180071
v 0.220000 0.047974 0.447524
v 0.220000 0.020440 -0.436710
v 0.220000 0.053201 -0.436885
v 0.220000 0.023519 0.431316
vn -0.0000 -1.0000 -0.0098
vn -0.0000 -0.9999 -0.0144
vn -0.0000 -1.0000 -0.0085
vn -0.0000 -1.0000 -0.0086
vn 0.0001 -1.0000 -0.0090
vn 0.0002 -1.0000 -0.0097
vn -0.0000 -1.0000 0.0038
vn -0.0000 -1.0000 -0.0019
vn -0.0000 -0.9998 0.0178
vn -0.0000 -1.0000 0.0100
vn -0.0000 -0.9941 -0.1080
vn -0.0000 -1.0000 0.0037
vn 0.0012 -0.9999 0.0137
vn 0.0021 -1.0000 0.0053
vn 0.0003 -0.9998 0.0182
vn 0.0003 -0.9998 0.0177
vn 0.0006 -0.9933 0.1158
vn 0.0007 -0.9931 0.1171
vn 0.0037 -0.9919 0.1273
vn 0.0078 -0.9849 0.1731
vn -0.0000 0.9993 0.0367
vn -0.0000 1.0000 -0.0008
vn -0.0000 0.9993 -0.0374
vn -0.0000 0.8046 0.5938
vn -0.0000 0.9511 0.3089
vn -0.0000 0.9791 0.2035
vn -0.0000 0.9345 -0.3558
vn -0.0000 0.9633 -0.2686
vn -0.0000 0.9848 -0.1738
vn -0.0000 0.9882 0.1533
vn -0.0000 0.9934 0.1150
vn -0.0000 0.9971 0.0763
vn -0.0000 -0.5422 -0.8403
vn -0.0000 0.0113 -0.9999
vn -0.0000 0.5608 -0.8279
vn -0.0000 0.9960 -0.0890
vn 0.0010 -0.4951 0.8688
vn 0.0006 -0.5131 0.8583
vn -0.0000 0.2465 0.9691
vn 0.0002 -0.5215 0.8532
vn 0.0002 -0.5236 0.8520
vn -0.0000 -0.8956 -0.4448
vn -0.0000 0.8503 -0.5263
vn 0.0033 -0.8975 0.4409
vn 0.0069 -0.8618 0.5073
vn 0.0006 -0.9100 0.4146
vn 0.0006 -0.9083 0.4184
vn 0.0078 -0.8332 0.5529
vn 0.0011 -0.4835 0.8754
vn 0.0088 -0.9766 0.2148
vn 0.0020 -1.0000 0.0001
vn 0.0002 -0.9999 -0.0102
vt 0.250000 0.383233
vt 0.500000 0.384528
vt 0.500000 0.298282
vt 0.250000 0.298237
vt 0.750000 0.383233
vt 1.000000 0.381939
vt 1.000000 0.298192
vt 0.750000 0.298237
vt 1.000000 0.214445
vt 0.750000 0.213602
vt 0.500000 0.212758
vt 0.250000 0.213602
vt 0.250000 0.569367
vt 0.500000 0.570662
vt 0.500000 0.475524
vt 0.250000 0.475265
vt 0.750000 0.569367
vt 1.000000 0.568073
vt 1.000000 0.475006
vt 0.750000 0.475265
vt 0.250000 0.772004
vt 0.500000 0.771160
vt 0.500000 0.670551
vt 0.250000 0.670505
vt 0.750000 0.772004
vt 1.000000 0.772848
vt 1.000000 0.670460
vt 0.750000 0.670505
vt 0.250000 0.954492
vt 0.500000 0.943513
vt 0.500000 0.866794
vt 0.250000 0.867977
vt 0.750000 0.954492
vt 1.000000 0.965470
vt 1.000000 0.869159
vt 0.750000 0.867977
vt 0.500000 0.126470
vt 0.250000 0.125546
vt 1.000000 0.124623
vt 0.750000 0.125546
vt 1.000000 0.034801
vt 0.750000 0.044878
vt 0.500000 0.054956
vt 0.250000 0.044878
vt 0.250000 0.372704
vt 0.500000 0.375320
vt 0.500000 0.467427
vt 0.250000 0.467119
vt 0.750000 0.372704
vt 1.000000 0.370087
vt 1.000000 0.466812
vt 0.750000 0.467119
vt 1.000000 0.563536
vt 0.750000 0.563995
vt 0.500000 0.564453
vt 0.250000 0.563995
vt 0.250000 0.002669
vt 0.500000 0.005067
vt 0.500000 0.020029
vt 0.250000 0.018783
vt 0.750000 0.002669
vt 1.000000 0.000271
vt 1.000000 0.017536
vt 0.750000 0.018783
vt 0.750000 0.044869
vt 0.500000 0.054937
vt 0.250000 0.044869
vt 0.750000 0.953849
vt 0.500000 0.942227
vt 0.500000 0.862231
vt 0.750000 0.863380
vt 0.250000 0.953849
vt 0.000000 0.965470
vt 0.000000 0.864530
vt 0.250000 0.863381
vt 0.000000 0.763590
vt 0.250000 0.763717
vt 0.500000 0.763843
vt 0.750000 0.763717
vt 0.500000 0.126242
vt 0.250000 0.125400
vt 1.000000 0.124558
vt 0.750000 0.125400
vt 1.000000 0.214315
vt 0.750000 0.212667
vt 0.500000 0.211018
vt 0.250000 0.212667
vt 0.500000 0.292395
vt 0.250000 0.292298
vt 1.000000 0.292201
vt 0.750000 0.292298
vt 0.750000 1.000000
vt 0.500000 1.000000
vt 0.500000 0.999520
vt 0.750000 0.999760
vt 0.250000 1.000000
vt 0.000000 1.000000
vt 0.250000 0.999760
vt 0.250000 0.997602
vt 0.500000 0.995204
vt 0.750000 0.997602
vt 0.500000 0.663680
vt 0.750000 0.663621
vt 0.000000 0.663563
vt 0.250000 0.663621
vt 0.000000 0.563536
vt 0.250000 0.000271
vt 0.500000 0.000271
vt 0.500000 0.000751
vt 0.250000 0.000511
vt 0.750000 0.000271
vt 0.750000 0.000511
vt 0.500000 0.980540
vt 0.750000 0.981637
vt 0.000000 0.982735
vt 0.250000 0.981637
vt 0.500000 0.979931
vt 0.750000 0.981333
vt 0.250000 0.981333
vt 0.500000 0.019552
vt 0.250000 0.018544
vt 0.750000 0.018544
vt 0.000000 0.017536
vt 0.000000 0.000271
vt 0.000000 0.034801
vt 0.000000 0.292201
vt 0.000000 0.370087
vt 0.000000 0.214315
vt 0.000000 0.124558
vt 0.000000 0.466812
vt 0.000000 0.124623
vt 0.000000 0.214445
vt 0.000000 0.869159
vt 0.000000 0.772848
vt 0.000000 0.670460
vt 0.000000 0.568073
vt 0.000000 0.475006
vt 0.000000 0.381939
vt 0.000000 0.298192
vt 1.000000 0.982735
vt 1.000000 1.000000
vt 1.000000 0.663563
vt 1.000000 0.763590
vt 1.000000 0.864530
s 1
f 111/1/1 47/2/1 81/3/2 113/4/2
f 143/5/1 29/6/1 50/7/2 145/8/2
f 145/8/2 50/7/2 31/9/3 144/10/4
f 113/4/2 81/3/2 48/11/5 112/12/6
f 110/13/7 46/14/7 82/15/8 114/16/8
f 142/17/7 27/18/7 52/19/8 146/20/8
f 146/20/8 52/19/8 29/6/1 143/5/1
f 114/16/8 82/15/8 47/2/1 111/1/1
f 109/21/9 45/22/9 83/23/10 115/24/10
f 141/25/9 25/26/9 54/27/10 147/28/10
f 147/28/10 54/27/10 27/18/7 142/17/7
f 115/24/10 83/23/10 46/14/7 110/13/7
f 100/29/11 36/30/11 84/31/12 116/32/12
f 132/33/11 7/34/11 56/35/12 148/36/12
f 148/36/12 56/35/12 25/26/9 141/25/9
f 116/32/12 84/31/12 45/22/9 109/21/9
f 112/12/6 48/11/5 85/37/13 117/38/14
f 144/10/4 31/9/3 58/39/15 149/40/16
f 149/40/16 58/39/15 2/41/17 129/42/18
f 117/38/14 85/37/13 33/43/19 97/44/20
f 105/45/21 41/46/21 86/47/22 118/48/22
f 137/49/21 18/50/21 60/51/22 150/52/22
f 150/52/22 60/51/22 16/53/23 136/54/23
f 118/48/22 86/47/22 40/55/23 104/56/23
f 99/57/24 35/58/24 87/59/25 119/60/25
f 131/61/24 5/62/24 62/63/25 151/64/25
f 151/64/25 62/63/25 21/41/26 139/65/26
f 119/60/25 87/59/25 43/66/26 107/67/26
f 138/68/27 42/69/27 88/70/28 152/71/28
f 106/72/27 19/73/27 64/74/28 120/75/28
f 120/75/28 64/74/28 14/76/29 103/77/29
f 152/71/28 88/70/28 39/78/29 135/79/29
f 107/67/26 43/66/26 89/80/30 121/81/30
f 139/65/26 21/41/26 66/82/30 153/83/30
f 153/83/30 66/82/30 24/84/31 140/85/31
f 121/81/30 89/80/30 44/86/31 108/87/31
f 108/87/31 44/86/31 90/88/32 122/89/32
f 140/85/31 24/84/31 68/90/32 154/91/32
f 154/91/32 68/90/32 18/50/21 137/49/21
f 122/89/32 90/88/32 41/46/21 105/45/21
f 133/92/33 37/93/33 91/94/34 155/95/34
f 101/96/33 9/97/33 70/97/34 123/98/34
f 123/98/34 70/97/34 11/97/35 102/99/35
f 155/95/34 91/94/34 38/100/35 134/101/35
f 135/79/29 39/78/29 92/102/36 156/103/36
f 103/77/29 14/76/29 72/104/36 124/105/36
f 124/105/36 72/104/36 15/106/23 104/56/23
f 156/103/36 92/102/36 40/55/23 136/54/23
f 98/107/37 34/108/38 93/109/39 125/110/39
f 130/111/40 3/62/41 74/62/39 157/112/39
f 157/112/39 74/62/39 5/62/24 131/61/24
f 125/110/39 93/109/39 35/58/24 99/57/24
f 132/33/11 36/30/11 94/113/42 158/114/42
f 100/29/11 8/73/11 76/115/42 126/116/42
f 126/116/42 76/115/42 9/97/33 101/96/33
f 158/114/42 94/113/42 37/93/33 133/92/33
f 134/101/35 38/100/35 95/117/43 159/118/43
f 102/99/35 11/97/35 78/115/43 127/119/43
f 127/119/43 78/115/43 19/73/27 106/72/27
f 159/118/43 95/117/43 42/69/27 138/68/27
f 97/44/20 33/43/19 96/120/44 128/121/45
f 129/42/18 2/41/17 80/63/46 160/122/47
f 160/122/47 80/63/46 3/62/41 130/111/40
f 128/121/45 96/120/44 34/108/38 98/107/37
f 79/123/48 128/121/45 98/107/37 4/124/49
f 1/125/50 97/44/20 128/121/45 79/123/48
f 95/117/43 127/119/43 106/72/27 42/69/27
f 38/100/35 102/99/35 127/119/43 95/117/43
f 94/113/42 126/116/42 101/96/33 37/93/33
f 36/30/11 100/29/11 126/116/42 94/113/42
f 73/124/39 125/110/39 99/57/24 6/124/24
f 4/124/49 98/107/37 125/110/39 73/124/39
f 92/102/36 124/105/36 104/56/23 40/55/23
f 39/78/29 103/77/29 124/105/36 92/102/36
f 91/94/34 123/98/34 102/99/35 38/100/35
f 37/93/33 101/96/33 123/98/34 91/94/34
f 67/126/32 122/89/32 105/45/21 17/127/21
f 23/128/31 108/87/31 122/89/32 67/126/32
f 65/129/30 121/81/30 108/87/31 23/128/31
f 22/125/26 107/67/26 121/81/30 65/129/30
f 88/70/28 120/75/28 103/77/29 39/78/29
f 42/69/27 106/72/27 120/75/28 88/70/28
f 61/123/25 119/60/25 107/67/26 22/125/26
f 6/124/24 99/57/24 119/60/25 61/123/25
f 59/130/22 118/48/22 104/56/23 15/106/23
f 17/127/21 105/45/21 118/48/22 59/130/22
f 57/131/51 117/38/14 97/44/20 1/125/50
f 32/132/52 112/12/6 117/38/14 57/131/51
f 55/133/12 116/32/12 109/21/9 26/134/9
f 8/73/11 100/29/11 116/32/12 55/133/12
f 53/135/10 115/24/10 110/13/7 28/136/7
f 26/134/9 109/21/9 115/24/10 53/135/10
f 51/137/8 114/16/8 111/1/1 30/138/1
f 28/136/7 110/13/7 114/16/8 51/137/8
f 49/139/2 113/4/2 112/12/6 32/132/52
f 30/138/1 111/1/1 113/4/2 49/139/2
f 96/120/44 160/122/47 130/111/40 34/108/38
f 33/43/19 129/42/18 160/122/47 96/120/44
f 77/140/43 159/118/43 138/68/27 20/34/27
f 12/141/35 134/101/35 159/118/43 77/140/43
f 75/140/42 158/114/42 133/92/33 10/141/33
f 7/34/11 132/33/11 158/114/42 75/140/42
f 93/109/39 157/112/39 131/61/24 35/58/24
f 34/108/38 130/111/40 157/112/39 93/109/39
f 71/142/36 156/103/36 136/54/23 16/53/23
f 13/143/29 135/79/29 156/103/36 71/142/36
f 69/141/34 155/95/34 134/101/35 12/141/35
f 10/141/33 133/92/33 155/95/34 69/141/34
f 90/88/32 154/91/32 137/49/21 41/46/21
f 44/86/31 140/85/31 154/91/32 90/88/32
f 89/80/30 153/83/30 140/85/31 44/86/31
f 43/66/26 139/65/26 153/83/30 89/80/30
f 63/144/28 152/71/28 135/79/29 13/143/29
f 20/34/27 138/68/27 152/71/28 63/144/28
f 87/59/25 151/64/25 139/65/26 43/66/26
f 35/58/24 131/61/24 151/64/25 87/59/25
f 86/47/22 150/52/22 136/54/23 40/55/23
f 41/46/21 137/49/21 150/52/22 86/47/22
f 85/37/13 149/40/16 129/42/18 33/43/19
f 48/11/5 144/10/4 149/40/16 85/37/13
f 84/31/12 148/36/12 141/25/9 45/22/9
f 36/30/11 132/33/11 148/36/12 84/31/12
f 83/23/10 147/28/10 142/17/7 46/14/7
f 45/22/9 141/25/9 147/28/10 83/23/10
f 82/15/8 146/20/8 143/5/1 47/2/1
f 46/14/7 142/17/7 146/20/8 82/15/8
f 81/3/2 145/8/2 144/10/4 48/11/5
f 47/2/1 143/5/1 145/8/2 81/3/2
