# Blender 4.0.2
# www.blender.org
o Smashers
v -0.291115 -0.000000 -0.123481
v -0.291115 0.000000 0.123479
v -0.312185 0.000000 0.121107
v -0.332445 0.000000 0.114080
v -0.351116 0.000000 0.102669
v -0.367482 0.000000 0.087313
v -0.380914 0.000000 0.068601
v -0.390894 0.000000 0.047253
v -0.397040 0.000000 0.024089
v -0.399115 0.000000 -0.000001
v -0.397040 0.000000 -0.024090
v -0.390894 0.000000 -0.047254
v -0.380914 -0.000000 -0.068602
v -0.367482 -0.000000 -0.087314
v -0.351116 -0.000000 -0.102671
v -0.332445 -0.000000 -0.114081
v -0.312185 -0.000000 -0.121108
v 0.291116 -0.000000 -0.123481
v 0.312185 -0.000000 -0.121108
v 0.332445 -0.000000 -0.114081
v 0.351117 -0.000000 -0.102671
v 0.367483 -0.000000 -0.087314
v 0.380914 -0.000000 -0.068602
v 0.390894 0.000000 -0.047254
v 0.397040 0.000000 -0.024090
v 0.399116 0.000000 -0.000001
v 0.397040 0.000000 0.024089
v 0.390894 0.000000 0.047253
v 0.380914 0.000000 0.068601
v 0.367483 0.000000 0.087313
v 0.351117 0.000000 0.102669
v 0.332445 0.000000 0.114080
v 0.312185 0.000000 0.121107
v 0.291116 0.000000 0.123479
v -0.300070 0.000000 0.092481
v -0.281086 0.000000 0.094293
v -0.318326 0.000000 0.087115
v -0.335150 0.000000 0.078402
v -0.349896 0.000000 0.066675
v -0.361998 0.000000 0.052386
v -0.370991 0.000000 0.036084
v -0.376529 0.000000 0.018395
v -0.378398 0.000000 -0.000001
v -0.376529 0.000000 -0.018397
v -0.370991 0.000000 -0.036085
v -0.361998 0.000000 -0.052387
v -0.349896 -0.000000 -0.066676
v -0.335150 -0.000000 -0.078403
v -0.318326 -0.000000 -0.087117
v -0.300070 -0.000000 -0.092482
v -0.281086 -0.000000 -0.094294
v 0.300071 -0.000000 -0.092482
v 0.281086 -0.000000 -0.094294
v 0.318326 -0.000000 -0.087117
v 0.335150 -0.000000 -0.078403
v 0.349896 -0.000000 -0.066676
v 0.361999 0.000000 -0.052387
v 0.370991 0.000000 -0.036085
v 0.376529 0.000000 -0.018397
v 0.378399 0.000000 -0.000001
v 0.376529 0.000000 0.018395
v 0.370991 0.000000 0.036084
v 0.361999 0.000000 0.052386
v 0.349896 0.000000 0.066675
v 0.335150 0.000000 0.078402
v 0.318326 0.000000 0.087115
v 0.300071 0.000000 0.092481
v 0.281086 0.000000 0.094293
vn -0.0000 1.0000 -0.0000
vt 0.022802 0.222214
vt 0.046499 0.287873
vt 0.061660 0.230014
vt 0.891096 0.990393
vt 0.916477 0.961940
vt 0.898789 0.852754
vt 0.891096 0.009608
vt 0.875920 0.125520
vt 0.898789 0.147247
vt 0.039628 0.146446
vt 0.080134 0.182530
vt 0.864701 1.000000
vt 0.875920 0.874481
vt 0.916477 0.038061
vt 0.919866 0.182531
vt 0.083523 0.038060
vt 0.060131 0.084264
vt 0.135299 0.999999
vt 0.147864 0.881817
vt 0.124080 0.874480
vt 0.960371 0.146448
vt 0.939869 0.084266
vt 0.108904 0.009607
vt 0.101211 0.147246
vt 0.108904 0.990392
vt 0.101211 0.852753
vt 0.977198 0.222215
vt 0.938340 0.230015
vt 0.135299 0.000000
vt 0.124080 0.125519
vt 0.083523 0.961939
vt 0.080134 0.817469
vt 0.989701 0.308658
vt 0.953501 0.287874
vt 0.852136 0.881818
vt 0.039628 0.853553
vt 0.060131 0.915734
vt 0.997400 0.402455
vt 0.964767 0.353885
vt 0.147864 0.118182
vt 0.852136 0.118183
vt 0.022802 0.777784
vt 0.061660 0.769985
vt 1.000000 0.500000
vt 0.971704 0.425511
vt 0.010299 0.691341
vt 0.046499 0.712125
vt 0.974047 0.500000
vt 0.971704 0.574490
vt 0.002600 0.597545
vt 0.035233 0.646114
vt 0.997400 0.597546
vt 0.964767 0.646116
vt -0.000000 0.499999
vt 0.028296 0.574488
vt 0.989701 0.691342
vt 0.953501 0.712127
vt 0.025953 0.499999
vt 0.028296 0.425510
vt 0.977198 0.777785
vt 0.938340 0.769986
vt 0.002600 0.402454
vt 0.035233 0.353884
vt 0.960372 0.853554
vt 0.919866 0.817470
vt 0.010299 0.308657
vt 0.939869 0.915735
vt 0.864701 0.000001
s 1
f 29/1/1 63/2/1 64/3/1
f 17/4/1 16/5/1 49/6/1
f 3/7/1 35/8/1 37/9/1
f 30/10/1 64/3/1 65/11/1
f 1/12/1 17/4/1 50/13/1
f 4/14/1 37/9/1 38/15/1
f 32/16/1 31/17/1 65/11/1
f 18/18/1 53/19/1 52/20/1
f 6/21/1 5/22/1 38/15/1
f 33/23/1 32/16/1 66/24/1
f 19/25/1 52/20/1 54/26/1
f 7/27/1 6/21/1 39/28/1
f 34/29/1 33/23/1 67/30/1
f 20/31/1 54/26/1 55/32/1
f 8/33/1 7/27/1 40/34/1
f 18/18/1 1/12/1 51/35/1
f 22/36/1 21/37/1 55/32/1
f 9/38/1 8/33/1 41/39/1
f 34/29/1 68/40/1 36/41/1
f 23/42/1 22/36/1 56/43/1
f 10/44/1 9/38/1 42/45/1
f 24/46/1 23/42/1 57/47/1
f 10/44/1 43/48/1 44/49/1
f 25/50/1 24/46/1 58/51/1
f 11/52/1 44/49/1 45/53/1
f 26/54/1 25/50/1 59/55/1
f 12/56/1 45/53/1 46/57/1
f 26/54/1 60/58/1 61/59/1
f 13/60/1 46/57/1 47/61/1
f 27/62/1 61/59/1 62/63/1
f 14/64/1 47/61/1 48/65/1
f 28/66/1 62/63/1 63/2/1
f 16/5/1 15/67/1 48/65/1
f 2/68/1 36/41/1 35/8/1
f 29/1/1 64/3/1 30/10/1
f 17/4/1 49/6/1 50/13/1
f 3/7/1 37/9/1 4/14/1
f 30/10/1 65/11/1 31/17/1
f 1/12/1 50/13/1 51/35/1
f 4/14/1 38/15/1 5/22/1
f 32/16/1 65/11/1 66/24/1
f 18/18/1 52/20/1 19/25/1
f 6/21/1 38/15/1 39/28/1
f 33/23/1 66/24/1 67/30/1
f 19/25/1 54/26/1 20/31/1
f 7/27/1 39/28/1 40/34/1
f 34/29/1 67/30/1 68/40/1
f 20/31/1 55/32/1 21/37/1
f 8/33/1 40/34/1 41/39/1
f 18/18/1 51/35/1 53/19/1
f 22/36/1 55/32/1 56/43/1
f 9/38/1 41/39/1 42/45/1
f 34/29/1 36/41/1 2/68/1
f 23/42/1 56/43/1 57/47/1
f 10/44/1 42/45/1 43/48/1
f 24/46/1 57/47/1 58/51/1
f 10/44/1 44/49/1 11/52/1
f 25/50/1 58/51/1 59/55/1
f 11/52/1 45/53/1 12/56/1
f 26/54/1 59/55/1 60/58/1
f 12/56/1 46/57/1 13/60/1
f 26/54/1 61/59/1 27/62/1
f 13/60/1 47/61/1 14/64/1
f 27/62/1 62/63/1 28/66/1
f 14/64/1 48/65/1 15/67/1
f 28/66/1 63/2/1 29/1/1
f 16/5/1 48/65/1 49/6/1
f 2/68/1 35/8/1 3/7/1
f 49/6/1 35/8/1 50/13/1
f 50/13/1 35/8/1 51/35/1
f 51/35/1 36/41/1 53/19/1
f 35/8/1 36/41/1 51/35/1
f 53/19/1 68/40/1 52/20/1
f 52/20/1 67/30/1 54/26/1
f 68/40/1 67/30/1 52/20/1
f 54/26/1 65/11/1 55/32/1
f 55/32/1 64/3/1 56/43/1
f 56/43/1 63/2/1 57/47/1
f 57/47/1 62/63/1 58/51/1
f 58/51/1 62/63/1 59/55/1
f 59/55/1 61/59/1 60/58/1
f 62/63/1 61/59/1 59/55/1
f 62/63/1 57/47/1 63/2/1
f 63/2/1 56/43/1 64/3/1
f 64/3/1 55/32/1 65/11/1
f 65/11/1 54/26/1 66/24/1
f 66/24/1 54/26/1 67/30/1
f 68/40/1 53/19/1 36/41/1
f 35/8/1 49/6/1 37/9/1
f 37/9/1 48/65/1 38/15/1
f 38/15/1 48/65/1 39/28/1
f 39/28/1 47/61/1 40/34/1
f 48/65/1 47/61/1 39/28/1
f 40/34/1 45/53/1 41/39/1
f 41/39/1 44/49/1 42/45/1
f 42/45/1 44/49/1 43/48/1
f 44/49/1 41/39/1 45/53/1
f 45/53/1 40/34/1 46/57/1
f 46/57/1 40/34/1 47/61/1
f 48/65/1 37/9/1 49/6/1
