# Blender 4.1.1
# www.blender.org
o Cube
v -0.350000 0.000000 0.437301
v 0.350000 0.000000 0.437300
v 0.350000 0.004133 0.446280
v -0.350000 0.004133 0.446280
v 0.350000 0.014111 0.450000
v -0.350000 0.014111 0.450000
v -0.350000 0.014111 0.000000
v 0.350000 0.014111 -0.000000
v 0.350000 0.004133 0.003720
v -0.350000 0.004133 0.003720
v 0.350000 0.000000 0.012700
v -0.350000 0.000000 0.012700
v 0.350000 0.060066 0.450000
v -0.350000 0.060066 0.450000
v -0.350000 0.059934 0.000000
v 0.350000 0.059934 -0.000000
vn -0.0000 -0.9768 0.2140
vn -0.0000 -0.6803 0.7329
vn -0.0000 -0.1775 0.9841
vn -0.0000 -0.1775 -0.9841
vn -0.0000 -0.6803 -0.7330
vn -0.0000 -0.9768 -0.2140
vn -0.0000 -0.0000 1.0000
vn -0.0000 -0.0000 -1.0000
vt 1.000000 0.068807
vt 0.000000 0.068807
vt 0.000000 0.000000
vt 1.000000 0.000000
vt 1.000000 0.234921
vt 0.000000 0.234921
vt 0.000000 0.234918
vt 1.000000 0.234918
vt 0.000000 1.000000
vt 1.000000 1.000000
vt 1.000000 0.997805
vt 0.000000 0.997805
s 1
f 10/1/5 9/2/5 11/3/6 12/4/6
f 7/5/4 8/6/4 9/2/5 10/1/5
f 4/1/2 3/2/2 5/7/3 6/8/3
f 1/4/1 2/3/1 3/2/2 4/1/2
f 2/3/1 1/4/1 12/4/6 11/3/6
f 5/7/3 13/9/7 14/10/7 6/8/3
f 7/5/4 15/11/8 16/12/8 8/6/4
