# Blender 5.0.1
# www.blender.org
o note_color.005
v 0.000000 0.360000 0.207177
v 0.000000 0.152823 0.000000
v 0.000000 0.344230 0.127894
v 0.000000 0.299319 0.060681
v 0.000000 0.232106 0.015770
v 0.000000 0.360000 0.292823
v 0.000000 0.232106 0.484230
v 0.000000 0.299319 0.439319
v 0.000000 0.344230 0.372106
v 0.000000 0.100066 0.000000
v 0.000000 0.080068 0.020000
v -2.400000 0.150191 0.020000
v -2.380000 0.152193 0.000000
v -2.400000 0.223894 0.034660
v -2.380000 0.231718 0.015818
v -2.400000 0.284706 0.075294
v -2.380000 0.299135 0.060865
v -2.400000 0.325340 0.136106
v -2.380000 0.344182 0.128282
v -2.380000 0.360000 0.207806
v -2.400000 0.340000 0.209809
v -2.380000 0.231718 0.484182
v -2.400000 0.223894 0.465340
v -2.380000 0.299135 0.439135
v -2.400000 0.284706 0.424706
v -2.380000 0.344182 0.371718
v -2.400000 0.325340 0.363894
v -2.400000 0.340000 0.290191
v -2.380000 0.360000 0.292194
v -2.380000 0.099937 0.000000
v -2.400000 0.079932 0.020000
v -0.800000 0.100023 0.000000
v -1.600000 0.099980 0.000000
v -0.800000 0.080022 0.020000
v -0.800000 0.152613 0.000000
v -1.600000 0.152403 0.000000
v -0.800000 0.231977 0.015786
v -1.600000 0.231847 0.015802
v -0.800000 0.299258 0.060742
v -1.600000 0.299196 0.060804
v -0.800000 0.344214 0.128023
v -1.600000 0.344198 0.128153
v -0.800000 0.360000 0.207387
v -1.600000 0.360000 0.207597
v -0.800000 0.360000 0.292613
v -1.600000 0.360000 0.292403
v -1.600000 0.231847 0.484198
v -0.800000 0.231977 0.484214
v -1.600000 0.299196 0.439196
v -0.800000 0.299258 0.439258
v -1.600000 0.344198 0.371847
v -0.800000 0.344214 0.371977
v 0.000000 0.019914 0.000000
v 0.000000 0.000000 0.019940
v -2.420000 0.000000 0.020060
v -2.420000 0.020035 0.000000
v -2.480000 0.020047 0.500000
v -2.500000 0.020000 0.480000
v -2.480000 0.000000 0.479949
v -2.480000 0.020051 0.000000
v -2.500000 0.020000 0.020000
v -2.480000 0.000000 0.020000
v -2.480000 0.360000 0.292070
v -2.500000 0.340000 0.290078
v -2.480000 0.344172 0.371642
v -2.500000 0.325331 0.363824
v -2.480000 0.299099 0.439099
v -2.500000 0.284673 0.424673
v -2.480000 0.152070 0.500000
v -2.500000 0.150078 0.480000
v -2.480000 0.231642 0.484172
v -2.500000 0.223824 0.465331
v -2.500000 0.340000 0.209922
v -2.480000 0.360000 0.207930
v -2.500000 0.325331 0.136176
v -2.480000 0.344172 0.128358
v -2.500000 0.284673 0.075327
v -2.480000 0.299099 0.060901
v -2.480000 0.152070 0.000000
v -2.500000 0.150078 0.020000
v 0.000000 0.060069 0.000000
v -2.500000 0.223824 0.034669
v -2.480000 0.231642 0.015828
v -2.420000 0.152138 0.000000
v -2.420000 0.231683 0.015823
v -2.420000 0.299119 0.060881
v -2.420000 0.344177 0.128317
v -2.420000 0.360000 0.207862
v -2.420000 0.231683 0.484177
v -2.420000 0.299119 0.439119
v -2.420000 0.344177 0.371683
v -2.420000 0.360000 0.292138
v -2.500000 0.060000 0.480000
v -2.480000 0.060000 0.500000
v -2.500000 0.060000 0.020000
v -2.480000 0.060000 0.000000
v -2.420000 0.059927 0.000000
v -1.600000 0.019995 0.000000
v -0.800000 0.019954 0.000000
v -1.600000 0.000000 0.020020
v -0.800000 0.000000 0.019980
v -1.600000 0.079977 0.020000
v -1.600000 0.059975 0.000000
v -0.800000 0.060022 0.000000
v 2.400000 0.150191 0.020000
v 2.380000 0.152193 0.000000
v 2.400000 0.223894 0.034660
v 2.380000 0.231718 0.015818
v 2.400000 0.284706 0.075294
v 2.380000 0.299135 0.060865
v 2.400000 0.325340 0.136106
v 2.380000 0.344182 0.128282
v 2.380000 0.360000 0.207806
v 2.400000 0.340000 0.209809
v 2.380000 0.231718 0.484182
v 2.400000 0.223894 0.465340
v 2.380000 0.299135 0.439135
v 2.400000 0.284706 0.424706
v 2.380000 0.344182 0.371718
v 2.400000 0.325340 0.363894
v 2.400000 0.340000 0.290191
v 2.380000 0.360000 0.292194
v 2.380000 0.099937 0.000000
v 2.400000 0.079932 0.020000
v 0.800000 0.100023 0.000000
v 1.600000 0.099980 0.000000
v 0.800000 0.080022 0.020000
v 0.800000 0.152613 0.000000
v 1.600000 0.152403 0.000000
v 0.800000 0.231977 0.015786
v 1.600000 0.231847 0.015802
v 0.800000 0.299258 0.060742
v 1.600000 0.299196 0.060804
v 0.800000 0.344214 0.128023
v 1.600000 0.344198 0.128153
v 0.800000 0.360000 0.207387
v 1.600000 0.360000 0.207597
v 0.800000 0.360000 0.292613
v 1.600000 0.360000 0.292403
v 1.600000 0.231847 0.484198
v 0.800000 0.231977 0.484214
v 1.600000 0.299196 0.439196
v 0.800000 0.299258 0.439258
v 1.600000 0.344198 0.371847
v 0.800000 0.344214 0.371977
v 2.420000 0.000000 0.020060
v 2.420000 0.020035 0.000000
v 2.480000 0.020047 0.500000
v 2.500000 0.020000 0.480000
v 2.480000 0.000000 0.479949
v 2.480000 0.020051 0.000000
v 2.500000 0.020000 0.020000
v 2.480000 0.000000 0.020000
v 2.480000 0.360000 0.292070
v 2.500000 0.340000 0.290078
v 2.480000 0.344172 0.371642
v 2.500000 0.325331 0.363824
v 2.480000 0.299099 0.439099
v 2.500000 0.284673 0.424673
v 2.480000 0.152070 0.500000
v 2.500000 0.150078 0.480000
v 2.480000 0.231642 0.484172
v 2.500000 0.223824 0.465331
v 2.500000 0.340000 0.209922
v 2.480000 0.360000 0.207930
v 2.500000 0.325331 0.136176
v 2.480000 0.344172 0.128358
v 2.500000 0.284673 0.075327
v 2.480000 0.299099 0.060901
v 2.480000 0.152070 0.000000
v 2.500000 0.150078 0.020000
v 2.500000 0.223824 0.034669
v 2.480000 0.231642 0.015828
v 2.420000 0.152138 0.000000
v 2.420000 0.231683 0.015823
v 2.420000 0.299119 0.060881
v 2.420000 0.344177 0.128317
v 2.420000 0.360000 0.207862
v 2.420000 0.231683 0.484177
v 2.420000 0.299119 0.439119
v 2.420000 0.344177 0.371683
v 2.420000 0.360000 0.292138
v 2.500000 0.060000 0.480000
v 2.480000 0.060000 0.500000
v 2.500000 0.060000 0.020000
v 2.480000 0.060000 0.000000
v 2.420000 0.059927 0.000000
v 1.600000 0.019995 0.000000
v 0.800000 0.019954 0.000000
v 1.600000 0.000000 0.020020
v 0.800000 0.000000 0.019980
v 1.600000 0.079977 0.020000
v 1.600000 0.059975 0.000000
v 0.800000 0.060022 0.000000
vn -0.0001 0.7071 -0.7071
vn -0.0001 0.9239 -0.3827
vn -0.0000 0.9239 -0.3827
vn -0.0000 0.7071 -0.7071
vn -0.0001 0.5556 0.8315
vn -0.0001 0.7071 0.7071
vn -0.0000 0.9952 -0.0980
vn -0.0000 0.9952 0.0980
vn -0.0001 0.9239 0.3827
vn -0.0001 0.3827 -0.9239
vn -0.0000 0.3827 -0.9239
vn -0.0000 0.0980 -0.9952
vn -0.7089 0.7019 0.0692
vn -0.7089 0.7019 0.0691
vn -0.7141 0.6468 0.2678
vn -0.7141 0.6467 0.2679
vn -0.7142 0.4950 0.4950
vn -0.7073 0.3927 0.5877
vn -0.7141 0.6467 -0.2679
vn -0.7141 0.6468 -0.2678
vn -0.7089 0.7019 -0.0691
vn -0.7089 0.7019 -0.0692
vn -0.7142 0.4950 -0.4950
vn -0.7141 0.2679 -0.6467
vn -0.7141 0.2678 -0.6468
vn -0.7089 0.0692 -0.7019
vn -0.7089 0.0691 -0.7020
vn -0.0000 -0.7071 -0.7072
vn -0.0000 -0.7070 -0.7072
vn -0.7071 -0.0000 -0.7071
vn -0.0000 -0.0000 -1.0000
vn -0.0000 -0.7071 -0.7071
vn -0.0000 0.7071 0.7071
vn -0.0000 0.9239 0.3827
vn -0.0000 0.5556 0.8315
vn -0.0001 0.0981 -0.9952
vn -0.0001 0.0979 -0.9952
vn -0.0003 0.3826 -0.9239
vn -0.0003 0.3828 -0.9239
vn 0.0001 -0.7072 -0.7070
vn 0.0003 -0.7069 -0.7073
vn -0.0005 0.7071 0.7071
vn -0.0005 0.5556 0.8315
vn -0.0005 0.7071 -0.7071
vn -0.0001 0.9952 -0.0981
vn -0.0001 0.9952 -0.0979
vn -0.0001 0.9952 0.0979
vn -0.0001 0.9952 0.0981
vn -0.0003 0.9239 0.3828
vn -0.0003 0.9239 0.3826
vn -0.0003 0.9239 -0.3826
vn -0.0003 0.9239 -0.3828
vn -0.5764 -0.5779 0.5778
vn -0.7071 -0.0000 0.7071
vn -0.7088 0.0691 -0.7020
vn -0.7088 0.0692 -0.7020
vn -0.7071 -0.7071 -0.0000
vn -0.5769 -0.5769 -0.5783
vn -0.7089 0.7020 -0.0692
vn -0.7089 0.7020 -0.0691
vn -0.7089 0.7020 0.0691
vn -0.7089 0.7020 0.0692
vn -0.7141 0.6468 0.2679
vn -0.7141 0.4950 0.4950
vn -0.7141 0.2679 0.6468
vn -0.7089 0.0691 0.7020
vn -0.7089 0.0692 0.7020
vn -0.7141 0.6468 -0.2679
vn -0.7141 0.4950 -0.4950
vn -0.7141 0.2679 -0.6468
vn 0.7088 0.7020 0.0692
vn 0.7088 0.7020 0.0691
vn 0.7138 0.6470 0.2680
vn 0.7138 0.4952 0.4952
vn 0.7069 0.3929 0.5881
vn 0.7138 0.6470 -0.2680
vn 0.7088 0.7020 -0.0691
vn 0.7088 0.7020 -0.0692
vn 0.7138 0.4952 -0.4952
vn 0.7138 0.2680 -0.6470
vn 0.7088 0.0692 -0.7020
vn 0.7088 0.0691 -0.7020
vn -0.0000 0.7070 -0.7072
vn 0.7071 -0.0000 -0.7071
vn -1.0000 -0.0000 -0.0000
vn -0.0000 -0.7076 -0.7067
vn 0.0001 0.7071 -0.7071
vn 0.0001 0.9239 -0.3827
vn 0.0001 0.5556 0.8315
vn 0.0001 0.7071 0.7071
vn 0.0001 0.9239 0.3827
vn 0.0001 0.3827 -0.9239
vn 0.7089 0.7019 0.0692
vn 0.7141 0.6467 0.2679
vn 0.7141 0.6468 0.2678
vn 0.7089 0.7019 0.0691
vn 0.7142 0.4950 0.4950
vn 0.7073 0.3927 0.5877
vn 0.7141 0.6467 -0.2679
vn 0.7089 0.7019 -0.0692
vn 0.7089 0.7019 -0.0691
vn 0.7141 0.6468 -0.2678
vn 0.7142 0.4950 -0.4950
vn 0.7141 0.2679 -0.6467
vn 0.7141 0.2678 -0.6468
vn 0.7089 0.0692 -0.7019
vn 0.7089 0.0691 -0.7020
vn 0.0001 0.0981 -0.9952
vn 0.0003 0.3828 -0.9239
vn 0.0003 0.3826 -0.9239
vn 0.0001 0.0979 -0.9952
vn -0.0001 -0.7072 -0.7070
vn -0.0003 -0.7069 -0.7073
vn 0.0005 0.7071 0.7071
vn 0.0005 0.5556 0.8315
vn 0.0005 0.7071 -0.7071
vn 0.0001 0.9952 -0.0981
vn 0.0001 0.9952 0.0981
vn 0.0001 0.9952 0.0979
vn 0.0001 0.9952 -0.0979
vn 0.0003 0.9239 0.3828
vn 0.0003 0.9239 0.3826
vn 0.0003 0.9239 -0.3828
vn 0.0003 0.9239 -0.3826
vn 0.5764 -0.5779 0.5778
vn 0.7071 -0.0000 0.7071
vn 0.7071 -0.7071 -0.0000
vn 0.5769 -0.5769 -0.5783
vn 0.7089 0.7020 -0.0692
vn 0.7089 0.7020 0.0692
vn 0.7089 0.7020 0.0691
vn 0.7089 0.7020 -0.0691
vn 0.7141 0.6468 0.2679
vn 0.7141 0.4950 0.4950
vn 0.7141 0.2679 0.6468
vn 0.7089 0.0692 0.7020
vn 0.7089 0.0691 0.7020
vn 0.7141 0.6468 -0.2679
vn 0.7141 0.4950 -0.4950
vn 0.7141 0.2679 -0.6468
vn -0.7088 0.7020 0.0692
vn -0.7138 0.6470 0.2680
vn -0.7088 0.7020 0.0691
vn -0.7138 0.4952 0.4952
vn -0.7069 0.3929 0.5881
vn -0.7138 0.6470 -0.2680
vn -0.7088 0.7020 -0.0692
vn -0.7088 0.7020 -0.0691
vn -0.7138 0.4952 -0.4952
vn -0.7138 0.2680 -0.6470
vn 1.0000 -0.0000 -0.0000
vt 0.459111 0.646055
vt 0.459111 0.543414
vt 0.599999 0.543612
vt 0.599999 0.646149
vt 0.307691 0.000049
vt 0.307691 0.068701
vt 0.162049 0.068795
vt 0.162049 0.000073
vt 0.459111 0.422340
vt 0.599999 0.422661
vt 0.459111 0.292322
vt 0.599999 0.292002
vt 0.307691 0.171446
vt 0.307691 0.292642
vt 0.162049 0.292962
vt 0.162049 0.171644
vt 0.459111 0.714638
vt 0.599999 0.714662
vt 0.459112 0.783337
vt 0.459112 0.714776
vt 0.600000 0.714662
vt 0.600000 0.783154
vt 0.129639 0.296018
vt 0.129639 0.183580
vt 0.129639 0.090807
vt 0.129639 0.028818
vt 0.162049 0.543019
vt 0.129639 0.531082
vt 0.129639 0.418644
vt 0.162049 0.421700
vt 0.162049 0.645868
vt 0.129639 0.623855
vt 0.162049 0.714589
vt 0.129643 0.714808
vt 0.162052 0.783704
vt 0.129644 0.807442
vt 0.162055 0.715004
vt 0.307691 0.840059
vt 0.307691 0.883211
vt 0.129642 0.883216
vt 0.162051 0.840063
vt 0.459111 0.840056
vt 0.599999 0.840053
vt 0.307691 0.783520
vt 0.600000 0.883200
vt 0.459111 0.883206
vt 0.307692 0.714890
vt 0.307691 0.645961
vt 0.307691 0.714613
vt 0.599999 0.068513
vt 0.599999 0.171051
vt 0.459111 0.171248
vt 0.459111 0.068607
vt 0.307691 0.422020
vt 0.307691 0.543216
vt 0.599999 0.000000
vt 0.459111 0.000024
vt 0.097232 0.783762
vt 0.000003 0.783831
vt 0.000006 0.715091
vt 0.097235 0.715044
vt 0.097231 0.969488
vt 0.000001 0.969419
vt 0.000000 0.926215
vt 0.097229 0.926236
vt 0.000001 0.883130
vt 0.097230 0.883212
vt 0.097229 0.068820
vt 0.000000 0.068850
vt 0.000000 0.000088
vt 0.097229 0.000080
vt 0.097229 0.714583
vt 0.000000 0.714575
vt 0.000000 0.645813
vt 0.097229 0.645843
vt 0.097229 0.421615
vt 0.000000 0.421512
vt 0.000000 0.293150
vt 0.097229 0.293047
vt 0.097229 0.171696
vt 0.000000 0.171760
vt 0.000000 0.542903
vt 0.097229 0.542966
vt 0.693098 0.000000
vt 0.693055 0.040000
vt 0.675000 0.040102
vt 0.459111 0.926410
vt 0.459111 0.883197
vt 0.599999 0.883189
vt 0.599999 0.926497
vt 0.729167 0.000000
vt 0.729167 0.040000
vt 0.729167 1.000000
vt 0.729167 0.960000
vt 0.810487 0.960000
vt 0.812286 1.000000
vt 0.693055 0.960000
vt 0.675000 0.960000
vt 0.693102 1.000000
vt 1.000000 0.584141
vt 0.981944 0.580156
vt 0.981944 0.419844
vt 1.000000 0.415859
vt 0.968701 0.272352
vt 0.985711 0.256717
vt 0.931996 0.150654
vt 0.945020 0.121802
vt 0.877063 0.069338
vt 0.884121 0.031655
vt 0.810487 0.040000
vt 0.812286 0.000000
vt 0.985711 0.743283
vt 0.968701 0.727648
vt 0.945020 0.878198
vt 0.931996 0.849346
vt 0.884121 0.968345
vt 0.877063 0.930662
vt 0.293175 0.969489
vt 0.293175 1.000000
vt 0.000000 1.000000
vt 0.032410 0.969489
vt 0.459111 0.969489
vt 0.599999 0.969489
vt 0.307691 0.926324
vt 0.307691 0.969489
vt 0.585483 0.969489
vt 0.585483 1.000000
vt 0.444595 1.000000
vt 0.444595 0.969489
vt 0.307691 0.883205
s 1
f 39/1/1 41/2/2 3/3/3 4/4/4
f 47/5/5 49/6/6 24/7/6 22/8/5
f 41/2/2 43/9/7 1/10/7 3/3/3
f 43/9/7 45/11/8 6/12/8 1/10/7
f 51/13/9 46/14/8 29/15/8 26/16/9
f 49/6/6 51/13/9 26/16/9 24/7/6
f 37/17/10 39/1/1 4/4/4 5/18/11
f 35/19/12 37/20/10 5/21/11 2/22/12
f 29/15/13 28/23/14 27/24/15 26/16/16
f 26/16/16 27/24/15 25/25/17 24/7/17
f 24/7/17 25/25/17 23/26/18 22/8/18
f 19/27/19 18/28/20 21/29/21 20/30/22
f 17/31/23 16/32/23 18/28/20 19/27/19
f 15/33/24 14/34/25 16/32/23 17/31/23
f 13/35/26 12/36/27 14/34/25 15/37/24
f 20/30/22 21/29/21 28/23/14 29/15/13
f 33/38/28 102/39/28 31/40/29 30/41/29
f 30/41/30 31/40/30 12/36/27 13/35/26
f 32/42/31 35/19/12 2/22/12 10/43/31
f 30/41/31 13/35/12 36/44/12 33/38/31
f 33/38/31 36/44/12 35/19/12 32/42/31
f 10/43/32 11/45/32 34/46/32 32/42/32
f 32/42/32 34/46/32 102/39/28 33/38/28
f 13/35/12 15/37/10 38/47/10 36/44/12
f 36/44/12 38/47/10 37/20/10 35/19/12
f 15/33/10 17/31/1 40/48/1 38/49/10
f 38/49/10 40/48/1 39/1/1 37/17/10
f 8/50/33 9/51/34 52/52/9 50/53/6
f 50/53/6 52/52/9 51/13/9 49/6/6
f 9/51/34 6/12/8 45/11/8 52/52/9
f 52/52/9 45/11/8 46/14/8 51/13/9
f 20/30/7 29/15/8 46/14/8 44/54/7
f 44/54/7 46/14/8 45/11/8 43/9/7
f 19/27/2 20/30/7 44/54/7 42/55/2
f 42/55/2 44/54/7 43/9/7 41/2/2
f 7/56/35 8/50/33 50/53/6 48/57/5
f 48/57/5 50/53/6 49/6/6 47/5/5
f 17/31/1 19/27/2 42/55/2 40/48/1
f 40/48/1 42/55/2 41/2/2 39/1/1
f 84/58/36 79/59/37 83/60/38 85/61/39
f 55/62/40 62/63/41 60/64/41 56/65/40
f 56/65/31 60/64/31 96/66/31 97/67/31
f 90/68/42 67/69/42 71/70/43 89/71/43
f 85/72/39 83/73/38 78/74/44 86/75/44
f 88/76/45 74/77/46 63/78/47 92/79/48
f 91/80/49 65/81/50 67/69/42 90/68/42
f 97/67/31 96/66/31 79/59/37 84/58/36
f 86/75/44 78/74/44 76/82/51 87/83/52
f 92/79/48 63/78/47 65/81/50 91/80/49
f 87/83/52 76/82/51 74/77/46 88/76/45
f 57/84/53 58/85/53 59/86/53
f 99/87/31 104/88/31 81/89/31 53/90/31
f 94/91/54 93/92/54 58/85/54 57/84/54
f 96/93/30 95/94/30 80/95/55 79/96/56
f 59/86/57 58/85/57 61/97/57 62/98/57
f 62/98/58 61/97/58 60/99/58
f 74/100/59 73/101/60 64/102/61 63/103/62
f 63/103/62 64/102/61 66/104/63 65/105/63
f 65/105/63 66/104/63 68/106/64 67/107/64
f 67/107/64 68/106/64 72/108/65 71/109/65
f 71/109/65 72/108/65 70/110/66 69/111/67
f 76/112/68 75/113/68 73/101/60 74/100/59
f 78/114/69 77/115/69 75/113/68 76/112/68
f 83/116/70 82/117/70 77/115/69 78/114/69
f 79/96/56 80/95/55 82/117/70 83/116/70
f 28/23/71 92/79/72 91/80/73 27/24/73
f 27/24/73 91/80/73 90/68/74 25/25/74
f 25/25/74 90/68/74 89/71/75 23/26/75
f 18/28/76 87/83/76 88/76/77 21/29/78
f 16/32/79 86/75/79 87/83/76 18/28/76
f 14/34/80 85/72/80 86/75/79 16/32/79
f 12/36/81 84/58/82 85/61/80 14/34/80
f 21/29/78 88/76/77 92/79/72 28/23/71
f 69/111/67 70/110/66 93/92/54 94/91/54
f 60/99/30 61/97/30 95/94/30 96/93/30
f 102/118/4 103/119/4 97/120/83 31/121/83
f 31/40/84 97/67/84 84/58/82 12/36/81
f 93/92/85 95/94/85 61/97/85 58/85/85
f 101/122/86 99/87/86 53/90/86 54/123/86
f 70/110/85 80/95/85 95/94/85 93/92/85
f 72/108/85 82/117/85 80/95/85 70/110/85
f 68/106/85 77/115/85 82/117/85 72/108/85
f 66/104/85 75/113/85 77/115/85 68/106/85
f 64/102/85 73/101/85 75/113/85 66/104/85
f 55/62/40 56/65/40 98/124/86 100/125/86
f 100/125/86 98/124/86 99/87/86 101/122/86
f 11/126/4 81/127/4 104/128/4 34/129/4
f 34/129/4 104/128/4 103/119/4 102/118/4
f 56/65/31 97/67/31 103/130/31 98/124/31
f 98/124/31 103/130/31 104/88/31 99/87/31
f 132/1/87 4/4/4 3/3/3 134/2/88
f 140/5/89 115/8/89 117/7/90 142/6/90
f 134/2/88 3/3/3 1/10/7 136/9/7
f 136/9/7 1/10/7 6/12/8 138/11/8
f 144/13/91 119/16/91 122/15/8 139/14/8
f 142/6/90 117/7/90 119/16/91 144/13/91
f 130/17/92 5/18/11 4/4/4 132/1/87
f 128/19/12 2/22/12 5/21/11 130/20/92
f 122/15/93 119/16/94 120/24/95 121/23/96
f 119/16/94 117/7/97 118/25/97 120/24/95
f 117/7/97 115/8/98 116/26/98 118/25/97
f 112/27/99 113/30/100 114/29/101 111/28/102
f 110/31/103 112/27/99 111/28/102 109/32/103
f 108/33/104 110/31/103 109/32/103 107/34/105
f 106/35/106 108/37/104 107/34/105 105/36/107
f 113/30/100 122/15/93 121/23/96 114/29/101
f 126/38/28 123/41/29 124/40/29 192/39/28
f 123/41/84 106/35/106 105/36/107 124/40/84
f 125/42/31 10/43/31 2/22/12 128/19/12
f 123/41/31 126/38/31 129/44/12 106/35/12
f 126/38/31 125/42/31 128/19/12 129/44/12
f 10/43/32 125/42/32 127/46/32 11/45/32
f 125/42/32 126/38/28 192/39/28 127/46/32
f 106/35/12 129/44/12 131/47/92 108/37/92
f 129/44/12 128/19/12 130/20/92 131/47/92
f 108/33/92 131/49/92 133/48/87 110/31/87
f 131/49/92 130/17/92 132/1/87 133/48/87
f 8/50/33 143/53/90 145/52/91 9/51/34
f 143/53/90 142/6/90 144/13/91 145/52/91
f 9/51/34 145/52/91 138/11/8 6/12/8
f 145/52/91 144/13/91 139/14/8 138/11/8
f 113/30/7 137/54/7 139/14/8 122/15/8
f 137/54/7 136/9/7 138/11/8 139/14/8
f 112/27/88 135/55/88 137/54/7 113/30/7
f 135/55/88 134/2/88 136/9/7 137/54/7
f 7/56/35 141/57/89 143/53/90 8/50/33
f 141/57/89 140/5/89 142/6/90 143/53/90
f 110/31/87 133/48/87 135/55/88 112/27/88
f 133/48/87 132/1/87 134/2/88 135/55/88
f 174/58/108 175/61/109 173/60/110 170/59/111
f 146/62/112 147/65/112 151/64/113 153/63/113
f 147/65/31 187/67/31 186/66/31 151/64/31
f 180/68/114 179/71/115 162/70/115 158/69/114
f 175/72/109 176/75/116 169/74/116 173/73/110
f 178/76/117 182/79/118 154/78/119 165/77/120
f 181/80/121 180/68/114 158/69/114 156/81/122
f 187/67/31 174/58/108 170/59/111 186/66/31
f 176/75/116 177/83/123 167/82/124 169/74/116
f 182/79/118 181/80/121 156/81/122 154/78/119
f 177/83/123 178/76/117 165/77/120 167/82/124
f 148/84/125 150/86/125 149/85/125
f 189/87/31 53/90/31 81/89/31 194/88/31
f 184/91/126 148/84/126 149/85/126 183/92/126
f 186/93/84 170/96/81 171/95/82 185/94/84
f 150/86/127 153/98/127 152/97/127 149/85/127
f 153/98/128 151/99/128 152/97/128
f 165/100/129 154/103/130 155/102/131 164/101/132
f 154/103/130 156/105/133 157/104/133 155/102/131
f 156/105/133 158/107/134 159/106/134 157/104/133
f 158/107/134 162/109/135 163/108/135 159/106/134
f 162/109/135 160/111/136 161/110/137 163/108/135
f 167/112/138 165/100/129 164/101/132 166/113/138
f 169/114/139 167/112/138 166/113/138 168/115/139
f 173/116/140 169/114/139 168/115/139 172/117/140
f 170/96/81 173/116/140 172/117/140 171/95/82
f 121/23/141 120/24/142 181/80/142 182/79/143
f 120/24/142 118/25/144 180/68/144 181/80/142
f 118/25/144 116/26/145 179/71/145 180/68/144
f 111/28/146 114/29/147 178/76/148 177/83/146
f 109/32/149 111/28/146 177/83/146 176/75/149
f 107/34/150 109/32/149 176/75/149 175/72/150
f 105/36/56 107/34/150 175/61/150 174/58/55
f 114/29/147 121/23/141 182/79/143 178/76/148
f 160/111/136 184/91/126 183/92/126 161/110/137
f 151/99/84 186/93/84 185/94/84 152/97/84
f 192/118/4 124/121/83 187/120/83 193/119/4
f 124/40/30 105/36/56 174/58/55 187/67/30
f 183/92/151 149/85/151 152/97/151 185/94/151
f 191/122/86 54/123/86 53/90/86 189/87/86
f 161/110/151 183/92/151 185/94/151 171/95/151
f 163/108/151 161/110/151 171/95/151 172/117/151
f 159/106/151 163/108/151 172/117/151 168/115/151
f 157/104/151 159/106/151 168/115/151 166/113/151
f 155/102/151 157/104/151 166/113/151 164/101/151
f 146/62/112 190/125/86 188/124/86 147/65/112
f 190/125/86 191/122/86 189/87/86 188/124/86
f 11/126/4 127/129/4 194/128/4 81/127/4
f 127/129/4 192/118/4 193/119/4 194/128/4
f 147/65/31 188/124/31 193/130/31 187/67/31
f 188/124/31 189/87/31 194/88/31 193/130/31
