# Blender 4.1.1
# www.blender.org
o Cube.019
v 0.150000 0.156189 0.450000
v -0.150000 0.156189 0.450000
v -0.150000 0.156189 0.000000
v 0.150000 0.156189 0.000000
v 0.150000 0.213129 0.443253
v -0.150000 0.213129 0.443253
v 0.150000 0.376189 0.252000
v -0.150000 0.376189 0.252000
v -0.150000 0.368693 0.303246
v 0.150000 0.368693 0.303246
v 0.150000 0.376189 0.198000
v -0.150000 0.376189 0.198000
v 0.150000 0.266189 0.423473
v -0.150000 0.266189 0.423473
v 0.150000 0.311753 0.392007
v -0.150000 0.311753 0.392007
v 0.150000 0.346715 0.351000
v -0.150000 0.346715 0.351000
v 0.150000 0.368693 0.146754
v -0.150000 0.368693 0.146754
v -0.150000 0.213129 0.006747
v 0.150000 0.213129 0.006747
v 0.150000 0.346715 0.099000
v -0.150000 0.346715 0.099000
v 0.150000 0.311753 0.057993
v -0.150000 0.311753 0.057993
v 0.150000 0.266189 0.026527
v -0.150000 0.266189 0.026527
v 0.150000 0.060066 0.450000
v -0.150000 0.060066 0.450000
v -0.150000 0.059934 0.000000
v 0.150000 0.059934 0.000000
v 0.237500 0.156189 -0.000000
v 0.237500 0.368693 0.303246
v 0.237500 0.213129 0.006747
v 0.237500 0.156189 0.450000
v 0.237500 0.213129 0.443253
v 0.237500 0.376189 0.252000
v 0.237500 0.376189 0.198000
v 0.237500 0.266189 0.423473
v 0.237500 0.311753 0.392007
v 0.237500 0.346715 0.351000
v 0.237500 0.368693 0.146754
v 0.237500 0.346715 0.099000
v 0.237500 0.311753 0.057993
v 0.237500 0.266189 0.026527
v 0.237500 0.060066 0.450000
v 0.237500 0.059934 -0.000000
v -0.237500 0.156189 0.450000
v -0.237500 0.213129 0.443253
v -0.237500 0.376189 0.252000
v -0.237500 0.376189 0.198000
v -0.237500 0.266189 0.423473
v -0.237500 0.311753 0.392007
v -0.237500 0.346715 0.351000
v -0.237500 0.368693 0.146754
v -0.237500 0.346715 0.099000
v -0.237500 0.311753 0.057993
v -0.237500 0.266189 0.026527
v -0.237500 0.156189 0.000000
v -0.237500 0.368693 0.303246
v -0.237500 0.213129 0.006747
v -0.237500 0.060066 0.450000
v -0.237500 0.059934 0.000000
vn -0.0000 0.0589 0.9983
vn -0.0000 0.0589 -0.9983
vn -0.0000 0.2352 0.9720
vn -0.0000 0.9974 0.0726
vn -0.0000 0.9587 0.2843
vn -0.0000 0.9974 -0.0726
vn -0.0000 0.4623 0.8867
vn -0.0000 0.6703 0.7421
vn -0.0000 0.8426 0.5385
vn -0.0000 0.9587 -0.2843
vn -0.0000 0.2352 -0.9720
vn -0.0000 0.8426 -0.5385
vn -0.0000 0.6703 -0.7421
vn -0.0000 0.4623 -0.8867
vn -0.0000 -0.0000 1.0000
vn -0.0000 -0.0000 -1.0000
vt 0.000001 0.000000
vt 0.000001 0.106766
vt 0.499679 0.106766
vt 0.499679 0.000000
vt 1.000000 1.000000
vt 1.000000 0.893380
vt 0.500321 0.893380
vt 0.500321 1.000000
vt 1.000000 0.530021
vt 0.500321 0.530021
vt 0.500321 0.587469
vt 1.000000 0.587469
vt 1.000000 0.705550
vt 0.500321 0.705550
vt 0.500321 0.766970
vt 1.000000 0.766970
vt 1.000000 0.645778
vt 0.500321 0.645778
vt 0.000000 0.470125
vt 0.499679 0.470125
vt 0.499679 0.412678
vt 0.000001 0.412678
vt 0.000000 0.530021
vt 0.499679 0.530021
vt 0.499679 0.354368
vt 0.000000 0.354368
vt 0.000001 0.233176
vt 0.499679 0.233176
vt 0.499679 0.170366
vt 0.000001 0.170366
vt 0.000001 0.294596
vt 0.499679 0.294596
vt 0.500321 0.829780
vt 1.000000 0.829780
vt 0.500321 0.000000
vt 0.500321 0.106766
vt 1.000000 0.106766
vt 1.000000 0.000000
vt 0.500321 0.470125
vt 1.000000 0.470125
vt 1.000000 0.412678
vt 0.500321 0.412678
vt 1.000000 0.354368
vt 0.500321 0.354368
vt 0.500321 0.233176
vt 1.000000 0.233176
vt 1.000000 0.170366
vt 0.500321 0.170366
vt 0.500321 0.294596
vt 1.000000 0.294596
vt 0.499679 1.000000
vt 0.499679 0.893380
vt 0.000000 0.893380
vt 0.000000 1.000000
vt 0.000000 0.587469
vt 0.499679 0.587469
vt 0.499679 0.705550
vt 0.000000 0.705550
vt 0.000000 0.766970
vt 0.499679 0.766970
vt 0.499679 0.645778
vt 0.000000 0.645778
vt 0.000000 0.829780
vt 0.499679 0.829780
s 1
f 64/1/16 60/2/2 3/3/2 31/4/16
f 47/5/15 36/6/1 1/7/1 29/8/15
f 38/9/4 7/10/4 10/11/5 34/12/5
f 41/13/8 15/14/8 13/15/7 40/16/7
f 42/17/9 17/18/9 15/14/8 41/13/8
f 34/12/5 10/11/5 17/18/9 42/17/9
f 52/19/6 12/20/6 20/21/10 56/22/10
f 51/23/4 8/24/4 12/20/6 52/19/6
f 56/22/10 20/21/10 24/25/12 57/26/12
f 59/27/14 28/28/14 21/29/11 62/30/11
f 58/31/13 26/32/13 28/28/14 59/27/14
f 57/26/12 24/25/12 26/32/13 58/31/13
f 62/30/11 21/29/11 3/3/2 60/2/2
f 40/16/7 13/15/7 5/33/3 37/34/3
f 37/34/3 5/33/3 1/7/1 36/6/1
f 32/35/16 4/36/2 33/37/2 48/38/16
f 11/39/6 39/40/6 43/41/10 19/42/10
f 7/10/4 38/9/4 39/40/6 11/39/6
f 19/42/10 43/41/10 44/43/12 23/44/12
f 27/45/14 46/46/14 35/47/11 22/48/11
f 25/49/13 45/50/13 46/46/14 27/45/14
f 23/44/12 44/43/12 45/50/13 25/49/13
f 22/48/11 35/47/11 33/37/2 4/36/2
f 30/51/15 2/52/1 49/53/1 63/54/15
f 8/24/4 51/23/4 61/55/5 9/56/5
f 16/57/8 54/58/8 53/59/7 14/60/7
f 18/61/9 55/62/9 54/58/8 16/57/8
f 9/56/5 61/55/5 55/62/9 18/61/9
f 14/60/7 53/59/7 50/63/3 6/64/3
f 6/64/3 50/63/3 49/53/1 2/52/1
