# Blender 4.1.1
# www.blender.org
o Cube.023
v -2.350000 0.000000 0.437301
v 2.350000 0.000000 0.437300
v 2.350000 0.002480 0.446280
v -2.350000 0.002480 0.446281
v 2.350000 0.008466 0.450000
v -2.350000 0.008466 0.450000
v -2.350000 0.008466 0.000000
v 2.350000 0.008466 -0.000000
v 2.350000 0.002480 0.003719
v -2.350000 0.002480 0.003720
v 2.350000 0.000000 0.012699
v -2.350000 0.000000 0.012700
v 2.350000 0.036040 0.450000
v -2.350000 0.036040 0.450000
v -2.350000 0.035960 0.000000
v 2.350000 0.035960 -0.000000
v -1.827778 0.000000 0.437301
v -1.305555 0.000000 0.437301
v -0.783333 0.000000 0.437301
v -0.261111 0.000000 0.437300
v 0.261111 0.000000 0.437300
v 0.783333 0.000000 0.437300
v 1.305556 0.000000 0.437300
v 1.827778 0.000000 0.437300
v 1.827778 0.002480 0.446280
v 1.305556 0.002480 0.446280
v 0.783333 0.002480 0.446280
v 0.261111 0.002480 0.446280
v -0.261111 0.002480 0.446280
v -0.783333 0.002480 0.446281
v -1.305555 0.002480 0.446281
v -1.827778 0.002480 0.446281
v 1.827778 0.008466 0.450000
v 1.305556 0.008466 0.450000
v 0.783333 0.008466 0.450000
v 0.261111 0.008466 0.450000
v -0.261111 0.008466 0.450000
v -0.783333 0.008466 0.450000
v -1.305555 0.008466 0.450000
v -1.827778 0.008466 0.450000
v -1.827778 0.008466 0.000000
v -1.305555 0.008466 0.000000
v -0.783333 0.008466 0.000000
v -0.261111 0.008466 0.000000
v 0.261111 0.008466 -0.000000
v 0.783333 0.008466 -0.000000
v 1.305556 0.008466 -0.000000
v 1.827778 0.008466 -0.000000
v 1.827778 0.002480 0.003719
v 1.305555 0.002480 0.003719
v 0.783333 0.002480 0.003720
v 0.261111 0.002480 0.003720
v -0.261111 0.002480 0.003720
v -0.783333 0.002480 0.003720
v -1.305556 0.002480 0.003720
v -1.827778 0.002480 0.003720
v 1.827778 0.000000 0.012699
v 1.305555 0.000000 0.012699
v 0.783333 0.000000 0.012699
v 0.261111 0.000000 0.012700
v -0.261111 0.000000 0.012700
v -0.783333 0.000000 0.012700
v -1.305556 0.000000 0.012700
v -1.827778 0.000000 0.012700
v 1.827778 0.036040 0.450000
v 1.305556 0.036040 0.450000
v 0.783333 0.036040 0.450000
v 0.261111 0.036040 0.450000
v -0.261111 0.036040 0.450000
v -0.783333 0.036040 0.450000
v -1.305555 0.036040 0.450000
v -1.827778 0.036040 0.450000
v -1.827778 0.035960 0.000000
v -1.305555 0.035960 0.000000
v -0.783333 0.035960 0.000000
v -0.261111 0.035960 0.000000
v 0.261111 0.035960 -0.000000
v 0.783333 0.035960 -0.000000
v 1.305556 0.035960 -0.000000
v 1.827778 0.035960 -0.000000
vn -0.0000 -0.9915 0.1303
vn -0.0000 -0.8398 0.5429
vn -0.0000 -0.2878 0.9577
vn -0.0000 -0.2878 -0.9577
vn -0.0000 -0.8398 -0.5429
vn -0.0000 -0.9915 -0.1303
vn -0.0000 -0.0000 1.0000
vn -0.0000 -0.0000 -1.0000
vt 0.111111 0.068807
vt 0.000000 0.068807
vt 0.000000 0.000000
vt 0.111111 0.000000
vt 0.111111 0.234921
vt 0.000000 0.234921
vt 0.000000 0.234918
vt 0.111111 0.234918
vt 0.111111 0.000000
vt 0.888889 0.000000
vt 1.000000 0.000000
vt 0.888889 0.000000
vt 0.888889 0.234918
vt 0.888894 0.999957
vt 1.000000 1.000000
vt 1.000000 0.234918
vt 0.111111 0.997805
vt 0.000000 0.997805
vt 1.000000 0.234921
vt 1.000000 0.997805
vt 0.888889 0.997805
vt 0.888889 0.234921
vt 0.777778 0.997805
vt 0.777778 0.234921
vt 0.666667 0.997805
vt 0.666667 0.234921
vt 0.555556 0.997805
vt 0.555556 0.234921
vt 0.444444 0.997805
vt 0.444444 0.234921
vt 0.333333 0.997805
vt 0.333333 0.234921
vt 0.222222 0.997805
vt 0.222222 0.234921
vt 0.000000 1.000000
vt 0.111149 0.999957
vt 0.222256 0.999957
vt 0.222222 0.234918
vt 0.333362 0.999957
vt 0.333333 0.234918
vt 0.444468 0.999957
vt 0.444444 0.234918
vt 0.555575 0.999957
vt 0.555556 0.234918
vt 0.666681 0.999957
vt 0.666667 0.234918
vt 0.777787 0.999957
vt 0.777778 0.234918
vt 0.222222 0.000000
vt 0.222222 0.000000
vt 0.333333 0.000000
vt 0.444444 0.000000
vt 0.555556 0.000000
vt 0.666667 0.000000
vt 0.777778 0.000000
vt 0.777778 0.000000
vt 0.888889 0.068807
vt 1.000000 0.068807
vt 0.777778 0.068807
vt 0.666667 0.068807
vt 0.555556 0.068807
vt 0.444444 0.068807
vt 0.333333 0.068807
vt 0.222222 0.068807
vt 0.888889 0.068807
vt 0.777778 0.068807
vt 0.666667 0.068807
vt 0.555556 0.068807
vt 0.444444 0.068807
vt 0.333333 0.068807
s 1
f 49/1/5 9/2/5 11/3/6 57/4/6
f 48/5/4 8/6/4 9/2/5 49/1/5
f 25/1/2 3/2/2 5/7/3 33/8/3
f 24/9/1 2/3/1 3/2/2 25/1/2
f 17/10/1 1/11/1 12/11/6 64/12/6
f 40/13/3 72/14/7 14/15/7 6/16/3
f 48/5/4 80/17/8 16/18/8 8/6/4
f 7/19/4 15/20/8 73/21/8 41/22/4
f 41/22/4 73/21/8 74/23/8 42/24/4
f 42/24/4 74/23/8 75/25/8 43/26/4
f 43/26/4 75/25/8 76/27/8 44/28/4
f 44/28/4 76/27/8 77/29/8 45/30/4
f 45/30/4 77/29/8 78/31/8 46/32/4
f 46/32/4 78/31/8 79/33/8 47/34/4
f 47/34/4 79/33/8 80/17/8 48/5/4
f 5/7/3 13/35/7 65/36/7 33/8/3
f 33/8/3 65/36/7 66/37/7 34/38/3
f 34/38/3 66/37/7 67/39/7 35/40/3
f 35/40/3 67/39/7 68/41/7 36/42/3
f 36/42/3 68/41/7 69/43/7 37/44/3
f 37/44/3 69/43/7 70/45/7 38/46/3
f 38/46/3 70/45/7 71/47/7 39/48/3
f 39/48/3 71/47/7 72/14/7 40/13/3
f 2/3/1 24/9/1 57/4/6 11/3/6
f 24/9/1 23/49/1 58/50/6 57/4/6
f 23/49/1 22/51/1 59/51/6 58/50/6
f 22/51/1 21/52/1 60/52/6 59/51/6
f 21/52/1 20/53/1 61/53/6 60/52/6
f 20/53/1 19/54/1 62/54/6 61/53/6
f 19/54/1 18/55/1 63/56/6 62/54/6
f 18/55/1 17/10/1 64/12/6 63/56/6
f 1/11/1 17/10/1 32/57/2 4/58/2
f 17/10/1 18/55/1 31/59/2 32/57/2
f 18/55/1 19/54/1 30/60/2 31/59/2
f 19/54/1 20/53/1 29/61/2 30/60/2
f 20/53/1 21/52/1 28/62/2 29/61/2
f 21/52/1 22/51/1 27/63/2 28/62/2
f 22/51/1 23/49/1 26/64/2 27/63/2
f 23/49/1 24/9/1 25/1/2 26/64/2
f 4/58/2 32/57/2 40/13/3 6/16/3
f 32/57/2 31/59/2 39/48/3 40/13/3
f 31/59/2 30/60/2 38/46/3 39/48/3
f 30/60/2 29/61/2 37/44/3 38/46/3
f 29/61/2 28/62/2 36/42/3 37/44/3
f 28/62/2 27/63/2 35/40/3 36/42/3
f 27/63/2 26/64/2 34/38/3 35/40/3
f 26/64/2 25/1/2 33/8/3 34/38/3
f 7/19/4 41/22/4 56/65/5 10/58/5
f 41/22/4 42/24/4 55/66/5 56/65/5
f 42/24/4 43/26/4 54/67/5 55/66/5
f 43/26/4 44/28/4 53/68/5 54/67/5
f 44/28/4 45/30/4 52/69/5 53/68/5
f 45/30/4 46/32/4 51/70/5 52/69/5
f 46/32/4 47/34/4 50/64/5 51/70/5
f 47/34/4 48/5/4 49/1/5 50/64/5
f 10/58/5 56/65/5 64/12/6 12/11/6
f 56/65/5 55/66/5 63/56/6 64/12/6
f 55/66/5 54/67/5 62/54/6 63/56/6
f 54/67/5 53/68/5 61/53/6 62/54/6
f 53/68/5 52/69/5 60/52/6 61/53/6
f 52/69/5 51/70/5 59/51/6 60/52/6
f 51/70/5 50/64/5 58/50/6 59/51/6
f 50/64/5 49/1/5 57/4/6 58/50/6
