# Blender 4.1.1
# www.blender.org
o Cube.003
v 2.350000 0.093713 0.450000
v -2.350000 0.093713 0.450000
v -2.350000 0.093713 0.000000
v 2.350000 0.093713 -0.000000
v 2.350000 0.127878 0.443253
v -2.350000 0.127878 0.443254
v 2.350000 0.225713 0.252000
v -2.350000 0.225713 0.252000
v -2.350000 0.221216 0.303247
v 2.350000 0.221216 0.303246
v 2.350000 0.225713 0.198000
v -2.350000 0.225713 0.198000
v 2.350000 0.159713 0.423473
v -2.350000 0.159713 0.423473
v 2.350000 0.187052 0.392007
v -2.350000 0.187052 0.392007
v 2.350000 0.208029 0.351000
v -2.350000 0.208029 0.351000
v 2.350000 0.221216 0.146753
v -2.350000 0.221216 0.146754
v -2.350000 0.127878 0.006747
v 2.350000 0.127878 0.006746
v 2.350000 0.208029 0.099000
v -2.350000 0.208029 0.099000
v 2.350000 0.187052 0.057993
v -2.350000 0.187052 0.057993
v 2.350000 0.159713 0.026527
v -2.350000 0.159713 0.026527
v 2.350000 0.036040 0.450000
v -2.350000 0.036040 0.450000
v -2.350000 0.035960 0.000000
v 2.350000 0.035960 -0.000000
v 1.827778 0.093713 0.450000
v 1.305556 0.093713 0.450000
v 0.783333 0.093713 0.450000
v 0.261111 0.093713 0.450000
v -0.261111 0.093713 0.450000
v -0.783333 0.093713 0.450000
v -1.305555 0.093713 0.450000
v -1.827778 0.093713 0.450000
v -1.827778 0.093713 0.000000
v -1.305555 0.093713 0.000000
v -0.783333 0.093713 0.000000
v -0.261111 0.093713 0.000000
v 0.261111 0.093713 -0.000000
v 0.783333 0.093713 -0.000000
v 1.305556 0.093713 -0.000000
v 1.827778 0.093713 -0.000000
v 1.827778 0.127878 0.443253
v 1.305556 0.127878 0.443253
v 0.783333 0.127878 0.443253
v 0.261111 0.127878 0.443253
v -0.261111 0.127878 0.443253
v -0.783333 0.127878 0.443253
v -1.305555 0.127878 0.443254
v -1.827778 0.127878 0.443254
v 1.827778 0.225713 0.252000
v 1.305555 0.225713 0.252000
v 0.783333 0.225713 0.252000
v 0.261111 0.225713 0.252000
v -0.261111 0.225713 0.252000
v -0.783333 0.225713 0.252000
v -1.305556 0.225713 0.252000
v -1.827778 0.225713 0.252000
v -1.827778 0.221216 0.303246
v -1.305555 0.221216 0.303246
v -0.783333 0.221216 0.303246
v -0.261111 0.221216 0.303246
v 0.261111 0.221216 0.303246
v 0.783333 0.221216 0.303246
v 1.305556 0.221216 0.303246
v 1.827778 0.221216 0.303246
v 1.827778 0.225713 0.198000
v 1.305555 0.225713 0.198000
v 0.783333 0.225713 0.198000
v 0.261111 0.225713 0.198000
v -0.261111 0.225713 0.198000
v -0.783333 0.225713 0.198000
v -1.305556 0.225713 0.198000
v -1.827778 0.225713 0.198000
v 1.827778 0.159713 0.423473
v 1.305556 0.159713 0.423473
v 0.783333 0.159713 0.423473
v 0.261111 0.159713 0.423473
v -0.261111 0.159713 0.423473
v -0.783333 0.159713 0.423473
v -1.305555 0.159713 0.423473
v -1.827778 0.159713 0.423473
v 1.827778 0.187052 0.392007
v 1.305555 0.187052 0.392007
v 0.783333 0.187052 0.392007
v 0.261111 0.187052 0.392007
v -0.261111 0.187052 0.392007
v -0.783333 0.187052 0.392007
v -1.305556 0.187052 0.392007
v -1.827778 0.187052 0.392007
v 1.827778 0.208029 0.351000
v 1.305555 0.208029 0.351000
v 0.783333 0.208029 0.351000
v 0.261111 0.208029 0.351000
v -0.261111 0.208029 0.351000
v -0.783333 0.208029 0.351000
v -1.305556 0.208029 0.351000
v -1.827778 0.208029 0.351000
v 1.827778 0.221216 0.146754
v 1.305555 0.221216 0.146754
v 0.783333 0.221216 0.146754
v 0.261111 0.221216 0.146754
v -0.261111 0.221216 0.146754
v -0.783333 0.221216 0.146754
v -1.305556 0.221216 0.146754
v -1.827778 0.221216 0.146754
v -1.827778 0.127878 0.006747
v -1.305555 0.127878 0.006747
v -0.783333 0.127878 0.006747
v -0.261111 0.127878 0.006747
v 0.261111 0.127878 0.006747
v 0.783333 0.127878 0.006747
v 1.305556 0.127878 0.006747
v 1.827778 0.127878 0.006746
v 1.827778 0.208029 0.099000
v 1.305555 0.208029 0.099000
v 0.783333 0.208029 0.099000
v 0.261111 0.208029 0.099000
v -0.261111 0.208029 0.099000
v -0.783333 0.208029 0.099000
v -1.305556 0.208029 0.099000
v -1.827778 0.208029 0.099000
v 1.827778 0.187052 0.057993
v 1.305555 0.187052 0.057993
v 0.783333 0.187052 0.057993
v 0.261111 0.187052 0.057993
v -0.261111 0.187052 0.057993
v -0.783333 0.187052 0.057993
v -1.305556 0.187052 0.057993
v -1.827778 0.187052 0.057993
v 1.827778 0.159713 0.026527
v 1.305555 0.159713 0.026527
v 0.783333 0.159713 0.026527
v 0.261111 0.159713 0.026527
v -0.261111 0.159713 0.026527
v -0.783333 0.159713 0.026527
v -1.305556 0.159713 0.026527
v -1.827778 0.159713 0.026527
v 1.827778 0.036040 0.450000
v 1.305556 0.036040 0.450000
v 0.783333 0.036040 0.450000
v 0.261111 0.036040 0.450000
v -0.261111 0.036040 0.450000
v -0.783333 0.036040 0.450000
v -1.305555 0.036040 0.450000
v -1.827778 0.036040 0.450000
v -1.827778 0.035960 0.000000
v -1.305555 0.035960 0.000000
v -0.783333 0.035960 0.000000
v -0.261111 0.035960 0.000000
v 0.261111 0.035960 -0.000000
v 0.783333 0.035960 -0.000000
v 1.305556 0.035960 -0.000000
v 1.827778 0.035960 -0.000000
vn -0.0000 0.0979 0.9952
vn -0.0000 0.0979 -0.9952
vn -0.0000 0.3740 0.9274
vn -0.0000 0.9990 0.0436
vn -0.0000 0.9845 0.1752
vn -0.0000 0.9990 -0.0436
vn -0.0000 0.6559 0.7548
vn -0.0000 0.8330 0.5533
vn -0.0000 0.9337 0.3580
vn -0.0000 0.9845 -0.1752
vn -0.0000 0.3740 -0.9274
vn -0.0000 0.9337 -0.3580
vn -0.0000 0.8330 -0.5533
vn -0.0000 0.6559 -0.7548
vn -0.0000 -0.0000 1.0000
vn -0.0000 -0.0000 -1.0000
vt 0.888894 0.999957
vt 0.888898 0.897842
vt 1.000000 0.897842
vt 1.000000 0.999914
vt 0.888898 0.531927
vt 1.000000 0.531927
vt 1.000000 0.592912
vt 0.888898 0.592912
vt 0.888898 0.714884
vt 1.000000 0.714884
vt 1.000000 0.775870
vt 0.888898 0.775870
vt 0.888898 0.653898
vt 1.000000 0.653898
vt 0.111188 0.468213
vt 0.000086 0.468213
vt 0.000086 0.407228
vt 0.111188 0.407228
vt 0.111188 0.531927
vt 0.000086 0.531927
vt 0.000086 0.346242
vt 0.111188 0.346242
vt 0.111188 0.224270
vt 0.000086 0.224270
vt 0.000086 0.163284
vt 0.111188 0.163284
vt 0.111188 0.285256
vt 0.000086 0.285256
vt 0.000086 0.102298
vt 0.111188 0.102298
vt 1.000000 0.836856
vt 0.888898 0.836856
vt 0.111188 0.000086
vt 0.000086 0.000086
vt 1.000000 0.000086
vt 1.000000 0.102298
vt 0.888898 0.102298
vt 0.888898 0.000086
vt 0.777797 0.102298
vt 0.777797 0.000086
vt 0.666695 0.102298
vt 0.666695 0.000086
vt 0.555594 0.102298
vt 0.555594 0.000086
vt 0.444492 0.102298
vt 0.444492 0.000086
vt 0.333391 0.102298
vt 0.333391 0.000086
vt 0.222289 0.102298
vt 0.222289 0.000086
vt 0.000086 0.836856
vt 0.111188 0.836856
vt 0.111188 0.897842
vt 0.000086 0.897842
vt 0.222289 0.836856
vt 0.222289 0.897842
vt 0.333391 0.836856
vt 0.333391 0.897842
vt 0.444492 0.836856
vt 0.444492 0.897842
vt 0.555594 0.836856
vt 0.555594 0.897842
vt 0.666695 0.836856
vt 0.666695 0.897842
vt 0.777797 0.836856
vt 0.777797 0.897842
vt 0.000086 0.775870
vt 0.111188 0.775870
vt 0.222289 0.775870
vt 0.333391 0.775870
vt 0.444492 0.775870
vt 0.555594 0.775870
vt 0.666695 0.775870
vt 0.777797 0.775870
vt 1.000000 0.163284
vt 0.888898 0.163284
vt 0.777797 0.163284
vt 0.666695 0.163284
vt 0.555594 0.163284
vt 0.444492 0.163284
vt 0.333391 0.163284
vt 0.222289 0.163284
vt 1.000000 0.346242
vt 0.888898 0.346242
vt 0.888898 0.285256
vt 1.000000 0.285256
vt 0.777797 0.346242
vt 0.777797 0.285256
vt 0.666695 0.346242
vt 0.666695 0.285256
vt 0.555594 0.346242
vt 0.555594 0.285256
vt 0.444492 0.346242
vt 0.444492 0.285256
vt 0.333391 0.346242
vt 0.333391 0.285256
vt 0.222289 0.346242
vt 0.222289 0.285256
vt 0.888898 0.224270
vt 1.000000 0.224270
vt 0.777797 0.224270
vt 0.666695 0.224270
vt 0.555594 0.224270
vt 0.444492 0.224270
vt 0.333391 0.224270
vt 0.222289 0.224270
vt 1.000000 0.407227
vt 0.888898 0.407227
vt 0.777797 0.407227
vt 0.666695 0.407227
vt 0.555594 0.407227
vt 0.444492 0.407227
vt 0.333391 0.407228
vt 0.222289 0.407228
vt 0.888898 0.468213
vt 1.000000 0.468213
vt 0.777797 0.531927
vt 0.777797 0.468213
vt 0.666695 0.531927
vt 0.666695 0.468213
vt 0.555594 0.531927
vt 0.555594 0.468213
vt 0.444492 0.531927
vt 0.444492 0.468213
vt 0.333391 0.531927
vt 0.333391 0.468213
vt 0.222289 0.531927
vt 0.222289 0.468213
vt 0.000086 0.592912
vt 0.111188 0.592912
vt 0.111188 0.653898
vt 0.000086 0.653898
vt 0.222289 0.592912
vt 0.222289 0.653898
vt 0.333391 0.592912
vt 0.333391 0.653898
vt 0.444492 0.592912
vt 0.444492 0.653898
vt 0.555594 0.592912
vt 0.555594 0.653898
vt 0.666695 0.592912
vt 0.666695 0.653898
vt 0.777797 0.592912
vt 0.777797 0.653898
vt 0.111188 0.714884
vt 0.000086 0.714884
vt 0.222289 0.714884
vt 0.333391 0.714884
vt 0.444492 0.714884
vt 0.555594 0.714884
vt 0.666695 0.714884
vt 0.777797 0.714884
vt 0.000086 0.999914
vt 0.111149 0.999957
vt 0.222256 0.999957
vt 0.333362 0.999957
vt 0.444468 0.999957
vt 0.555575 0.999957
vt 0.666681 0.999957
vt 0.777787 0.999957
s 1
f 152/1/15 40/2/1 2/3/1 30/4/15
f 64/5/4 8/6/4 9/7/5 65/8/5
f 96/9/8 16/10/8 14/11/7 88/12/7
f 104/13/9 18/14/9 16/10/8 96/9/8
f 65/8/5 9/7/5 18/14/9 104/13/9
f 73/15/6 11/16/6 19/17/10 105/18/10
f 57/19/4 7/20/4 11/16/6 73/15/6
f 105/18/10 19/17/10 23/21/12 121/22/12
f 137/23/14 27/24/14 22/25/11 120/26/11
f 129/27/13 25/28/13 27/24/14 137/23/14
f 121/22/12 23/21/12 25/28/13 129/27/13
f 120/26/11 22/25/11 4/29/2 48/30/2
f 88/12/7 14/11/7 6/31/3 56/32/3
f 56/32/3 6/31/3 2/3/1 40/2/1
f 160/33/16 48/30/2 4/29/2 32/34/16
f 31/35/16 3/36/2 41/37/2 153/38/16
f 153/38/16 41/37/2 42/39/2 154/40/16
f 154/40/16 42/39/2 43/41/2 155/42/16
f 155/42/16 43/41/2 44/43/2 156/44/16
f 156/44/16 44/43/2 45/45/2 157/46/16
f 157/46/16 45/45/2 46/47/2 158/48/16
f 158/48/16 46/47/2 47/49/2 159/50/16
f 159/50/16 47/49/2 48/30/2 160/33/16
f 5/51/3 49/52/3 33/53/1 1/54/1
f 49/52/3 50/55/3 34/56/1 33/53/1
f 50/55/3 51/57/3 35/58/1 34/56/1
f 51/57/3 52/59/3 36/60/1 35/58/1
f 52/59/3 53/61/3 37/62/1 36/60/1
f 53/61/3 54/63/3 38/64/1 37/62/1
f 54/63/3 55/65/3 39/66/1 38/64/1
f 55/65/3 56/32/3 40/2/1 39/66/1
f 13/67/7 81/68/7 49/52/3 5/51/3
f 81/68/7 82/69/7 50/55/3 49/52/3
f 82/69/7 83/70/7 51/57/3 50/55/3
f 83/70/7 84/71/7 52/59/3 51/57/3
f 84/71/7 85/72/7 53/61/3 52/59/3
f 85/72/7 86/73/7 54/63/3 53/61/3
f 86/73/7 87/74/7 55/65/3 54/63/3
f 87/74/7 88/12/7 56/32/3 55/65/3
f 21/75/11 113/76/11 41/37/2 3/36/2
f 113/76/11 114/77/11 42/39/2 41/37/2
f 114/77/11 115/78/11 43/41/2 42/39/2
f 115/78/11 116/79/11 44/43/2 43/41/2
f 116/79/11 117/80/11 45/45/2 44/43/2
f 117/80/11 118/81/11 46/47/2 45/45/2
f 118/81/11 119/82/11 47/49/2 46/47/2
f 119/82/11 120/26/11 48/30/2 47/49/2
f 24/83/12 128/84/12 136/85/13 26/86/13
f 128/84/12 127/87/12 135/88/13 136/85/13
f 127/87/12 126/89/12 134/90/13 135/88/13
f 126/89/12 125/91/12 133/92/13 134/90/13
f 125/91/12 124/93/12 132/94/13 133/92/13
f 124/93/12 123/95/12 131/96/13 132/94/13
f 123/95/12 122/97/12 130/98/13 131/96/13
f 122/97/12 121/22/12 129/27/13 130/98/13
f 26/86/13 136/85/13 144/99/14 28/100/14
f 136/85/13 135/88/13 143/101/14 144/99/14
f 135/88/13 134/90/13 142/102/14 143/101/14
f 134/90/13 133/92/13 141/103/14 142/102/14
f 133/92/13 132/94/13 140/104/14 141/103/14
f 132/94/13 131/96/13 139/105/14 140/104/14
f 131/96/13 130/98/13 138/106/14 139/105/14
f 130/98/13 129/27/13 137/23/14 138/106/14
f 28/100/14 144/99/14 113/76/11 21/75/11
f 144/99/14 143/101/14 114/77/11 113/76/11
f 143/101/14 142/102/14 115/78/11 114/77/11
f 142/102/14 141/103/14 116/79/11 115/78/11
f 141/103/14 140/104/14 117/80/11 116/79/11
f 140/104/14 139/105/14 118/81/11 117/80/11
f 139/105/14 138/106/14 119/82/11 118/81/11
f 138/106/14 137/23/14 120/26/11 119/82/11
f 20/107/10 112/108/10 128/84/12 24/83/12
f 112/108/10 111/109/10 127/87/12 128/84/12
f 111/109/10 110/110/10 126/89/12 127/87/12
f 110/110/10 109/111/10 125/91/12 126/89/12
f 109/111/10 108/112/10 124/93/12 125/91/12
f 108/112/10 107/113/10 123/95/12 124/93/12
f 107/113/10 106/114/10 122/97/12 123/95/12
f 106/114/10 105/18/10 121/22/12 122/97/12
f 8/6/4 64/5/4 80/115/6 12/116/6
f 64/5/4 63/117/4 79/118/6 80/115/6
f 63/117/4 62/119/4 78/120/6 79/118/6
f 62/119/4 61/121/4 77/122/6 78/120/6
f 61/121/4 60/123/4 76/124/6 77/122/6
f 60/123/4 59/125/4 75/126/6 76/124/6
f 59/125/4 58/127/4 74/128/6 75/126/6
f 58/127/4 57/19/4 73/15/6 74/128/6
f 12/116/6 80/115/6 112/108/10 20/107/10
f 80/115/6 79/118/6 111/109/10 112/108/10
f 79/118/6 78/120/6 110/110/10 111/109/10
f 78/120/6 77/122/6 109/111/10 110/110/10
f 77/122/6 76/124/6 108/112/10 109/111/10
f 76/124/6 75/126/6 107/113/10 108/112/10
f 75/126/6 74/128/6 106/114/10 107/113/10
f 74/128/6 73/15/6 105/18/10 106/114/10
f 10/129/5 72/130/5 97/131/9 17/132/9
f 72/130/5 71/133/5 98/134/9 97/131/9
f 71/133/5 70/135/5 99/136/9 98/134/9
f 70/135/5 69/137/5 100/138/9 99/136/9
f 69/137/5 68/139/5 101/140/9 100/138/9
f 68/139/5 67/141/5 102/142/9 101/140/9
f 67/141/5 66/143/5 103/144/9 102/142/9
f 66/143/5 65/8/5 104/13/9 103/144/9
f 17/132/9 97/131/9 89/145/8 15/146/8
f 97/131/9 98/134/9 90/147/8 89/145/8
f 98/134/9 99/136/9 91/148/8 90/147/8
f 99/136/9 100/138/9 92/149/8 91/148/8
f 100/138/9 101/140/9 93/150/8 92/149/8
f 101/140/9 102/142/9 94/151/8 93/150/8
f 102/142/9 103/144/9 95/152/8 94/151/8
f 103/144/9 104/13/9 96/9/8 95/152/8
f 15/146/8 89/145/8 81/68/7 13/67/7
f 89/145/8 90/147/8 82/69/7 81/68/7
f 90/147/8 91/148/8 83/70/7 82/69/7
f 91/148/8 92/149/8 84/71/7 83/70/7
f 92/149/8 93/150/8 85/72/7 84/71/7
f 93/150/8 94/151/8 86/73/7 85/72/7
f 94/151/8 95/152/8 87/74/7 86/73/7
f 95/152/8 96/9/8 88/12/7 87/74/7
f 7/20/4 57/19/4 72/130/5 10/129/5
f 57/19/4 58/127/4 71/133/5 72/130/5
f 58/127/4 59/125/4 70/135/5 71/133/5
f 59/125/4 60/123/4 69/137/5 70/135/5
f 60/123/4 61/121/4 68/139/5 69/137/5
f 61/121/4 62/119/4 67/141/5 68/139/5
f 62/119/4 63/117/4 66/143/5 67/141/5
f 63/117/4 64/5/4 65/8/5 66/143/5
f 29/153/15 1/54/1 33/53/1 145/154/15
f 145/154/15 33/53/1 34/56/1 146/155/15
f 146/155/15 34/56/1 35/58/1 147/156/15
f 147/156/15 35/58/1 36/60/1 148/157/15
f 148/157/15 36/60/1 37/62/1 149/158/15
f 149/158/15 37/62/1 38/64/1 150/159/15
f 150/159/15 38/64/1 39/66/1 151/160/15
f 151/160/15 39/66/1 40/2/1 152/1/15
