# Blender 4.0.2
# www.blender.org
mtllib multcircle_fill.mtl
o Multiplier.001
v -0.071852 -0.124376 -0.339137
v 0.000000 -0.126812 -0.345781
v -0.140943 -0.117159 -0.319460
v -0.204617 -0.105441 -0.287507
v -0.260429 -0.089670 -0.244504
v -0.306231 -0.070453 -0.192106
v -0.340266 -0.048529 -0.132325
v -0.361225 -0.024740 -0.067459
v -0.368302 -0.000000 0.000000
v -0.361225 0.024740 0.067459
v -0.340266 0.048529 0.132325
v -0.306232 0.070453 0.192106
v -0.260429 0.089670 0.244504
v -0.204617 0.105441 0.287507
v -0.140943 0.117159 0.319460
v -0.071852 0.124376 0.339137
v 0.000000 0.126812 0.345781
v 0.071852 0.124376 0.339137
v 0.140943 0.117159 0.319460
v 0.204617 0.105441 0.287507
v 0.260429 0.089670 0.244504
v 0.306231 0.070453 0.192106
v 0.340266 0.048529 0.132325
v 0.361225 0.024740 0.067459
v 0.368302 -0.000000 0.000000
v 0.361225 -0.024740 -0.067459
v 0.340266 -0.048529 -0.132325
v 0.306231 -0.070453 -0.192106
v 0.260429 -0.089670 -0.244504
v 0.204617 -0.105441 -0.287507
v 0.140943 -0.117159 -0.319460
v 0.071852 -0.124376 -0.339137
v -0.061531 -0.106509 -0.290421
v 0.000000 -0.108596 -0.296111
v -0.120697 -0.100330 -0.273570
v -0.175225 -0.090294 -0.246207
v -0.223019 -0.076789 -0.209382
v -0.262242 -0.060333 -0.164510
v -0.291388 -0.041558 -0.113317
v -0.309336 -0.021186 -0.057768
v -0.315396 -0.000000 0.000000
v -0.309336 0.021186 0.057768
v -0.291388 0.041558 0.113317
v -0.262242 0.060333 0.164510
v -0.223019 0.076789 0.209382
v -0.175225 0.090294 0.246207
v -0.120697 0.100330 0.273570
v -0.061531 0.106509 0.290421
v 0.000000 0.108596 0.296111
v 0.061531 0.106509 0.290421
v 0.120697 0.100330 0.273570
v 0.175225 0.090294 0.246207
v 0.223019 0.076789 0.209382
v 0.262242 0.060333 0.164510
v 0.291388 0.041558 0.113317
v 0.309336 0.021186 0.057768
v 0.315396 -0.000000 0.000000
v 0.309336 -0.021186 -0.057768
v 0.291388 -0.041558 -0.113317
v 0.262242 -0.060333 -0.164510
v 0.223019 -0.076789 -0.209382
v 0.175225 -0.090294 -0.246207
v 0.120697 -0.100330 -0.273570
v 0.061531 -0.106509 -0.290421
vn -0.0000 0.9389 -0.3443
vn 0.0012 0.9378 -0.3472
vn 0.0017 0.9379 -0.3468
vn 0.0006 0.9377 -0.3475
vn -0.0001 0.9373 -0.3485
vn -0.0023 0.9356 -0.3531
vn -0.0033 0.9375 -0.3479
vn -0.0127 0.9423 -0.3345
vn -0.0033 0.9370 -0.3493
vn -0.0068 0.9374 -0.3483
vn -0.0027 0.9385 -0.3452
vn -0.0028 0.9387 -0.3447
vn -0.0029 0.9389 -0.3442
vn -0.0028 0.9391 -0.3437
vn -0.0027 0.9393 -0.3432
vn -0.0024 0.9394 -0.3427
vn -0.0022 0.9396 -0.3423
vn -0.0016 0.9397 -0.3421
vn -0.0012 0.9398 -0.3418
vn -0.0007 0.9398 -0.3416
vn -0.0001 0.9399 -0.3415
vn 0.0004 0.9398 -0.3416
vn 0.0010 0.9398 -0.3417
vn 0.0048 0.9414 -0.3372
vn 0.0062 0.9401 -0.3407
vn 0.0081 0.9334 -0.3588
vn 0.0044 0.9401 -0.3407
vn 0.0098 0.9396 -0.3421
vn 0.0046 0.9389 -0.3442
vn 0.0033 0.9387 -0.3448
vn 0.0031 0.9384 -0.3455
vn 0.0028 0.9382 -0.3460
vn 0.0033 0.9390 -0.3440
vt 0.467410 0.644056
vt 0.435477 0.644056
vt 0.435477 0.518079
vt 0.467410 0.518079
vt 0.404286 0.644056
vt 0.404286 0.518079
vt 0.373803 0.644056
vt 0.373803 0.518079
vt 0.343896 0.644056
vt 0.343896 0.518079
vt 0.314362 0.644056
vt 0.314362 0.518079
vt 0.284956 0.644056
vt 0.284956 0.518079
vt 0.255420 0.644056
vt 0.255420 0.518079
vt 0.225511 0.644056
vt 0.225510 0.518079
vt 0.195024 0.644056
vt 0.195024 0.518079
vt 0.163829 0.644056
vt 0.163829 0.518079
vt 0.131892 0.644056
vt 0.131892 0.518079
vt 0.099299 0.644056
vt 0.099299 0.518079
vt 0.066253 0.644056
vt 0.066252 0.518079
vt 0.033045 0.644056
vt 0.033044 0.518079
vt 0.000000 0.644056
vt 0.000000 0.518079
vt 1.000000 0.644056
vt 0.967410 0.644056
vt 0.967410 0.518079
vt 1.000000 0.518079
vt 0.935477 0.644056
vt 0.935477 0.518079
vt 0.904286 0.644056
vt 0.904286 0.518079
vt 0.873803 0.644056
vt 0.873803 0.518079
vt 0.843896 0.644056
vt 0.843896 0.518079
vt 0.814362 0.644056
vt 0.814362 0.518079
vt 0.784956 0.644056
vt 0.784956 0.518079
vt 0.755420 0.644056
vt 0.755420 0.518079
vt 0.725511 0.644056
vt 0.725511 0.518079
vt 0.695024 0.644056
vt 0.695024 0.518079
vt 0.663829 0.644056
vt 0.663829 0.518079
vt 0.631892 0.644056
vt 0.631892 0.518079
vt 0.599299 0.644056
vt 0.599299 0.518079
vt 0.566253 0.644056
vt 0.566253 0.518079
vt 0.533045 0.644056
vt 0.533045 0.518079
vt 0.500000 0.644056
vt 0.500000 0.518079
s 1
usemtl Multiplier_Fill
f 1/1/1 3/2/1 35/3/2 33/4/3
f 3/2/1 4/5/1 36/6/4 35/3/2
f 4/5/1 5/7/1 37/8/5 36/6/4
f 5/7/1 6/9/1 38/10/6 37/8/5
f 6/9/1 7/11/1 39/12/7 38/10/6
f 7/11/1 8/13/1 40/14/8 39/12/7
f 8/13/1 9/15/1 41/16/9 40/14/8
f 9/15/1 10/17/1 42/18/10 41/16/9
f 10/17/1 11/19/1 43/20/11 42/18/10
f 11/19/1 12/21/1 44/22/12 43/20/11
f 12/21/1 13/23/1 45/24/13 44/22/12
f 13/23/1 14/25/1 46/26/14 45/24/13
f 14/25/1 15/27/1 47/28/15 46/26/14
f 15/27/1 16/29/1 48/30/16 47/28/15
f 16/29/1 17/31/1 49/32/17 48/30/16
f 17/33/1 18/34/1 50/35/18 49/36/17
f 18/34/1 19/37/1 51/38/19 50/35/18
f 19/37/1 20/39/1 52/40/20 51/38/19
f 20/39/1 21/41/1 53/42/21 52/40/20
f 21/41/1 22/43/1 54/44/22 53/42/21
f 22/43/1 23/45/1 55/46/23 54/44/22
f 23/45/1 24/47/1 56/48/24 55/46/23
f 24/47/1 25/49/1 57/50/25 56/48/24
f 25/49/1 26/51/1 58/52/26 57/50/25
f 26/51/1 27/53/1 59/54/27 58/52/26
f 27/53/1 28/55/1 60/56/28 59/54/27
f 28/55/1 29/57/1 61/58/29 60/56/28
f 29/57/1 30/59/1 62/60/30 61/58/29
f 30/59/1 31/61/1 63/62/31 62/60/30
f 31/61/1 32/63/1 64/64/32 63/62/31
f 32/63/1 2/65/1 34/66/33 64/64/32
f 34/66/33 2/65/1 1/1/1 33/4/3
