# Blender 4.1.1
# www.blender.org
o Overdrive_Background
v -2.106329 0.082072 0.632384
v -2.128840 0.082072 0.626266
v -2.149586 0.082072 0.616330
v -2.167771 0.082072 0.602958
v -2.182694 0.082072 0.586665
v -2.193783 0.082072 0.568076
v -2.200612 0.082072 0.547906
v -2.202918 0.082072 0.526930
v -2.200612 0.082072 0.505954
v -2.193783 0.082072 0.485784
v -2.182694 0.082072 0.467195
v -2.167771 0.082072 0.450902
v -2.149586 0.082072 0.437530
v -2.128840 0.082072 0.427594
v -2.106329 0.082072 0.421476
v 2.106329 0.082072 0.421476
v 2.128840 0.082072 0.427594
v 2.149586 0.082072 0.437530
v 2.167771 0.082072 0.450902
v 2.182694 0.082072 0.467195
v 2.193783 0.082072 0.485784
v 2.200612 0.082072 0.505954
v 2.202918 0.082072 0.526930
v 2.200612 0.082072 0.547906
v 2.193783 0.082072 0.568076
v 2.182694 0.082072 0.586665
v 2.167771 0.082072 0.602958
v 2.149586 0.082072 0.616330
v 2.128840 0.082072 0.626266
v 2.106329 0.082072 0.632384
v -2.100395 0.082072 0.582621
v 2.100395 0.082072 0.582621
v 2.113458 0.082072 0.579781
v 2.127256 0.082072 0.574494
v 2.139349 0.082072 0.567380
v 2.149274 0.082072 0.558712
v 2.156649 0.082072 0.548821
v 2.161191 0.082072 0.538090
v 2.162724 0.082072 0.526930
v 2.161191 0.082072 0.515770
v 2.156649 0.082072 0.505038
v 2.149274 0.082072 0.495148
v 2.139349 0.082072 0.486480
v 2.127256 0.082072 0.479366
v 2.113458 0.082072 0.474079
v 2.100395 0.082072 0.471239
v -2.100395 0.082072 0.471239
v -2.113458 0.082072 0.474079
v -2.127256 0.082072 0.479366
v -2.139349 0.082072 0.486480
v -2.149274 0.082072 0.495148
v -2.156649 0.082072 0.505038
v -2.161191 0.082072 0.515770
v -2.162724 0.082072 0.526930
v -2.161191 0.082072 0.538090
v -2.156649 0.082072 0.548821
v -2.149274 0.082072 0.558712
v -2.139349 0.082072 0.567380
v -2.127256 0.082072 0.574494
v -2.113458 0.082072 0.579781
v -2.202918 0.082072 0.526930
v -2.162724 0.082072 0.526930
v 2.202918 0.082072 0.526930
v 2.162724 0.082072 0.526930
v -1.600066 0.082072 0.421476
v 1.600066 0.082072 0.421476
v 1.599981 0.082072 0.627580
v -1.599982 0.082072 0.587302
v 1.600066 0.082072 0.471239
v -1.600066 0.082072 0.471239
v -1.600066 0.082072 0.582621
v 1.600065 0.082072 0.582621
v -1.600066 0.082072 0.632384
v 1.600066 0.082072 0.632384
v -1.599981 0.082072 0.426227
v 1.599982 0.082072 0.466505
v 0.000000 0.082072 0.421476
v 0.000000 0.082072 0.471239
v 0.000000 0.082072 0.446393
v -0.000000 0.082072 0.607467
v -0.000000 0.082072 0.582621
v 0.000000 0.082072 0.632384
v 1.000000 0.082072 0.582621
v 1.000000 0.082072 0.632384
v 1.000000 0.082072 0.613382
v 1.000000 0.082072 0.421476
v 1.000000 0.082072 0.452307
v 1.000000 0.082072 0.471239
v -1.000006 0.082072 0.471239
v -1.000006 0.082072 0.421476
v -0.999998 0.082072 0.439053
v -0.999998 0.082072 0.600128
v -1.000007 0.082072 0.582621
v -1.000006 0.082072 0.632384
v -0.500003 0.082072 0.421476
v -0.499999 0.082072 0.442723
v -0.500003 0.082072 0.471239
v -0.500003 0.082072 0.582621
v -0.500003 0.082072 0.632384
v -0.499999 0.082072 0.603798
v 0.500000 0.082072 0.610425
v 0.500000 0.082072 0.582621
v 0.500000 0.082072 0.632384
v 0.500000 0.082072 0.471239
v 0.500000 0.082072 0.421476
v 0.500000 0.082072 0.449350
vn -0.0000 1.0000 -0.0000
vt 0.796822 0.014612
vt 0.783419 0.022335
vt 0.787796 0.014612
vt 0.841844 0.028269
vt 0.842013 0.094612
vt 0.883337 0.050447
vt 0.857510 0.102537
vt 0.919706 0.080294
vt 0.878280 0.117287
vt 0.949553 0.116663
vt 0.898656 0.137137
vt 0.971731 0.158156
vt 0.916264 0.161324
vt 0.985388 0.203178
vt 0.929685 0.188919
vt 0.990000 0.250000
vt 0.938057 0.218861
vt 0.938057 0.281139
vt 0.940899 0.250000
vt 0.985388 0.296822
vt 0.929685 0.311081
vt 0.971731 0.341844
vt 0.916264 0.338676
vt 0.949553 0.383337
vt 0.898656 0.362863
vt 0.919706 0.419706
vt 0.878280 0.382713
vt 0.883337 0.449553
vt 0.857510 0.397463
vt 0.841844 0.471731
vt 0.842013 0.405388
vt 0.703178 0.485388
vt 0.716434 0.477749
vt 0.712105 0.485388
vt 0.658156 0.471731
vt 0.657987 0.405388
vt 0.616663 0.449553
vt 0.642490 0.397463
vt 0.580294 0.419706
vt 0.621720 0.382713
vt 0.550447 0.383337
vt 0.601344 0.362863
vt 0.528269 0.341844
vt 0.583736 0.338676
vt 0.514612 0.296822
vt 0.570315 0.311081
vt 0.510000 0.250000
vt 0.561943 0.281139
vt 0.561943 0.218861
vt 0.559101 0.250000
vt 0.514612 0.203178
vt 0.570315 0.188919
vt 0.528269 0.158156
vt 0.583736 0.161324
vt 0.550447 0.116663
vt 0.601344 0.137137
vt 0.580294 0.080294
vt 0.621720 0.117287
vt 0.616663 0.050447
vt 0.642490 0.102537
vt 0.658156 0.028269
vt 0.657987 0.094612
vt 0.824486 0.094612
vt 0.796822 0.485388
vt 0.675319 0.405388
vt 0.703178 0.014612
vt 0.761115 0.485388
vt 0.789195 0.435823
vt 0.828806 0.412998
vt 0.787796 0.485388
vt 0.771904 0.405388
vt 0.824486 0.405388
vt 0.736207 0.014612
vt 0.706829 0.066468
vt 0.671047 0.087086
vt 0.712105 0.014612
vt 0.722819 0.094612
vt 0.675319 0.094612
vt 0.762455 0.451231
vt 0.736409 0.405388
vt 0.750000 0.405388
vt 0.772693 0.445332
vt 0.743104 0.485388
vt 0.750000 0.485388
vt 0.735557 0.049914
vt 0.760952 0.094612
vt 0.750000 0.094612
vt 0.727306 0.054668
vt 0.755557 0.014612
vt 0.750000 0.014612
vt 0.743808 0.045160
vt 0.761115 0.014612
vt 0.771904 0.094612
vt 0.780944 0.440577
vt 0.760952 0.405388
vt 0.755557 0.485388
vt 0.752216 0.457131
vt 0.736207 0.485388
vt 0.722819 0.405388
vt 0.717068 0.060568
vt 0.736409 0.094612
vt 0.743104 0.014612
s 1
f 30/1/1 67/2/1 74/3/1
f 29/4/1 32/5/1 30/1/1
f 28/6/1 33/7/1 29/4/1
f 27/8/1 34/9/1 28/6/1
f 26/10/1 35/11/1 27/8/1
f 25/12/1 36/13/1 26/10/1
f 24/14/1 37/15/1 25/12/1
f 63/16/1 38/17/1 24/14/1
f 23/16/1 40/18/1 64/19/1
f 22/20/1 41/21/1 40/18/1
f 21/22/1 42/23/1 41/21/1
f 20/24/1 43/25/1 42/23/1
f 19/26/1 44/27/1 43/25/1
f 18/28/1 45/29/1 44/27/1
f 17/30/1 46/31/1 45/29/1
f 15/32/1 75/33/1 65/34/1
f 14/35/1 47/36/1 15/32/1
f 13/37/1 48/38/1 14/35/1
f 12/39/1 49/40/1 13/37/1
f 11/41/1 50/42/1 12/39/1
f 10/43/1 51/44/1 11/41/1
f 9/45/1 52/46/1 10/43/1
f 61/47/1 53/48/1 9/45/1
f 8/47/1 55/49/1 62/50/1
f 7/51/1 56/52/1 55/49/1
f 6/53/1 57/54/1 56/52/1
f 5/55/1 58/56/1 57/54/1
f 4/57/1 59/58/1 58/56/1
f 3/59/1 60/60/1 59/58/1
f 2/61/1 31/62/1 60/60/1
f 30/1/1 32/5/1 72/63/1 67/2/1
f 29/4/1 33/7/1 32/5/1
f 28/6/1 34/9/1 33/7/1
f 27/8/1 35/11/1 34/9/1
f 26/10/1 36/13/1 35/11/1
f 25/12/1 37/15/1 36/13/1
f 24/14/1 38/17/1 37/15/1
f 63/16/1 39/19/1 38/17/1
f 23/16/1 22/20/1 40/18/1
f 22/20/1 21/22/1 41/21/1
f 21/22/1 20/24/1 42/23/1
f 20/24/1 19/26/1 43/25/1
f 19/26/1 18/28/1 44/27/1
f 18/28/1 17/30/1 45/29/1
f 17/30/1 16/64/1 46/31/1
f 15/32/1 47/36/1 70/65/1 75/33/1
f 14/35/1 48/38/1 47/36/1
f 13/37/1 49/40/1 48/38/1
f 12/39/1 50/42/1 49/40/1
f 11/41/1 51/44/1 50/42/1
f 10/43/1 52/46/1 51/44/1
f 9/45/1 53/48/1 52/46/1
f 61/47/1 54/50/1 53/48/1
f 8/47/1 7/51/1 55/49/1
f 7/51/1 6/53/1 56/52/1
f 6/53/1 5/55/1 57/54/1
f 5/55/1 4/57/1 58/56/1
f 4/57/1 3/59/1 59/58/1
f 3/59/1 2/61/1 60/60/1
f 2/61/1 1/66/1 31/62/1
f 86/67/1 87/68/1 76/69/1 66/70/1
f 66/70/1 76/69/1 46/31/1 16/64/1
f 87/68/1 88/71/1 69/72/1 76/69/1
f 76/69/1 69/72/1 46/31/1
f 94/73/1 92/74/1 68/75/1 73/76/1
f 73/76/1 68/75/1 31/62/1 1/66/1
f 92/74/1 93/77/1 71/78/1 68/75/1
f 68/75/1 71/78/1 31/62/1
f 96/79/1 97/80/1 78/81/1 79/82/1
f 95/83/1 96/79/1 79/82/1 77/84/1
f 101/85/1 102/86/1 81/87/1 80/88/1
f 103/89/1 101/85/1 80/88/1 82/90/1
f 74/3/1 67/2/1 85/91/1 84/92/1
f 67/2/1 72/63/1 83/93/1 85/91/1
f 106/94/1 104/95/1 88/71/1 87/68/1
f 105/96/1 106/94/1 87/68/1 86/67/1
f 65/34/1 75/33/1 91/97/1 90/98/1
f 75/33/1 70/65/1 89/99/1 91/97/1
f 100/100/1 98/101/1 93/77/1 92/74/1
f 99/102/1 100/100/1 92/74/1 94/73/1
f 90/98/1 91/97/1 96/79/1 95/83/1
f 91/97/1 89/99/1 97/80/1 96/79/1
f 82/90/1 80/88/1 100/100/1 99/102/1
f 80/88/1 81/87/1 98/101/1 100/100/1
f 84/92/1 85/91/1 101/85/1 103/89/1
f 85/91/1 83/93/1 102/86/1 101/85/1
f 77/84/1 79/82/1 106/94/1 105/96/1
f 79/82/1 78/81/1 104/95/1 106/94/1
