# Blender 4.1.1
# www.blender.org
o Overdrive_Background.001
v -2.100395 0.082072 0.582621
v 2.100395 0.082072 0.582621
v 2.113458 0.082072 0.579781
v 2.127256 0.082072 0.574494
v 2.139349 0.082072 0.567380
v 2.149274 0.082072 0.558712
v 2.156649 0.082072 0.548821
v 2.161191 0.082072 0.538090
v 2.162724 0.082072 0.526930
v 2.161191 0.082072 0.515770
v 2.156649 0.082072 0.505038
v 2.149274 0.082072 0.495148
v 2.139349 0.082072 0.486480
v 2.127256 0.082072 0.479366
v 2.113458 0.082072 0.474079
v 2.100395 0.082072 0.471239
v -2.100395 0.082072 0.471239
v -2.113458 0.082072 0.474079
v -2.127256 0.082072 0.479366
v -2.139349 0.082072 0.486480
v -2.149274 0.082072 0.495148
v -2.156649 0.082072 0.505038
v -2.161191 0.082072 0.515770
v -2.162724 0.082072 0.526930
v -2.161191 0.082072 0.538090
v -2.156649 0.082072 0.548821
v -2.149274 0.082072 0.558712
v -2.139349 0.082072 0.567380
v -2.127256 0.082072 0.574494
v -2.113458 0.082072 0.579781
v 1.600066 0.082072 0.471239
v -1.600066 0.082072 0.471239
v -1.600066 0.082072 0.582621
v 1.600065 0.082072 0.582621
v -1.599643 0.082072 0.572119
v 1.599644 0.082072 0.481859
v 0.000000 0.082072 0.471239
v -0.000000 0.082072 0.582621
v -0.000000 0.082072 0.526930
v -1.000006 0.082072 0.471239
v -1.000007 0.082072 0.582621
v -0.999964 0.082072 0.543380
v 1.000000 0.082072 0.582621
v 1.000000 0.082072 0.513673
v 1.000000 0.082072 0.471239
v -0.500003 0.082072 0.582621
v -0.499982 0.082072 0.535155
v -0.500003 0.082072 0.471239
v 0.500000 0.082072 0.471239
v 0.500000 0.082072 0.582621
v 0.500000 0.082072 0.520301
vn -0.0000 1.0000 -0.0000
vt 0.008200 0.974708
vt 0.011390 0.973486
vt 0.011390 0.997923
vt 0.014410 0.972830
vt 0.014410 0.998580
vt 0.130081 0.972830
vt 0.130179 0.975257
vt 0.985590 0.972830
vt 0.988610 0.973486
vt 0.985590 0.998580
vt 0.991800 0.974708
vt 0.988610 0.997923
vt 0.994596 0.976353
vt 0.994596 0.995056
vt 0.996890 0.978357
vt 0.996890 0.993052
vt 0.998596 0.980644
vt 0.999646 0.983125
vt 0.998596 0.990766
vt 1.000000 0.985705
vt 0.999646 0.988285
vt 0.991800 0.996701
vt 0.869919 0.998580
vt 0.869821 0.996125
vt 0.008200 0.996701
vt 0.005404 0.976353
vt 0.005404 0.995056
vt 0.003109 0.993052
vt 0.001404 0.990766
vt 0.003109 0.978357
vt 0.000354 0.988285
vt 0.000354 0.983125
vt -0.000000 0.985705
vt 0.001404 0.980644
vt 0.731190 0.988770
vt 0.731190 0.972830
vt 0.869919 0.972830
vt 0.268818 0.981902
vt 0.268809 0.998580
vt 0.130081 0.998580
vt 0.615595 0.987237
vt 0.615595 0.998580
vt 0.500000 0.998580
vt 0.500000 0.985705
vt 0.384409 0.983803
vt 0.384404 0.972830
vt 0.500000 0.972830
vt 0.268808 0.972830
vt 0.384404 0.998580
vt 0.731190 0.998580
vt 0.615595 0.972830
s 1
f 29/1/1 30/2/1 18/3/1
f 30/2/1 1/4/1 17/5/1
f 1/4/1 33/6/1 35/7/1
f 2/8/1 3/9/1 16/10/1
f 3/9/1 4/11/1 15/12/1
f 16/10/1 3/9/1 15/12/1
f 4/11/1 5/13/1 13/14/1
f 5/13/1 6/15/1 12/16/1
f 6/15/1 7/17/1 12/16/1
f 7/17/1 8/18/1 11/19/1
f 12/16/1 7/17/1 11/19/1
f 8/18/1 9/20/1 10/21/1
f 10/21/1 11/19/1 8/18/1
f 12/16/1 13/14/1 5/13/1
f 13/14/1 14/22/1 4/11/1
f 14/22/1 15/12/1 4/11/1
f 16/10/1 31/23/1 36/24/1
f 17/5/1 18/3/1 30/2/1
f 29/1/1 19/25/1 28/26/1
f 18/3/1 19/25/1 29/1/1
f 19/25/1 20/27/1 28/26/1
f 20/27/1 21/28/1 28/26/1
f 21/28/1 22/29/1 27/30/1
f 28/26/1 21/28/1 27/30/1
f 22/29/1 23/31/1 25/32/1
f 23/31/1 24/33/1 25/32/1
f 25/32/1 26/34/1 22/29/1
f 26/34/1 27/30/1 22/29/1
f 44/35/1 43/36/1 34/37/1 36/24/1
f 36/24/1 34/37/1 2/8/1 16/10/1
f 42/38/1 40/39/1 32/40/1 35/7/1
f 35/7/1 32/40/1 17/5/1 1/4/1
f 51/41/1 49/42/1 37/43/1 39/44/1
f 47/45/1 46/46/1 38/47/1 39/44/1
f 35/7/1 33/6/1 41/48/1 42/38/1
f 47/45/1 48/49/1 40/39/1 42/38/1
f 36/24/1 31/23/1 45/50/1 44/35/1
f 51/41/1 50/51/1 43/36/1 44/35/1
f 39/44/1 37/43/1 48/49/1 47/45/1
f 42/38/1 41/48/1 46/46/1 47/45/1
f 39/44/1 38/47/1 50/51/1 51/41/1
f 44/35/1 45/50/1 49/42/1 51/41/1
