# Blender 4.1.1
# www.blender.org
o Cube.001
v 0.000000 0.130000 -0.310355
v 0.000000 0.130000 -0.389645
v 2.464645 0.130000 -0.310355
v 2.464645 0.130000 -0.389645
v 0.000000 0.105000 -0.310355
v 0.000000 0.105000 -0.389645
v 2.464645 0.105000 -0.389645
v 2.464645 0.105000 -0.310355
v 1.501783 0.130000 -0.310355
v 1.501783 0.105000 -0.310355
v 1.501783 0.130000 -0.389645
v 1.501783 0.105000 -0.389645
v 0.481473 0.130000 -0.310355
v 0.481473 0.105000 -0.310355
v 0.481473 0.130000 -0.389645
v 0.481473 0.105000 -0.389645
v 2.000892 0.130000 -0.389645
v 2.000892 0.105000 -0.389645
v 2.000892 0.130000 -0.310355
v 2.000892 0.105000 -0.310355
v 0.991628 0.130000 -0.389645
v 0.991628 0.105000 -0.389645
v 0.991628 0.130000 -0.310355
v 0.991628 0.105000 -0.310355
v -2.464645 0.130000 -0.310355
v -2.464645 0.130000 -0.389645
v -2.464645 0.105000 -0.389645
v -2.464645 0.105000 -0.310355
v -1.501783 0.130000 -0.310355
v -1.501783 0.105000 -0.310355
v -1.501783 0.130000 -0.389645
v -1.501783 0.105000 -0.389645
v -0.481473 0.130000 -0.310355
v -0.481473 0.105000 -0.310355
v -0.481473 0.130000 -0.389645
v -0.481473 0.105000 -0.389645
v -2.000892 0.130000 -0.389645
v -2.000892 0.105000 -0.389645
v -2.000892 0.130000 -0.310355
v -2.000892 0.105000 -0.310355
v -0.991628 0.130000 -0.389645
v -0.991628 0.105000 -0.389645
v -0.991628 0.130000 -0.310355
v -0.991628 0.105000 -0.310355
v 0.000000 0.130000 0.310355
v 0.000000 0.130000 0.389645
v 2.464645 0.130000 0.310355
v 2.464645 0.130000 0.389645
v 0.000000 0.105000 0.310355
v 0.000000 0.105000 0.389645
v 2.464645 0.105000 0.389645
v 2.464645 0.105000 0.310355
v 1.501783 0.130000 0.310355
v 1.501783 0.105000 0.310355
v 1.501783 0.130000 0.389645
v 1.501783 0.105000 0.389645
v 0.481473 0.130000 0.310355
v 0.481473 0.105000 0.310355
v 0.481473 0.130000 0.389645
v 0.481473 0.105000 0.389645
v 2.000892 0.130000 0.389645
v 2.000892 0.105000 0.389645
v 2.000892 0.130000 0.310355
v 2.000892 0.105000 0.310355
v 0.991628 0.130000 0.389645
v 0.991628 0.105000 0.389645
v 0.991628 0.130000 0.310355
v 0.991628 0.105000 0.310355
v -2.464645 0.130000 0.310355
v -2.464645 0.130000 0.389645
v -2.464645 0.105000 0.389645
v -2.464645 0.105000 0.310355
v -1.501783 0.130000 0.310355
v -1.501783 0.105000 0.310355
v -1.501783 0.130000 0.389645
v -1.501783 0.105000 0.389645
v -0.481473 0.130000 0.310355
v -0.481473 0.105000 0.310355
v -0.481473 0.130000 0.389645
v -0.481473 0.105000 0.389645
v -2.000892 0.130000 0.389645
v -2.000892 0.105000 0.389645
v -2.000892 0.130000 0.310355
v -2.000892 0.105000 0.310355
v -0.991628 0.130000 0.389645
v -0.991628 0.105000 0.389645
v -0.991628 0.130000 0.310355
v -0.991628 0.105000 0.310355
vn -0.0000 -0.0000 -1.0000
vn -0.7071 -0.0000 -0.7071
vn -0.5774 0.5774 -0.5774
vn -0.0000 0.7071 -0.7071
vn -0.0000 0.7071 0.7071
vn -0.0000 -0.0000 1.0000
vn -0.7071 -0.0000 0.7071
vn -0.5774 0.5774 0.5774
vn 0.5774 0.5774 -0.5774
vn 0.7071 -0.0000 -0.7071
vn 0.5774 0.5774 0.5774
vn 0.7071 -0.0000 0.7071
vt 0.905919 0.500000
vt 1.000000 0.500000
vt 0.597676 0.999999
vt 0.500000 0.999999
vt 0.500000 0.500000
vt 0.597676 0.500000
vt 1.000000 0.999998
vt 0.905919 0.999999
vt 0.804665 0.999999
vt 0.804665 0.500000
vt 0.701171 0.500000
vt 0.701171 0.999999
vt 0.094081 0.500000
vt 0.000000 0.500000
vt 0.402324 0.999999
vt 0.402324 0.500000
vt 0.000000 1.000000
vt 0.094081 1.000000
vt 0.195335 0.500000
vt 0.195335 1.000000
vt 0.298829 0.500000
vt 0.298829 1.000000
vt 0.597676 0.000001
vt 0.500000 0.000001
vt 1.000000 0.000000
vt 0.905919 0.000000
vt 0.804665 0.000000
vt 0.701171 0.000000
vt 0.402324 0.000001
vt 0.402324 0.500000
vt 0.000000 0.000003
vt 0.094081 0.000001
vt 0.195335 0.000001
vt 0.298829 0.000001
s 1
f 19/1/1 3/2/2 8/2/3 20/1/4
f 16/3/5 6/4/5 5/5/4 14/6/4
f 15/3/6 2/4/6 6/4/5 16/3/5
f 3/2/2 4/7/7 7/7/8 8/2/3
f 18/8/5 12/9/5 10/10/4 20/1/4
f 17/8/6 11/9/6 12/9/5 18/8/5
f 23/11/1 24/11/4 14/6/4 13/6/1
f 22/12/5 12/9/5 11/9/6 21/12/6
f 1/5/1 13/6/1 14/6/4 5/5/4
f 24/11/4 22/12/5 16/3/5 14/6/4
f 4/7/7 17/8/6 18/8/5 7/7/8
f 7/7/8 18/8/5 20/1/4 8/2/3
f 9/10/1 19/1/1 20/1/4 10/10/4
f 10/10/4 12/9/5 22/12/5 24/11/4
f 16/3/5 22/12/5 21/12/6 15/3/6
f 9/10/1 10/10/4 24/11/4 23/11/1
f 39/13/1 40/13/4 28/14/9 25/14/10
f 36/15/5 34/16/4 5/5/4 6/4/5
f 35/15/6 36/15/5 6/4/5 2/4/6
f 25/14/10 28/14/9 27/17/11 26/17/12
f 38/18/5 40/13/4 30/19/4 32/20/5
f 37/18/6 38/18/5 32/20/5 31/20/6
f 43/21/1 33/16/1 34/16/4 44/21/4
f 42/22/5 41/22/6 31/20/6 32/20/5
f 1/5/1 5/5/4 34/16/4 33/16/1
f 44/21/4 34/16/4 36/15/5 42/22/5
f 26/17/12 27/17/11 38/18/5 37/18/6
f 27/17/11 28/14/9 40/13/4 38/18/5
f 29/19/1 30/19/4 40/13/4 39/13/1
f 30/19/4 44/21/4 42/22/5 32/20/5
f 36/15/5 35/15/6 41/22/6 42/22/5
f 29/19/1 43/21/1 44/21/4 30/19/4
f 63/1/6 64/1/5 52/2/8 47/2/7
f 60/23/4 58/6/5 49/5/5 50/24/4
f 59/23/1 60/23/4 50/24/4 46/24/1
f 47/2/7 52/2/8 51/25/3 48/25/2
f 62/26/4 64/1/5 54/10/5 56/27/4
f 61/26/1 62/26/4 56/27/4 55/27/1
f 67/11/6 57/6/6 58/6/5 68/11/5
f 66/28/4 65/28/1 55/27/1 56/27/4
f 45/5/6 49/5/5 58/6/5 57/6/6
f 68/11/5 58/6/5 60/23/4 66/28/4
f 48/25/2 51/25/3 62/26/4 61/26/1
f 51/25/3 52/2/8 64/1/5 62/26/4
f 53/10/6 54/10/5 64/1/5 63/1/6
f 54/10/5 68/11/5 66/28/4 56/27/4
f 60/23/4 59/23/1 65/28/1 66/28/4
f 53/10/6 67/11/6 68/11/5 54/10/5
f 83/13/6 69/14/12 72/14/11 84/13/5
f 80/29/4 50/24/4 49/5/5 78/30/5
f 79/29/1 46/24/1 50/24/4 80/29/4
f 69/14/12 70/31/10 71/31/9 72/14/11
f 82/32/4 76/33/4 74/19/5 84/13/5
f 81/32/1 75/33/1 76/33/4 82/32/4
f 87/21/6 88/21/5 78/30/5 77/30/6
f 86/34/4 76/33/4 75/33/1 85/34/1
f 45/5/6 77/30/6 78/30/5 49/5/5
f 88/21/5 86/34/4 80/29/4 78/30/5
f 70/31/10 81/32/1 82/32/4 71/31/9
f 71/31/9 82/32/4 84/13/5 72/14/11
f 73/19/6 83/13/6 84/13/5 74/19/5
f 74/19/5 76/33/4 86/34/4 88/21/5
f 80/29/4 86/34/4 85/34/1 79/29/1
f 73/19/6 74/19/5 88/21/5 87/21/6
