# Blender 4.1.1
# www.blender.org
o Expert_Highway.003
v 2.500000 0.000500 -0.000000
v 2.500000 0.000502 20.000000
v -2.500000 0.000500 -0.000000
v -2.500000 0.000502 20.000000
v 1.500000 0.000502 20.000000
v 0.500000 0.000502 20.000000
v -0.500000 0.000502 20.000000
v -1.500000 0.000502 20.000000
v -1.500000 0.000500 -0.000000
v -0.500000 0.000500 -0.000000
v 0.500000 0.000500 -0.000000
v 1.500000 0.000500 -0.000000
v -2.166667 0.000502 20.000000
v -1.833333 0.000502 20.000000
v -2.166667 0.000500 -0.000000
v -1.833333 0.000500 -0.000000
v -1.166667 0.000500 -0.000000
v -0.833333 0.000500 -0.000000
v -0.833333 0.000502 20.000000
v -1.166667 0.000502 20.000000
v -0.166667 0.000502 20.000000
v 0.166667 0.000502 20.000000
v -0.166667 0.000500 -0.000000
v 0.166667 0.000500 -0.000000
v 1.166667 0.000502 20.000000
v 0.833333 0.000502 20.000000
v 0.833333 0.000500 -0.000000
v 1.166667 0.000500 -0.000000
v 2.166667 0.000502 20.000000
v 1.833333 0.000502 20.000000
v 2.166667 0.000500 -0.000000
v 1.833333 0.000500 -0.000000
v 0.000000 0.000502 20.000000
v 0.000000 0.000500 -0.000000
vn -0.0000 1.0000 -0.0000
vt 0.066667 0.000000
vt 0.000000 0.000000
vt 0.000000 1.000000
vt 0.066667 1.000000
vt 0.866667 0.000000
vt 0.800000 0.000000
vt 0.800000 1.000000
vt 0.866667 1.000000
vt 0.666667 0.000000
vt 0.600000 0.000000
vt 0.600000 1.000000
vt 0.666667 1.000000
vt 0.266667 0.000000
vt 0.200000 0.000000
vt 0.200000 1.000000
vt 0.266667 1.000000
vt 0.533333 0.000000
vt 0.533333 1.000000
vt 0.133333 0.000000
vt 0.133333 1.000000
vt 0.400000 0.000000
vt 0.333333 0.000000
vt 0.333333 1.000000
vt 0.400000 1.000000
vt 0.466667 1.000000
vt 0.466667 0.000000
vt 0.500000 0.000000
vt 0.500000 1.000000
vt 0.733333 0.000000
vt 0.733333 1.000000
vt 1.000000 0.000000
vt 0.933333 0.000000
vt 0.933333 1.000000
vt 1.000000 1.000000
s 0
f 15/1/1 3/2/1 4/3/1 13/4/1
f 32/5/1 12/6/1 5/7/1 30/8/1
f 27/9/1 11/10/1 6/11/1 26/12/1
f 17/13/1 9/14/1 8/15/1 20/16/1
f 24/17/1 22/18/1 6/11/1 11/10/1
f 9/14/1 16/19/1 14/20/1 8/15/1
f 16/19/1 15/1/1 13/4/1 14/20/1
f 10/21/1 18/22/1 19/23/1 7/24/1
f 18/22/1 17/13/1 20/16/1 19/23/1
f 10/21/1 7/24/1 21/25/1 23/26/1
f 34/27/1 33/28/1 22/18/1 24/17/1
f 12/6/1 28/29/1 25/30/1 5/7/1
f 28/29/1 27/9/1 26/12/1 25/30/1
f 1/31/1 31/32/1 29/33/1 2/34/1
f 31/32/1 32/5/1 30/8/1 29/33/1
f 23/26/1 21/25/1 33/28/1 34/27/1
