# Blender 4.0.2
# www.blender.org
o Expert_Highway.002
v 2.000000 -0.000000 0.000000
v 2.000000 -0.000000 20.000000
v 2.140000 -0.000000 0.000000
v 2.140000 -0.000000 20.000000
v 2.070000 0.100000 20.000000
v 2.070000 0.100000 0.000000
v -2.000000 -0.000000 0.000000
v -2.000000 -0.000000 20.000000
v -2.140000 -0.000000 0.000000
v -2.140000 -0.000000 20.000000
v -2.070000 0.100000 20.000000
v -2.070000 0.100000 0.000000
vn 0.8192 0.5735 -0.0000
vn -0.8192 0.5735 -0.0000
vt 0.499999 1.000000
vt 0.499997 0.000000
vt 0.999995 0.000000
vt 0.999997 1.000000
vt 0.000002 1.000000
vt -0.000002 -0.000000
s 0
f 6/1/1 5/2/1 4/3/1 3/4/1
f 1/5/2 2/6/2 5/2/2 6/1/2
f 12/1/2 9/4/2 10/3/2 11/2/2
f 7/5/1 12/1/1 11/2/1 8/6/1
