# Blender 4.1.1
# www.blender.org
o Cube.003
v 0.450000 0.156189 0.450000
v -0.450000 0.156189 0.450000
v -0.450000 0.156189 -0.000000
v 0.450000 0.156189 -0.000000
v 0.450000 0.213129 0.443253
v -0.450000 0.213129 0.443253
v 0.450000 0.376189 0.252000
v -0.450000 0.376189 0.252000
v -0.450000 0.368693 0.303246
v 0.450000 0.368693 0.303246
v 0.450000 0.376189 0.198000
v -0.450000 0.376189 0.198000
v 0.450000 0.266189 0.423473
v -0.450000 0.266189 0.423473
v 0.450000 0.311753 0.392007
v -0.450000 0.311753 0.392007
v 0.450000 0.346715 0.351000
v -0.450000 0.346715 0.351000
v 0.450000 0.368693 0.146754
v -0.450000 0.368693 0.146754
v -0.450000 0.213129 0.006747
v 0.450000 0.213129 0.006747
v 0.450000 0.346715 0.099000
v -0.450000 0.346715 0.099000
v 0.450000 0.311753 0.057993
v -0.450000 0.311753 0.057993
v 0.450000 0.266189 0.026527
v -0.450000 0.266189 0.026527
v 0.450000 0.060066 0.450000
v -0.450000 0.060066 0.450000
v -0.450000 0.059934 -0.000000
v 0.450000 0.059934 -0.000000
v -0.225000 0.346715 0.099000
v 0.000000 0.346715 0.099000
v 0.225000 0.346715 0.099000
v -0.225000 0.156189 0.450000
v 0.000000 0.156189 0.450000
v 0.225000 0.156189 0.450000
v 0.225000 0.156189 -0.000000
v 0.000000 0.156189 -0.000000
v -0.225000 0.156189 -0.000000
v -0.225000 0.376189 0.252000
v 0.000000 0.376189 0.252000
v 0.225000 0.376189 0.252000
v -0.225000 0.266189 0.423473
v 0.000000 0.266189 0.423473
v 0.225000 0.266189 0.423473
v 0.225000 0.213129 0.006747
v 0.000000 0.213129 0.006747
v -0.225000 0.213129 0.006747
v -0.225000 0.266189 0.026527
v 0.000000 0.266189 0.026527
v 0.225000 0.266189 0.026527
v -0.225000 0.311753 0.057993
v 0.000000 0.311753 0.057993
v 0.225000 0.311753 0.057993
v 0.225000 0.368693 0.303246
v 0.000000 0.368693 0.303246
v -0.225000 0.368693 0.303246
v 0.225000 0.376189 0.198000
v 0.000000 0.376189 0.198000
v -0.225000 0.376189 0.198000
v -0.225000 0.368693 0.146754
v 0.000000 0.368693 0.146754
v 0.225000 0.368693 0.146754
v 0.225000 0.311753 0.392007
v 0.000000 0.311753 0.392007
v -0.225000 0.311753 0.392007
v 0.225000 0.346715 0.351000
v 0.000000 0.346715 0.351000
v -0.225000 0.346715 0.351000
v -0.225000 0.059934 -0.000000
v 0.000000 0.059934 -0.000000
v 0.225000 0.059934 -0.000000
v -0.225000 0.213129 0.443253
v 0.000000 0.213129 0.443253
v 0.225000 0.213129 0.443253
v 0.225000 0.060066 0.450000
v 0.000000 0.060066 0.450000
v -0.225000 0.060066 0.450000
vn -0.0000 0.9974 -0.0726
vn -0.0000 0.9974 0.0726
vn -0.0000 0.2352 -0.9720
vn -0.0000 0.0589 -0.9983
vn -0.0000 0.9587 0.2843
vn -0.0000 0.9587 -0.2843
vn -0.0000 0.4623 -0.8867
vn -0.0000 0.6703 -0.7421
vn -0.0000 0.8426 -0.5385
vn -0.0000 0.8426 0.5385
vn -0.0000 0.6703 0.7421
vn -0.0000 0.2352 0.9720
vn -0.0000 0.0589 0.9983
vn -0.0000 0.4623 0.8867
vn -0.0000 -0.0000 1.0000
vn -0.0000 -0.0000 -1.0000
vt 0.250064 0.468213
vt 0.250064 0.531927
vt 0.000086 0.531927
vt 0.000086 0.468213
vt 0.250064 0.163284
vt 0.000086 0.163284
vt 0.000086 0.102298
vt 0.250064 0.102298
vt 0.750022 0.531927
vt 1.000000 0.531927
vt 1.000000 0.592912
vt 0.750021 0.592912
vt 0.000086 0.407228
vt 0.250064 0.407228
vt 0.750022 0.224270
vt 1.000000 0.224270
vt 1.000000 0.285256
vt 0.750022 0.285256
vt 0.750022 0.346242
vt 1.000000 0.346242
vt 1.000000 0.407227
vt 0.750022 0.407227
vt 0.250064 0.592912
vt 0.250064 0.653898
vt 0.000086 0.653898
vt 0.000086 0.592912
vt 0.250064 0.714884
vt 0.000086 0.714884
vt 0.750022 0.836856
vt 1.000000 0.836856
vt 1.000000 0.897842
vt 0.750022 0.897842
vt 0.750022 0.775870
vt 1.000000 0.775870
vt 0.750021 0.714884
vt 1.000000 0.714884
vt 0.250064 0.224270
vt 0.000086 0.224270
vt 1.000000 0.999914
vt 0.750021 0.999914
vt 0.000086 0.000086
vt 0.250064 0.000086
vt 1.000000 0.102298
vt 0.750021 0.102298
vt 0.750022 0.000086
vt 1.000000 0.000086
vt 0.500043 0.102298
vt 0.500043 0.000086
vt 0.000086 0.897842
vt 0.250064 0.897842
vt 0.250064 0.999914
vt 0.000086 0.999914
vt 0.500043 0.897842
vt 0.500043 0.999914
vt 1.000000 0.163284
vt 0.750021 0.163284
vt 0.500043 0.224270
vt 0.500043 0.163284
vt 0.250064 0.775870
vt 0.000086 0.775870
vt 0.500043 0.714884
vt 0.500043 0.775870
vt 0.000086 0.285256
vt 0.250064 0.285256
vt 0.250064 0.346242
vt 0.000086 0.346242
vt 0.500043 0.285256
vt 0.500043 0.346242
vt 0.250064 0.836856
vt 0.000086 0.836856
vt 0.500043 0.836856
vt 1.000000 0.653898
vt 0.750022 0.653898
vt 0.500043 0.653898
vt 0.500043 0.592912
vt 0.500043 0.407227
vt 1.000000 0.468213
vt 0.750021 0.468213
vt 0.500043 0.468213
vt 0.500043 0.531927
s 1
f 60/1/1 44/2/2 7/3/2 11/4/1
f 48/5/3 22/6/3 4/7/4 39/8/4
f 42/9/2 8/10/2 9/11/5 59/12/5
f 60/1/1 11/4/1 19/13/6 65/14/6
f 51/15/7 28/16/7 26/17/8 54/18/8
f 33/19/9 24/20/9 20/21/6 63/22/6
f 57/23/5 69/24/10 17/25/10 10/26/5
f 69/24/10 66/27/11 15/28/11 17/25/10
f 75/29/12 6/30/12 2/31/13 36/32/13
f 45/33/14 14/34/14 6/30/12 75/29/12
f 54/18/8 26/17/8 24/20/9 33/19/9
f 68/35/11 16/36/11 14/34/14 45/33/14
f 48/5/3 53/37/7 27/38/7 22/6/3
f 36/32/13 2/31/13 30/39/15 80/40/15
f 39/8/4 4/7/4 32/41/16 74/42/16
f 3/43/4 41/44/4 72/45/16 31/46/16
f 41/44/4 40/47/4 73/48/16 72/45/16
f 40/47/4 39/8/4 74/42/16 73/48/16
f 1/49/13 38/50/13 78/51/15 29/52/15
f 38/50/13 37/53/13 79/54/15 78/51/15
f 37/53/13 36/32/13 80/40/15 79/54/15
f 21/55/3 28/16/7 51/15/7 50/56/3
f 50/56/3 51/15/7 52/57/7 49/58/3
f 49/58/3 52/57/7 53/37/7 48/5/3
f 15/28/11 66/27/11 47/59/14 13/60/14
f 66/27/11 67/61/11 46/62/14 47/59/14
f 67/61/11 68/35/11 45/33/14 46/62/14
f 25/63/8 56/64/8 35/65/9 23/66/9
f 56/64/8 55/67/8 34/68/9 35/65/9
f 55/67/8 54/18/8 33/19/9 34/68/9
f 13/60/14 47/59/14 77/69/12 5/70/12
f 47/59/14 46/62/14 76/71/12 77/69/12
f 46/62/14 45/33/14 75/29/12 76/71/12
f 5/70/12 77/69/12 38/50/13 1/49/13
f 77/69/12 76/71/12 37/53/13 38/50/13
f 76/71/12 75/29/12 36/32/13 37/53/13
f 18/72/10 16/36/11 68/35/11 71/73/10
f 71/73/10 68/35/11 67/61/11 70/74/10
f 70/74/10 67/61/11 66/27/11 69/24/10
f 9/11/5 18/72/10 71/73/10 59/12/5
f 59/12/5 71/73/10 70/74/10 58/75/5
f 58/75/5 70/74/10 69/24/10 57/23/5
f 23/66/9 35/65/9 65/14/6 19/13/6
f 35/65/9 34/68/9 64/76/6 65/14/6
f 34/68/9 33/19/9 63/22/6 64/76/6
f 27/38/7 53/37/7 56/64/8 25/63/8
f 53/37/7 52/57/7 55/67/8 56/64/8
f 52/57/7 51/15/7 54/18/8 55/67/8
f 12/77/1 62/78/1 63/22/6 20/21/6
f 62/78/1 61/79/1 64/76/6 63/22/6
f 61/79/1 60/1/1 65/14/6 64/76/6
f 7/3/2 44/2/2 57/23/5 10/26/5
f 44/2/2 43/80/2 58/75/5 57/23/5
f 43/80/2 42/9/2 59/12/5 58/75/5
f 21/55/3 50/56/3 41/44/4 3/43/4
f 50/56/3 49/58/3 40/47/4 41/44/4
f 49/58/3 48/5/3 39/8/4 40/47/4
f 12/77/1 8/10/2 42/9/2 62/78/1
f 62/78/1 42/9/2 43/80/2 61/79/1
f 61/79/1 43/80/2 44/2/2 60/1/1
