# Blender 4.1.1
# www.blender.org
o Cube.008
v -0.650000 0.185747 0.513000
v -0.620000 0.187713 0.540000
v -0.641213 0.187138 0.532092
v -0.650000 0.421713 0.300630
v -0.620000 0.451713 0.302400
v -0.641213 0.442927 0.301882
v -0.650000 0.248210 0.505599
v -0.620000 0.256042 0.531904
v -0.641213 0.253748 0.524200
v -0.650000 0.304584 0.484583
v -0.620000 0.319713 0.508168
v -0.641213 0.315282 0.501260
v -0.650000 0.352993 0.451152
v -0.620000 0.374390 0.470409
v -0.641213 0.368123 0.464768
v -0.650000 0.390139 0.407584
v -0.620000 0.416344 0.421200
v -0.641213 0.408669 0.417212
v -0.650000 0.413490 0.356847
v -0.620000 0.442718 0.363896
v -0.641213 0.434157 0.361831
v -0.650000 0.421713 0.239370
v -0.620000 0.451713 0.237600
v -0.641213 0.442927 0.238118
v -0.650000 0.185747 0.027000
v -0.620000 0.187713 -0.000000
v -0.641213 0.187138 0.007908
v -0.650000 0.413490 0.183153
v -0.620000 0.442718 0.176105
v -0.641213 0.434157 0.178169
v -0.650000 0.390139 0.132417
v -0.620000 0.416344 0.118800
v -0.641213 0.408669 0.122788
v -0.650000 0.352993 0.088848
v -0.620000 0.374390 0.069592
v -0.641213 0.368123 0.075232
v -0.650000 0.304584 0.055417
v -0.620000 0.319713 0.031832
v -0.641213 0.315282 0.038740
v -0.650000 0.248210 0.034401
v -0.620000 0.256042 0.008096
v -0.641213 0.253748 0.015801
v 0.600000 0.421713 0.300630
v 0.570000 0.451713 0.302400
v 0.591213 0.442927 0.301882
v 0.600000 0.185747 0.513000
v 0.570000 0.187713 0.540000
v 0.591213 0.187138 0.532092
v 0.600000 0.413490 0.356847
v 0.570000 0.442718 0.363895
v 0.591213 0.434157 0.361831
v 0.600000 0.390139 0.407583
v 0.570000 0.416344 0.421200
v 0.591213 0.408669 0.417212
v 0.600000 0.352993 0.451152
v 0.570000 0.374390 0.470408
v 0.591213 0.368123 0.464768
v 0.600000 0.304584 0.484583
v 0.570000 0.319713 0.508168
v 0.591213 0.315282 0.501260
v 0.600000 0.248210 0.505599
v 0.570000 0.256042 0.531904
v 0.591213 0.253748 0.524199
v 0.600000 0.185747 0.027000
v 0.570000 0.187713 -0.000000
v 0.591213 0.187138 0.007908
v 0.600000 0.421713 0.239370
v 0.570000 0.451713 0.237600
v 0.591213 0.442927 0.238118
v 0.600000 0.248210 0.034401
v 0.570000 0.256042 0.008096
v 0.591213 0.253748 0.015801
v 0.600000 0.304584 0.055417
v 0.570000 0.319713 0.031832
v 0.591213 0.315282 0.038740
v 0.600000 0.352993 0.088848
v 0.570000 0.374390 0.069591
v 0.591213 0.368123 0.075231
v 0.600000 0.390139 0.132417
v 0.570000 0.416344 0.118800
v 0.591213 0.408669 0.122788
v 0.600000 0.413490 0.183153
v 0.570000 0.442718 0.176105
v 0.591213 0.434157 0.178169
v -0.650000 0.030287 0.497533
v -0.650000 0.047472 0.513000
v -0.650000 0.035320 0.508470
v -0.620000 0.000287 0.524761
v -0.620000 0.017219 0.540000
v -0.620000 0.005246 0.535537
v -0.641213 0.026130 0.532092
v -0.641213 0.009073 0.516741
v -0.641213 0.014069 0.527596
v -0.650000 0.047472 0.027000
v -0.650000 0.030287 0.042467
v -0.650000 0.035320 0.031530
v -0.620000 0.017219 -0.000000
v -0.620000 0.000287 0.015240
v -0.620000 0.005246 0.004464
v -0.641213 0.009073 0.023259
v -0.641213 0.026130 0.007908
v -0.641213 0.014069 0.012404
v 0.600000 0.047472 0.513000
v 0.600000 0.030287 0.497533
v 0.600000 0.035320 0.508470
v 0.570000 0.017219 0.540000
v 0.570000 0.000287 0.524760
v 0.570000 0.005246 0.535536
v 0.591213 0.009073 0.516741
v 0.591213 0.026130 0.532092
v 0.591213 0.014069 0.527596
v 0.600000 0.030287 0.042467
v 0.600000 0.047472 0.027000
v 0.600000 0.035320 0.031530
v 0.570000 0.000287 0.015239
v 0.570000 0.017219 -0.000000
v 0.570000 0.005246 0.004463
v 0.591213 0.026130 0.007908
v 0.591213 0.009073 0.023259
v 0.591213 0.014069 0.012404
v 0.420000 0.187713 0.540000
v -0.470000 0.187713 0.540000
v -0.470000 0.187713 -0.000000
v 0.420000 0.187713 -0.000000
v 0.420000 0.256042 0.531904
v -0.470000 0.256042 0.531904
v 0.420000 0.451713 0.302400
v -0.470000 0.451713 0.302400
v -0.470000 0.442718 0.363895
v 0.420000 0.442718 0.363895
v 0.420000 0.451713 0.237600
v -0.470000 0.451713 0.237600
v 0.420000 0.319713 0.508168
v -0.470000 0.319713 0.508168
v 0.420000 0.374390 0.470408
v -0.470000 0.374390 0.470409
v 0.420000 0.416344 0.421200
v -0.470000 0.416344 0.421200
v 0.420000 0.442718 0.176105
v -0.470000 0.442718 0.176105
v -0.470000 0.256042 0.008096
v 0.420000 0.256042 0.008096
v 0.420000 0.416344 0.118800
v -0.470000 0.416344 0.118800
v 0.420000 0.374390 0.069591
v -0.470000 0.374390 0.069592
v 0.420000 0.319713 0.031832
v -0.470000 0.319713 0.031832
v -0.470000 0.000287 0.524761
v 0.420000 0.000287 0.524760
v 0.420000 0.005246 0.535536
v -0.470000 0.005246 0.535537
v 0.420000 0.017219 0.540000
v -0.470000 0.017219 0.540000
v -0.470000 0.017219 -0.000000
v 0.420000 0.017219 -0.000000
v 0.420000 0.005246 0.004464
v -0.470000 0.005246 0.004464
v 0.420000 0.000287 0.015239
v -0.470000 0.000287 0.015240
v -0.650000 0.072121 0.513000
v -0.641213 0.072294 0.532092
v -0.620000 0.072366 0.540000
v 0.570000 0.072366 0.540000
v 0.600000 0.072121 0.513000
v 0.591213 0.072294 0.532092
v 0.420000 0.072366 0.540000
v -0.470000 0.072366 0.540000
v -0.650000 0.072452 0.027000
v -0.641213 0.072279 0.007908
v -0.620000 0.072207 -0.000000
v 0.570000 0.072207 -0.000000
v 0.600000 0.072452 0.027000
v 0.591213 0.072279 0.007908
v -0.470000 0.072207 -0.000000
v 0.420000 0.072207 -0.000000
v 0.495000 0.187713 -0.000000
v 0.495000 0.442718 0.363895
v 0.495000 0.256042 0.008096
v 0.495000 0.000287 0.524760
v 0.495000 0.017219 -0.000000
v 0.495000 0.187713 0.540000
v 0.495000 0.256042 0.531904
v 0.495000 0.451713 0.302400
v 0.495000 0.451713 0.237600
v 0.495000 0.319713 0.508168
v 0.495000 0.374390 0.470408
v 0.495000 0.416344 0.421200
v 0.495000 0.442718 0.176105
v 0.495000 0.416344 0.118800
v 0.495000 0.374390 0.069591
v 0.495000 0.319713 0.031832
v 0.495000 0.005246 0.535536
v 0.495000 0.017219 0.540000
v 0.495000 0.005246 0.004463
v 0.495000 0.000287 0.015239
v 0.495000 0.072366 0.540000
v 0.495000 0.072207 -0.000000
v -0.545000 0.187713 0.540000
v -0.545000 0.256042 0.531904
v -0.545000 0.451713 0.302400
v -0.545000 0.451713 0.237600
v -0.545000 0.319713 0.508168
v -0.545000 0.374390 0.470409
v -0.545000 0.416344 0.421200
v -0.545000 0.442718 0.176105
v -0.545000 0.416344 0.118800
v -0.545000 0.374390 0.069592
v -0.545000 0.319713 0.031832
v -0.545000 0.005246 0.535537
v -0.545000 0.017219 0.540000
v -0.545000 0.005246 0.004464
v -0.545000 0.000287 0.015240
v -0.545000 0.187713 -0.000000
v -0.545000 0.442718 0.363896
v -0.545000 0.256042 0.008096
v -0.545000 0.000287 0.524761
v -0.545000 0.017219 -0.000000
v -0.545000 0.072366 0.540000
v -0.545000 0.072207 -0.000000
vn 0.6739 0.0435 0.7376
vn 0.1775 -0.0000 0.9841
vn 0.6803 -0.0000 0.7329
vn -0.1775 0.2320 0.9564
vn -0.0000 0.0589 0.9983
vn -0.0000 0.2352 0.9720
vn -0.2209 -0.9497 -0.2222
vn -0.7205 -0.6796 0.1381
vn -0.7205 -0.6796 -0.1381
vn -0.1804 0.4557 0.8716
vn -0.0000 0.4623 0.8867
vn 0.9752 0.0129 0.2208
vn 0.9768 -0.0000 0.2140
vn 0.1776 0.2320 -0.9564
vn -0.0000 0.0589 -0.9983
vn -0.0000 0.2352 -0.9720
vn 0.1887 0.8282 -0.5277
vn -0.0000 0.6703 -0.7421
vn -0.0000 0.8426 -0.5385
vn 0.1844 0.6598 -0.7284
vn -0.0000 0.4623 -0.8867
vn 0.1804 0.4557 -0.8716
vn 0.1919 0.9411 -0.2783
vn -0.0000 0.9587 -0.2843
vn 0.1936 0.9785 0.0711
vn -0.0000 0.9974 -0.0726
vn -0.0000 0.9974 0.0726
vn 0.1937 0.9785 -0.0711
vn -0.1920 0.9411 0.2783
vn -0.0000 0.8426 0.5385
vn -0.0000 0.9587 0.2843
vn -0.1887 0.8282 0.5277
vn -0.0000 0.6703 0.7421
vn -0.1844 0.6598 0.7284
vn -0.1937 0.9785 0.0711
vn -0.6803 -0.0000 -0.7330
vn -0.9760 -0.0207 -0.2169
vn -0.9768 -0.0000 -0.2140
vn 0.9773 0.2029 -0.0613
vn 0.9766 0.1804 0.1174
vn -0.7027 -0.1173 0.7018
vn -0.1775 -0.0000 0.9841
vn -0.6803 -0.0000 0.7329
vn -0.9773 0.2029 0.0613
vn -0.9766 0.1804 -0.1174
vn -0.9752 0.0129 -0.2208
vn -0.9773 0.2029 -0.0613
vn -0.6988 0.7135 -0.0519
vn -0.6904 0.6935 -0.2059
vn -0.1936 0.9785 -0.0711
vn -0.1919 0.9411 -0.2783
vn 0.6988 0.7135 -0.0519
vn 0.9791 0.2029 -0.0149
vn 0.6904 0.6935 -0.2059
vn -0.6859 0.6130 -0.3922
vn -0.1887 0.8282 -0.5277
vn 0.6859 0.6130 -0.3922
vn -0.6799 0.4913 -0.5444
vn -0.9756 0.1457 -0.1642
vn -0.1844 0.6598 -0.7284
vn 0.9766 0.1804 -0.1174
vn 0.6799 0.4913 -0.5444
vn -0.6742 0.3413 -0.6550
vn -0.9747 0.1020 -0.1990
vn -0.1804 0.4558 -0.8716
vn 0.9756 0.1457 -0.1642
vn 0.6742 0.3413 -0.6550
vn -0.6700 0.1745 -0.7215
vn -0.9740 0.0524 -0.2204
vn -0.1776 0.2320 -0.9564
vn 0.9747 0.1020 -0.1990
vn 0.6700 0.1745 -0.7215
vn -0.6739 0.0435 -0.7376
vn -0.1767 0.0581 -0.9825
vn 0.9740 0.0524 -0.2204
vn 0.6739 0.0435 -0.7376
vn 0.1767 0.0581 -0.9825
vn 0.9773 0.2029 0.0613
vn 0.6988 0.7135 0.0519
vn 0.6904 0.6935 0.2059
vn 0.1919 0.9411 0.2783
vn -0.6988 0.7135 0.0519
vn -0.9791 0.2029 0.0149
vn -0.6904 0.6935 0.2059
vn 0.6859 0.6130 0.3922
vn 0.1887 0.8282 0.5277
vn -0.6859 0.6130 0.3922
vn 0.6799 0.4913 0.5444
vn 0.9756 0.1457 0.1642
vn 0.1844 0.6598 0.7284
vn -0.9766 0.1804 0.1174
vn -0.6799 0.4913 0.5444
vn 0.6742 0.3413 0.6550
vn 0.9747 0.1020 0.1990
vn 0.1804 0.4558 0.8716
vn -0.9756 0.1457 0.1642
vn -0.6742 0.3413 0.6550
vn 0.6700 0.1745 0.7215
vn 0.9740 0.0524 0.2204
vn 0.1776 0.2320 0.9564
vn -0.9747 0.1020 0.1990
vn -0.6700 0.1745 0.7215
vn 0.1767 0.0581 0.9825
vn -0.9740 0.0524 0.2204
vn -0.6739 0.0435 0.7376
vn -0.1767 0.0581 0.9825
vn 0.7205 -0.6796 -0.1381
vn 0.9796 -0.1991 0.0267
vn 0.7205 -0.6796 0.1381
vn 0.2209 -0.9497 0.2222
vn -0.9796 -0.1991 -0.0267
vn -0.0000 -0.0000 1.0000
vn -0.9791 0.2029 -0.0149
vn 0.9760 -0.0207 -0.2169
vn 0.6803 -0.0000 -0.7330
vn 0.9768 -0.0000 -0.2140
vn 0.1775 -0.0000 -0.9841
vn -0.0000 -0.0000 -1.0000
vn 0.9791 0.2029 0.0149
vn -0.1775 -0.0000 -0.9841
vn -0.7027 -0.1173 -0.7018
vn -0.2209 -0.9497 0.2222
vn -0.0000 -0.9768 -0.2140
vn -0.0000 -0.9768 0.2140
vn 0.2062 -0.1883 0.9602
vn 0.7341 -0.4583 0.5011
vn 0.7027 -0.1173 0.7018
vn 0.2062 -0.1882 -0.9602
vn 0.7341 -0.4583 -0.5011
vn 0.2379 -0.6636 -0.7093
vn 0.2209 -0.9497 -0.2222
vn 0.9826 -0.1218 0.1399
vn 0.9760 -0.0207 0.2169
vn 0.7027 -0.1173 -0.7018
vn 0.9826 -0.1218 -0.1399
vn -0.2062 -0.1883 -0.9602
vn -0.7341 -0.4583 -0.5011
vn -0.2062 -0.1882 0.9602
vn -0.7341 -0.4583 0.5011
vn -0.2379 -0.6636 0.7093
vn -0.9826 -0.1218 -0.1399
vn -0.9826 -0.1218 0.1399
vn -0.0000 -0.6803 0.7329
vn 0.2379 -0.6636 0.7092
vn -0.0000 -0.1775 0.9841
vn -0.0000 -0.6803 -0.7329
vn -0.0000 -0.1775 -0.9841
vn -0.9760 -0.0207 0.2169
vn -0.9768 -0.0000 0.2140
vn -0.9752 0.0129 0.2208
vn 0.9752 0.0129 -0.2208
vn -0.2379 -0.6636 -0.7092
vn 0.9796 -0.1991 -0.0267
vn -0.9796 -0.1991 0.0267
vt 0.048815 0.413912
vt 0.166667 0.159669
vt 0.048815 0.159511
vt 0.166666 0.566548
vt 0.583333 0.415188
vt 0.583333 0.566548
vt 0.166666 0.000000
vt 0.048815 0.019464
vt 0.048815 0.019465
vt 0.166666 0.707594
vt 0.583333 0.707594
vt 0.000000 0.410832
vt 0.000000 0.159128
vt 0.166667 0.566548
vt 0.166667 0.921650
vt 0.583333 0.828712
vt 0.583333 0.921650
vt 0.166667 0.828712
vt 0.166667 0.707594
vt 0.166667 0.980073
vt 0.583333 0.980073
vt 0.166667 1.000000
vt 0.583333 1.000000
vt 0.166666 0.980073
vt 0.166666 0.921650
vt 0.166666 0.828712
vt 0.166666 1.000000
vt 0.048815 0.159478
vt 0.000000 0.104526
vt 0.000000 0.159861
vt 0.000000 0.915327
vt 0.000000 0.863601
vt 0.048815 0.057247
vt 0.166666 0.159669
vt 0.048815 0.980536
vt 0.048815 0.961109
vt 0.000000 0.933544
vt 0.048815 0.904648
vt 0.048815 0.814830
vt 0.000000 0.781316
vt 0.048815 0.697778
vt 0.000000 0.674079
vt 0.048815 0.561467
vt 0.000000 0.549200
vt 0.166666 0.415188
vt 0.166667 0.415188
vt 0.000000 0.781315
vt 0.000000 0.066456
vt 0.166667 0.000000
vt 0.583333 0.159669
vt 0.166667 0.159319
vt 0.583333 0.159319
vt 0.166666 0.159319
vt 0.048815 0.057248
vt 0.583333 0.000000
vt 0.166667 0.037509
vt 0.048815 0.030531
vt 0.166667 0.037510
vt 0.166667 0.010986
vt 0.000000 0.077607
vt 0.000000 0.077606
vt 0.166666 0.037510
vt 0.166666 0.037509
vt 0.166666 0.010986
vt 0.583333 0.010986
vt 0.583333 0.037509
vt 0.583333 0.037510
vt 1.000000 0.010986
vt 1.000000 0.037510
vt 1.000000 0.000000
vt 1.000000 0.159319
vt 1.000000 0.159669
vt 1.000000 1.000000
vt 1.000000 0.828712
vt 1.000000 0.921650
vt 1.000000 0.980073
vt 1.000000 0.707594
vt 1.000000 0.566548
vt 1.000000 0.037509
vt 1.000000 0.415188
s 1
f 48/1/1 164/2/2 166/3/3
f 8/4/4 199/5/5 200/6/6
f 98/7/7 92/8/8 100/9/9
f 11/10/10 200/6/6 203/11/11
f 46/12/12 166/3/3 165/13/13
f 71/14/14 177/5/15 179/6/16
f 80/15/17 191/16/18 190/17/19
f 77/18/20 192/11/21 191/16/18
f 74/19/22 179/6/16 192/11/21
f 83/20/23 190/17/19 189/21/24
f 44/22/25 185/23/26 184/23/27
f 68/22/28 189/21/24 185/23/26
f 20/24/29 205/17/30 215/21/31
f 17/25/32 204/16/33 205/17/30
f 14/26/34 203/11/11 204/16/33
f 5/27/35 215/21/31 201/23/27
f 170/28/36 94/29/37 169/30/38
f 82/31/39 52/32/40 46/12/12
f 91/33/41 163/34/42 162/3/43
f 19/31/44 31/32/45 25/12/46
f 28/31/47 24/35/48 30/36/49
f 30/36/49 23/27/50 29/24/51
f 82/31/39 69/35/52 67/37/53
f 84/36/54 68/22/28 69/35/52
f 28/31/47 33/38/55 31/32/45
f 30/36/49 32/25/56 33/38/55
f 82/31/39 81/38/57 84/36/54
f 84/36/54 80/15/17 83/20/23
f 31/32/45 36/39/58 34/40/59
f 33/38/55 35/26/60 36/39/58
f 79/32/61 78/39/62 81/38/57
f 81/38/57 77/18/20 80/15/17
f 34/40/59 39/41/63 37/42/64
f 36/39/58 38/10/65 39/41/63
f 76/40/66 75/41/67 78/39/62
f 78/39/62 74/19/22 77/18/20
f 37/42/64 42/43/68 40/44/69
f 39/41/63 41/4/70 42/43/68
f 73/42/71 72/43/72 75/41/67
f 75/41/67 71/14/14 74/19/22
f 40/44/69 27/1/73 25/12/46
f 42/43/68 26/45/74 27/1/73
f 70/44/75 66/1/76 72/43/72
f 72/43/72 65/46/77 71/14/14
f 49/31/78 45/35/79 51/36/80
f 51/36/80 44/22/25 50/20/81
f 19/31/44 6/35/82 4/37/83
f 21/36/84 5/27/35 6/35/82
f 49/31/78 54/38/85 52/32/40
f 51/36/80 53/15/86 54/38/85
f 19/31/44 18/38/87 21/36/84
f 21/36/84 17/25/32 20/24/29
f 52/32/40 57/39/88 55/47/89
f 54/38/85 56/18/90 57/39/88
f 16/32/91 15/39/92 18/38/87
f 18/38/87 14/26/34 17/25/32
f 55/47/89 60/41/93 58/42/94
f 57/39/88 59/19/95 60/41/93
f 13/47/96 12/41/97 15/39/92
f 15/39/92 11/10/10 14/26/34
f 58/42/94 63/43/98 61/44/99
f 60/41/93 62/14/100 63/43/98
f 10/42/101 9/43/102 12/41/97
f 12/41/97 8/4/4 11/10/10
f 61/44/99 48/1/1 46/12/12
f 63/43/98 47/46/103 48/1/1
f 7/44/104 3/1/105 9/43/102
f 9/43/102 2/45/106 8/4/4
f 119/9/107 104/48/108 109/8/109
f 107/49/110 119/9/107 109/8/109
f 92/8/8 95/48/111 100/9/9
f 199/5/5 163/34/42 219/50/112
f 23/27/50 6/35/82 5/27/35
f 6/35/82 22/37/113 4/37/83
f 113/29/114 174/28/115 173/30/116
f 177/5/15 172/51/117 198/52/118
f 67/37/53 45/35/79 43/37/119
f 69/35/52 44/22/25 45/35/79
f 171/53/120 101/54/121 170/28/36
f 88/7/122 213/55/123 217/55/124
f 106/56/125 111/57/126 110/33/127
f 111/57/126 107/49/110 109/8/109
f 116/58/128 120/57/129 117/59/130
f 120/57/129 115/49/131 117/59/130
f 110/33/127 105/60/132 103/29/133
f 105/60/132 109/8/109 104/48/108
f 118/54/134 114/61/135 120/57/129
f 114/61/135 119/9/107 120/57/129
f 97/62/136 102/57/137 101/54/121
f 102/57/137 98/7/7 100/9/9
f 89/63/138 93/57/139 90/64/140
f 93/57/139 88/7/122 90/64/140
f 101/54/121 96/61/141 94/29/37
f 96/61/141 100/9/9 95/48/111
f 91/33/41 87/60/142 93/57/139
f 87/60/142 92/8/8 93/57/139
f 107/49/110 193/65/143 180/55/124
f 108/59/144 194/66/145 193/65/143
f 116/58/128 195/65/146 181/67/147
f 117/59/130 196/55/123 195/65/146
f 86/29/148 162/3/43 161/13/149
f 158/68/146 213/55/123 212/65/146
f 155/69/147 212/65/146 218/67/147
f 152/68/143 211/66/145 210/65/143
f 149/70/124 210/65/143 217/55/124
f 150/70/124 196/55/123 180/55/124
f 118/54/134 172/51/117 174/28/115
f 214/5/15 175/71/118 220/52/118
f 182/5/5 167/72/112 197/50/112
f 127/73/27 178/21/31 184/23/27
f 135/74/33 186/11/11 187/16/33
f 137/75/30 187/16/33 188/17/30
f 130/76/31 188/17/30 178/21/31
f 132/73/26 206/21/24 202/23/26
f 128/73/27 202/23/26 201/23/27
f 140/76/24 207/17/19 206/21/24
f 148/77/21 216/6/16 209/11/21
f 146/74/18 209/11/21 208/16/18
f 144/75/19 208/16/18 207/17/19
f 141/78/16 214/5/15 216/6/16
f 133/77/11 183/6/6 186/11/11
f 125/78/6 182/5/5 183/6/6
f 197/50/112 153/79/145 194/66/145
f 1/12/150 162/3/43 3/1/105
f 219/50/112 89/63/138 211/66/145
f 3/1/105 163/34/42 2/45/106
f 103/29/133 166/3/3 110/33/127
f 110/33/127 164/2/2 106/56/125
f 220/52/118 155/69/147 218/67/147
f 66/1/76 172/51/117 65/46/77
f 171/53/120 27/1/73 26/45/74
f 198/52/118 116/58/128 181/67/147
f 64/12/151 174/28/115 66/1/76
f 170/28/36 25/12/46 27/1/73
f 161/13/149 94/29/37 95/48/111
f 173/30/116 103/29/133 104/48/108
f 176/71/118 181/67/147 156/69/147
f 164/2/2 194/66/145 106/56/125
f 183/6/6 47/46/103 62/14/100
f 186/11/11 62/14/100 59/19/95
f 178/21/31 53/15/86 50/20/81
f 188/17/30 56/18/90 53/15/86
f 187/16/33 59/19/95 56/18/90
f 184/23/27 50/20/81 44/22/25
f 47/46/103 197/50/112 164/2/2
f 180/55/124 115/49/131 107/49/110
f 157/68/146 196/55/123 159/70/123
f 156/69/147 195/65/146 157/68/146
f 193/65/143 153/79/145 151/68/143
f 180/55/124 151/68/143 150/70/124
f 124/80/15 198/52/118 176/71/118
f 185/23/26 139/76/24 131/73/26
f 184/23/27 131/73/26 127/73/27
f 189/21/24 143/75/19 139/76/24
f 192/11/21 142/78/16 147/77/21
f 191/16/18 147/77/21 145/74/18
f 190/17/19 145/74/18 143/75/19
f 179/6/16 124/80/15 142/78/16
f 171/53/120 218/67/147 97/62/136
f 168/72/112 211/66/145 154/79/145
f 216/6/16 26/45/74 41/4/70
f 207/17/19 35/26/60 32/25/56
f 208/16/18 38/10/65 35/26/60
f 209/11/21 41/4/70 38/10/65
f 206/21/24 32/25/56 29/24/51
f 201/23/27 23/27/50 5/27/35
f 202/23/26 29/24/51 23/27/50
f 26/45/74 220/52/118 171/53/120
f 217/55/124 90/64/140 88/7/122
f 210/65/143 89/63/138 90/64/140
f 218/67/147 99/64/152 97/62/136
f 212/65/146 98/7/7 99/64/152
f 217/55/124 160/70/123 149/70/124
f 122/80/5 219/50/112 168/72/112
f 201/23/27 129/76/31 128/73/27
f 204/16/33 134/77/11 136/74/33
f 205/17/30 136/74/33 138/75/30
f 215/21/31 138/75/30 129/76/31
f 203/11/11 126/78/6 134/77/11
f 200/6/6 122/80/5 126/78/6
f 48/1/1 47/46/103 164/2/2
f 8/4/4 2/45/106 199/5/5
f 98/7/7 88/7/122 92/8/8
f 11/10/10 8/4/4 200/6/6
f 46/12/12 48/1/1 166/3/3
f 71/14/14 65/46/77 177/5/15
f 80/15/17 77/18/20 191/16/18
f 77/18/20 74/19/22 192/11/21
f 74/19/22 71/14/14 179/6/16
f 83/20/23 80/15/17 190/17/19
f 44/22/25 68/22/28 185/23/26
f 68/22/28 83/20/23 189/21/24
f 20/24/29 17/25/32 205/17/30
f 17/25/32 14/26/34 204/16/33
f 14/26/34 11/10/10 203/11/11
f 5/27/35 20/24/29 215/21/31
f 170/28/36 101/54/121 94/29/37
f 46/12/12 165/13/13 173/30/116
f 173/30/116 64/12/151 70/44/75
f 70/44/75 73/42/71 76/40/66
f 76/40/66 79/32/61 82/31/39
f 82/31/39 67/37/53 43/37/119
f 43/37/119 49/31/78 52/32/40
f 52/32/40 55/47/89 58/42/94
f 58/42/94 61/44/99 46/12/12
f 46/12/12 173/30/116 70/44/75
f 70/44/75 76/40/66 82/31/39
f 82/31/39 43/37/119 52/32/40
f 52/32/40 58/42/94 46/12/12
f 46/12/12 70/44/75 82/31/39
f 91/33/41 89/63/138 163/34/42
f 25/12/46 169/30/38 161/13/149
f 161/13/149 1/12/150 7/44/104
f 7/44/104 10/42/101 13/47/96
f 13/47/96 16/32/91 19/31/44
f 19/31/44 4/37/83 22/37/113
f 22/37/113 28/31/47 31/32/45
f 31/32/45 34/40/59 37/42/64
f 37/42/64 40/44/69 25/12/46
f 25/12/46 161/13/149 7/44/104
f 7/44/104 13/47/96 19/31/44
f 19/31/44 22/37/113 31/32/45
f 31/32/45 37/42/64 25/12/46
f 25/12/46 7/44/104 19/31/44
f 28/31/47 22/37/113 24/35/48
f 30/36/49 24/35/48 23/27/50
f 82/31/39 84/36/54 69/35/52
f 84/36/54 83/20/23 68/22/28
f 28/31/47 30/36/49 33/38/55
f 30/36/49 29/24/51 32/25/56
f 82/31/39 79/32/61 81/38/57
f 84/36/54 81/38/57 80/15/17
f 31/32/45 33/38/55 36/39/58
f 33/38/55 32/25/56 35/26/60
f 79/32/61 76/40/66 78/39/62
f 81/38/57 78/39/62 77/18/20
f 34/40/59 36/39/58 39/41/63
f 36/39/58 35/26/60 38/10/65
f 76/40/66 73/42/71 75/41/67
f 78/39/62 75/41/67 74/19/22
f 37/42/64 39/41/63 42/43/68
f 39/41/63 38/10/65 41/4/70
f 73/42/71 70/44/75 72/43/72
f 75/41/67 72/43/72 71/14/14
f 40/44/69 42/43/68 27/1/73
f 42/43/68 41/4/70 26/45/74
f 70/44/75 64/12/151 66/1/76
f 72/43/72 66/1/76 65/46/77
f 49/31/78 43/37/119 45/35/79
f 51/36/80 45/35/79 44/22/25
f 19/31/44 21/36/84 6/35/82
f 21/36/84 20/24/29 5/27/35
f 49/31/78 51/36/80 54/38/85
f 51/36/80 50/20/81 53/15/86
f 19/31/44 16/32/91 18/38/87
f 21/36/84 18/38/87 17/25/32
f 52/32/40 54/38/85 57/39/88
f 54/38/85 53/15/86 56/18/90
f 16/32/91 13/47/96 15/39/92
f 18/38/87 15/39/92 14/26/34
f 55/47/89 57/39/88 60/41/93
f 57/39/88 56/18/90 59/19/95
f 13/47/96 10/42/101 12/41/97
f 15/39/92 12/41/97 11/10/10
f 58/42/94 60/41/93 63/43/98
f 60/41/93 59/19/95 62/14/100
f 10/42/101 7/44/104 9/43/102
f 12/41/97 9/43/102 8/4/4
f 61/44/99 63/43/98 48/1/1
f 63/43/98 62/14/100 47/46/103
f 7/44/104 1/12/150 3/1/105
f 9/43/102 3/1/105 2/45/106
f 119/9/107 112/48/153 104/48/108
f 107/49/110 115/49/131 119/9/107
f 92/8/8 85/48/154 95/48/111
f 199/5/5 2/45/106 163/34/42
f 23/27/50 24/35/48 6/35/82
f 6/35/82 24/35/48 22/37/113
f 113/29/114 118/54/134 174/28/115
f 177/5/15 65/46/77 172/51/117
f 67/37/53 69/35/52 45/35/79
f 69/35/52 68/22/28 44/22/25
f 171/53/120 97/62/136 101/54/121
f 88/7/122 98/7/7 213/55/123
f 106/56/125 108/59/144 111/57/126
f 111/57/126 108/59/144 107/49/110
f 116/58/128 118/54/134 120/57/129
f 120/57/129 119/9/107 115/49/131
f 110/33/127 111/57/126 105/60/132
f 105/60/132 111/57/126 109/8/109
f 118/54/134 113/29/114 114/61/135
f 114/61/135 112/48/153 119/9/107
f 97/62/136 99/64/152 102/57/137
f 102/57/137 99/64/152 98/7/7
f 89/63/138 91/33/41 93/57/139
f 93/57/139 92/8/8 88/7/122
f 101/54/121 102/57/137 96/61/141
f 96/61/141 102/57/137 100/9/9
f 91/33/41 86/29/148 87/60/142
f 87/60/142 85/48/154 92/8/8
f 107/49/110 108/59/144 193/65/143
f 108/59/144 106/56/125 194/66/145
f 116/58/128 117/59/130 195/65/146
f 117/59/130 115/49/131 196/55/123
f 86/29/148 91/33/41 162/3/43
f 158/68/146 160/70/123 213/55/123
f 155/69/147 158/68/146 212/65/146
f 152/68/143 154/79/145 211/66/145
f 149/70/124 152/68/143 210/65/143
f 150/70/124 159/70/123 196/55/123
f 118/54/134 116/58/128 172/51/117
f 214/5/15 123/80/15 175/71/118
f 182/5/5 121/80/5 167/72/112
f 127/73/27 130/76/31 178/21/31
f 135/74/33 133/77/11 186/11/11
f 137/75/30 135/74/33 187/16/33
f 130/76/31 137/75/30 188/17/30
f 132/73/26 140/76/24 206/21/24
f 128/73/27 132/73/26 202/23/26
f 140/76/24 144/75/19 207/17/19
f 148/77/21 141/78/16 216/6/16
f 146/74/18 148/77/21 209/11/21
f 144/75/19 146/74/18 208/16/18
f 141/78/16 123/80/15 214/5/15
f 133/77/11 125/78/6 183/6/6
f 125/78/6 121/80/5 182/5/5
f 197/50/112 167/72/112 153/79/145
f 1/12/150 161/13/149 162/3/43
f 219/50/112 163/34/42 89/63/138
f 3/1/105 162/3/43 163/34/42
f 103/29/133 165/13/13 166/3/3
f 110/33/127 166/3/3 164/2/2
f 220/52/118 175/71/118 155/69/147
f 66/1/76 174/28/115 172/51/117
f 171/53/120 170/28/36 27/1/73
f 198/52/118 172/51/117 116/58/128
f 64/12/151 173/30/116 174/28/115
f 170/28/36 169/30/38 25/12/46
f 95/48/111 85/48/154 87/60/142
f 87/60/142 86/29/148 161/13/149
f 161/13/149 169/30/38 94/29/37
f 94/29/37 96/61/141 95/48/111
f 95/48/111 87/60/142 161/13/149
f 104/48/108 112/48/153 114/61/135
f 114/61/135 113/29/114 173/30/116
f 173/30/116 165/13/13 103/29/133
f 103/29/133 105/60/132 104/48/108
f 104/48/108 114/61/135 173/30/116
f 176/71/118 198/52/118 181/67/147
f 164/2/2 197/50/112 194/66/145
f 183/6/6 182/5/5 47/46/103
f 186/11/11 183/6/6 62/14/100
f 178/21/31 188/17/30 53/15/86
f 188/17/30 187/16/33 56/18/90
f 187/16/33 186/11/11 59/19/95
f 184/23/27 178/21/31 50/20/81
f 47/46/103 182/5/5 197/50/112
f 180/55/124 196/55/123 115/49/131
f 157/68/146 195/65/146 196/55/123
f 156/69/147 181/67/147 195/65/146
f 193/65/143 194/66/145 153/79/145
f 180/55/124 193/65/143 151/68/143
f 124/80/15 177/5/15 198/52/118
f 185/23/26 189/21/24 139/76/24
f 184/23/27 185/23/26 131/73/26
f 189/21/24 190/17/19 143/75/19
f 192/11/21 179/6/16 142/78/16
f 191/16/18 192/11/21 147/77/21
f 190/17/19 191/16/18 145/74/18
f 179/6/16 177/5/15 124/80/15
f 171/53/120 220/52/118 218/67/147
f 168/72/112 219/50/112 211/66/145
f 216/6/16 214/5/15 26/45/74
f 207/17/19 208/16/18 35/26/60
f 208/16/18 209/11/21 38/10/65
f 209/11/21 216/6/16 41/4/70
f 206/21/24 207/17/19 32/25/56
f 201/23/27 202/23/26 23/27/50
f 202/23/26 206/21/24 29/24/51
f 26/45/74 214/5/15 220/52/118
f 217/55/124 210/65/143 90/64/140
f 210/65/143 211/66/145 89/63/138
f 218/67/147 212/65/146 99/64/152
f 212/65/146 213/55/123 98/7/7
f 217/55/124 213/55/123 160/70/123
f 122/80/5 199/5/5 219/50/112
f 201/23/27 215/21/31 129/76/31
f 204/16/33 203/11/11 134/77/11
f 205/17/30 204/16/33 136/74/33
f 215/21/31 205/17/30 138/75/30
f 203/11/11 200/6/6 126/78/6
f 200/6/6 199/5/5 122/80/5
