# Blender 4.1.1
# www.blender.org
o Cube.009
v 0.000000 0.450000 0.140000
v 0.000000 0.450000 0.309208
v -0.000000 0.000000 -0.010000
v 0.000000 0.000000 0.459208
v -0.155649 0.091647 0.020000
v -0.155648 0.091647 0.429208
v -0.196310 0.000000 -0.010000
v -0.196309 -0.000000 0.459151
v -0.155648 0.091647 0.410028
v -0.196309 -0.000000 0.439971
v -0.155649 0.091647 0.040000
v -0.196310 0.000000 0.010000
v 0.155649 0.091647 0.020000
v 0.155648 0.091647 0.429208
v 0.196310 0.000000 -0.010000
v 0.196310 -0.000000 0.459151
v 0.155648 0.091647 0.410028
v 0.196310 -0.000000 0.439971
v 0.155649 0.091647 0.039999
v 0.196310 0.000000 0.009999
vn -0.9172 0.3984 -0.0000
vn -0.0000 0.3111 -0.9504
vn -0.0000 -1.0000 -0.0000
vn 0.0033 0.3162 0.9487
vn 0.0033 0.3162 -0.9487
vn -0.0003 0.3107 0.9505
vn -0.9141 0.4055 -0.0000
vn 0.9172 0.3984 -0.0000
vn -0.0033 0.3162 0.9487
vn -0.0033 0.3162 -0.9487
vn 0.0003 0.3107 0.9505
vn 0.9141 0.4055 -0.0000
vt 0.207130 0.203660
vt 1.000000 1.000000
vt 0.207127 0.203660
vt 0.999996 0.000000
vt 0.000000 0.000000
vt 0.000003 0.000000
vt 0.999996 0.000000
s 0
f 9/1/1 6/1/1 1/2/1
f 5/3/2 3/4/2 7/5/2
f 8/6/3 3/4/3 4/7/3
f 6/1/4 4/7/4 2/2/4
f 5/3/5 1/2/5 3/4/5
f 6/1/1 2/2/1 1/2/1
f 8/6/3 7/5/3 3/4/3
f 6/1/6 8/6/6 4/7/6
f 8/6/7 6/1/7 9/1/7 10/6/7
f 9/1/1 1/2/1 11/3/1
f 11/3/1 1/2/1 5/3/1
f 5/3/7 7/5/7 12/5/7 11/3/7
f 17/1/8 1/2/8 14/1/8
f 13/3/2 15/5/2 3/4/2
f 16/6/3 4/7/3 3/4/3
f 14/1/9 2/2/9 4/7/9
f 13/3/10 3/4/10 1/2/10
f 14/1/8 1/2/8 2/2/8
f 16/6/3 3/4/3 15/5/3
f 14/1/11 4/7/11 16/6/11
f 16/6/12 18/6/12 17/1/12 14/1/12
f 17/1/8 19/3/8 1/2/8
f 19/3/8 13/3/8 1/2/8
f 13/3/12 19/3/12 20/5/12 15/5/12
