# Blender 4.1.1
# www.blender.org
o Cube.013
v -0.100000 0.350000 0.320028
v -0.300000 0.000000 0.439943
v -0.155648 0.091647 0.410028
v -0.196309 -0.000000 0.439971
v -0.300000 0.000000 0.010000
v -0.100000 0.350000 0.130000
v -0.155649 0.091647 0.040000
v -0.196310 0.000000 0.010000
v 0.100000 0.350000 0.320028
v 0.300000 0.000000 0.439942
v 0.155648 0.091647 0.410028
v 0.196310 -0.000000 0.439971
v 0.300000 0.000000 0.009999
v 0.100000 0.350000 0.129999
v 0.155649 0.091647 0.039999
v 0.196310 0.000000 0.009999
vn 0.9776 -0.2106 -0.0000
vn -0.8682 0.4961 -0.0000
vn -0.0003 0.3107 0.9505
vn -0.0152 0.3319 0.9432
vn -0.0146 0.3317 -0.9433
vn -0.0000 0.3111 -0.9504
vn -0.0000 -1.0000 -0.0000
vn -0.9776 -0.2106 -0.0000
vn 0.8682 0.4961 -0.0000
vn 0.0003 0.3107 0.9505
vn 0.0152 0.3319 0.9432
vn 0.0146 0.3317 -0.9433
vt 1.000000 1.000000
vt 0.721758 0.261849
vt 0.721756 0.261849
vt 0.000000 0.000000
vt 0.000000 0.000000
vt 0.518452 0.000000
vt 0.518449 0.000000
s 0
f 6/1/1 1/1/1 3/2/1 7/3/1
f 5/4/2 2/5/2 1/1/2 6/1/2
f 4/6/3 3/2/3 2/5/3
f 2/5/4 3/2/4 1/1/4
f 6/1/5 7/3/5 5/4/5
f 8/7/6 5/4/6 7/3/6
f 5/4/7 8/7/7 4/6/7 2/5/7
f 14/1/8 15/3/8 11/2/8 9/1/8
f 13/4/9 14/1/9 9/1/9 10/5/9
f 12/6/10 10/5/10 11/2/10
f 10/5/11 9/1/11 11/2/11
f 14/1/12 13/4/12 15/3/12
f 16/7/6 15/3/6 13/4/6
f 13/4/7 10/5/7 12/6/7 16/7/7
