# Blender 5.0.1
# www.blender.org
o Plane.007
v -2.371558 0.017500 0.234896
v 2.377091 0.017500 0.234896
v -2.086126 0.017500 -0.249104
v -1.900693 0.017500 0.234896
v -1.429829 0.017500 0.234896
v -0.958963 0.017500 0.234896
v -0.488099 0.017500 0.234896
v -0.017234 0.017500 0.234896
v 0.453631 0.017500 0.234896
v 0.924496 0.017500 0.234896
v 1.395361 0.017500 0.234896
v 1.866226 0.017500 0.234896
v 2.081659 0.017500 -0.249104
v 1.630793 0.017500 -0.249104
v 1.159928 0.017500 -0.249104
v 0.689064 0.017500 -0.249104
v 0.218199 0.017500 -0.249104
v -0.252666 0.017500 -0.249104
v -0.723531 0.017500 -0.249104
v -1.194396 0.017500 -0.249104
v -1.665261 0.017500 -0.249104
v -2.022453 -0.032500 -0.159104
v -2.205277 -0.032500 0.140896
v 1.834323 -0.032500 0.140896
v 2.217430 -0.032500 0.140896
v -1.593639 -0.032500 -0.159104
v -1.822170 -0.032500 0.140896
v -1.365108 -0.032500 0.140896
v -0.908047 -0.032500 0.140896
v -0.450985 -0.032500 0.140896
v 0.006076 -0.032500 0.140896
v 0.463138 -0.032500 0.140896
v 0.920199 -0.032500 0.140896
v 1.377261 -0.032500 0.140896
v 2.034606 -0.032500 -0.159104
v 1.605792 -0.032500 -0.159104
v 1.148730 -0.032500 -0.159104
v 0.691669 -0.032500 -0.159104
v 0.234607 -0.032500 -0.159104
v -0.222454 -0.032500 -0.159104
v -0.679516 -0.032500 -0.159104
v -1.136577 -0.032500 -0.159104
v -2.022453 -0.002500 -0.159104
v -2.035674 0.017500 -0.177791
v -2.242310 0.017500 0.161831
v -2.205277 -0.002500 0.140896
v 1.834323 -0.002500 0.140896
v 1.841232 0.017500 0.161255
v 2.252138 0.017500 0.161330
v 2.217430 -0.002500 0.140896
v -1.593639 -0.002500 -0.159104
v -1.608760 0.017500 -0.178105
v -1.839477 0.017500 0.161614
v -1.822170 -0.002500 0.140896
v -1.379263 0.017500 0.161455
v -1.365108 -0.002500 0.140896
v -0.919121 0.017500 0.161341
v -0.908047 -0.002500 0.140896
v -0.459026 0.017500 0.161262
v -0.450985 -0.002500 0.140896
v 0.001038 0.017500 0.161212
v 0.006076 -0.002500 0.140896
v 0.461086 0.017500 0.161187
v 0.463138 -0.002500 0.140896
v 0.921127 0.017500 0.161186
v 0.920199 -0.002500 0.140896
v 1.381172 0.017500 0.161208
v 1.377261 -0.002500 0.140896
v 2.034606 -0.002500 -0.159104
v 2.044914 0.017500 -0.178822
v 1.611272 0.017500 -0.178832
v 1.605792 -0.002500 -0.159104
v 1.151183 0.017500 -0.178821
v 1.148730 -0.002500 -0.159104
v 0.691099 0.017500 -0.178787
v 0.691669 -0.002500 -0.159104
v 0.231029 0.017500 -0.178728
v 0.234607 -0.002500 -0.159104
v -0.229012 0.017500 -0.178639
v -0.222454 -0.002500 -0.159104
v -0.689008 0.017500 -0.178513
v -0.679516 -0.002500 -0.159104
v -1.148935 0.017500 -0.178340
v -1.136577 -0.002500 -0.159104
vn -0.0000 1.0000 -0.0000
vn 0.5909 0.7221 0.3598
vn 0.0001 0.7140 -0.7002
vn 0.0003 0.6859 0.7277
vn -0.0002 0.7211 -0.6928
vn -0.0001 0.7181 -0.6960
vn -0.0001 0.7158 -0.6983
vn -0.0001 0.7141 -0.7000
vn -0.0000 0.7130 -0.7011
vn -0.0000 0.7124 -0.7018
vn -0.0000 0.7122 -0.7020
vn -0.0000 0.7130 -0.7012
vn -0.0000 0.7022 0.7120
vn -0.0000 0.7018 0.7124
vn -0.0000 0.7009 0.7132
vn 0.0001 0.6996 0.7146
vn 0.0001 0.6976 0.7165
vn 0.0001 0.6949 0.7191
vn 0.0002 0.6911 0.7228
vn -0.6186 0.6894 0.3769
vn 0.8539 -0.0000 0.5204
vn -0.0000 -0.0000 1.0000
vn -0.0000 -0.0000 -1.0000
vn -0.8539 -0.0000 0.5204
vt 0.873242 0.256199
vt 0.842441 0.752066
vt 0.808700 0.256199
vt 0.192694 0.256199
vt 0.158953 0.752066
vt 0.128153 0.256199
vt 0.269695 0.256199
vt 0.231195 0.752066
vt 0.346696 0.256199
vt 0.308195 0.752066
vt 0.423696 0.256199
vt 0.385196 0.752066
vt 0.500697 0.256199
vt 0.462197 0.752066
vt 0.577698 0.256199
vt 0.539197 0.752066
vt 0.654698 0.256199
vt 0.616198 0.752066
vt 0.731699 0.256199
vt 0.693199 0.752066
vt 0.770199 0.752066
vt 0.070733 0.852659
vt 0.027218 0.150962
vt 0.035016 0.194215
vt 0.073517 0.814050
vt 0.887156 0.152152
vt 0.973687 0.151996
vt 0.966378 0.194215
vt 0.885700 0.194215
vt 0.160635 0.853310
vt 0.163819 0.814050
vt 0.112049 0.151410
vt 0.115694 0.194215
vt 0.208964 0.151738
vt 0.211944 0.194215
vt 0.305863 0.151975
vt 0.308195 0.194215
vt 0.402753 0.152138
vt 0.404446 0.194215
vt 0.499636 0.152241
vt 0.500697 0.194215
vt 0.596516 0.152292
vt 0.596948 0.194215
vt 0.693394 0.152294
vt 0.693199 0.194215
vt 0.790273 0.152249
vt 0.789450 0.194215
vt 0.930048 0.854789
vt 0.838729 0.854811
vt 0.837575 0.814050
vt 0.927877 0.814050
vt 0.741841 0.854789
vt 0.741324 0.814050
vt 0.644953 0.854719
vt 0.645073 0.814050
vt 0.548069 0.854597
vt 0.548822 0.814050
vt 0.451191 0.854413
vt 0.452572 0.814050
vt 0.354322 0.854152
vt 0.356321 0.814050
vt 0.257468 0.853794
vt 0.260070 0.814050
vt 0.060108 1.000000
vt 0.000000 0.000000
vt 0.148736 1.000000
vt 0.099158 0.000000
vt 0.892419 0.000000
vt 1.000000 0.000000
vt 0.793261 0.000000
vt 0.937786 1.000000
vt 0.247894 1.000000
vt 0.198315 0.000000
vt 0.297473 0.000000
vt 0.396631 0.000000
vt 0.495788 0.000000
vt 0.594946 0.000000
vt 0.694103 0.000000
vt 0.842840 1.000000
vt 0.743682 1.000000
vt 0.644525 1.000000
vt 0.545367 1.000000
vt 0.446209 1.000000
vt 0.347052 1.000000
s 0
f 25/1/1 35/2/1 24/3/1
f 27/4/1 22/5/1 23/6/1
f 28/7/1 26/8/1 27/4/1
f 29/9/1 42/10/1 28/7/1
f 30/11/1 41/12/1 29/9/1
f 31/13/1 40/14/1 30/11/1
f 32/15/1 39/16/1 31/13/1
f 33/17/1 38/18/1 32/15/1
f 34/19/1 37/20/1 33/17/1
f 24/3/1 36/21/1 34/19/1
f 27/4/1 26/8/1 22/5/1
f 28/7/1 42/10/1 26/8/1
f 29/9/1 41/12/1 42/10/1
f 30/11/1 40/14/1 41/12/1
f 31/13/1 39/16/1 40/14/1
f 32/15/1 38/18/1 39/16/1
f 33/17/1 37/20/1 38/18/1
f 34/19/1 36/21/1 37/20/1
f 24/3/1 35/2/1 36/21/1
f 44/22/2 45/23/2 46/24/2 43/25/2
f 48/26/3 49/27/3 50/28/3 47/29/3
f 52/30/4 44/22/4 43/25/4 51/31/4
f 45/23/5 53/32/5 54/33/5 46/24/5
f 53/32/6 55/34/6 56/35/6 54/33/6
f 55/34/7 57/36/7 58/37/7 56/35/7
f 57/36/8 59/38/8 60/39/8 58/37/8
f 59/38/9 61/40/9 62/41/9 60/39/9
f 61/40/10 63/42/10 64/43/10 62/41/10
f 63/42/11 65/44/11 66/45/11 64/43/11
f 65/44/10 67/46/10 68/47/10 66/45/10
f 67/46/12 48/26/12 47/29/12 68/47/12
f 70/48/13 71/49/13 72/50/13 69/51/13
f 71/49/13 73/52/13 74/53/13 72/50/13
f 73/52/14 75/54/14 76/55/14 74/53/14
f 75/54/15 77/56/15 78/57/15 76/55/15
f 77/56/16 79/58/16 80/59/16 78/57/16
f 79/58/17 81/60/17 82/61/17 80/59/17
f 81/60/18 83/62/18 84/63/18 82/61/18
f 83/62/19 52/30/19 51/31/19 84/63/19
f 69/51/20 50/28/20 49/27/20 70/48/20
f 45/23/1 44/22/1 3/64/1 1/65/1
f 43/25/21 46/24/21 23/6/21 22/5/21
f 44/22/1 52/30/1 21/66/1 3/64/1
f 51/31/22 43/25/22 22/5/22 26/8/22
f 46/24/23 54/33/23 27/4/23 23/6/23
f 53/32/1 45/23/1 1/65/1 4/67/1
f 49/27/1 48/26/1 12/68/1 2/69/1
f 47/29/23 50/28/23 25/1/23 24/3/23
f 48/26/1 67/46/1 11/70/1 12/68/1
f 68/47/23 47/29/23 24/3/23 34/19/23
f 50/28/24 69/51/24 35/2/24 25/1/24
f 70/48/1 49/27/1 2/69/1 13/71/1
f 52/30/1 83/62/1 20/72/1 21/66/1
f 84/63/22 51/31/22 26/8/22 42/10/22
f 54/33/23 56/35/23 28/7/23 27/4/23
f 55/34/1 53/32/1 4/67/1 5/73/1
f 56/35/23 58/37/23 29/9/23 28/7/23
f 57/36/1 55/34/1 5/73/1 6/74/1
f 58/37/23 60/39/23 30/11/23 29/9/23
f 59/38/1 57/36/1 6/74/1 7/75/1
f 60/39/23 62/41/23 31/13/23 30/11/23
f 61/40/1 59/38/1 7/75/1 8/76/1
f 62/41/23 64/43/23 32/15/23 31/13/23
f 63/42/1 61/40/1 8/76/1 9/77/1
f 64/43/23 66/45/23 33/17/23 32/15/23
f 65/44/1 63/42/1 9/77/1 10/78/1
f 67/46/1 65/44/1 10/78/1 11/70/1
f 66/45/23 68/47/23 34/19/23 33/17/23
f 71/49/1 70/48/1 13/71/1 14/79/1
f 69/51/22 72/50/22 36/21/22 35/2/22
f 72/50/22 74/53/22 37/20/22 36/21/22
f 73/52/1 71/49/1 14/79/1 15/80/1
f 74/53/22 76/55/22 38/18/22 37/20/22
f 75/54/1 73/52/1 15/80/1 16/81/1
f 76/55/22 78/57/22 39/16/22 38/18/22
f 77/56/1 75/54/1 16/81/1 17/82/1
f 78/57/22 80/59/22 40/14/22 39/16/22
f 79/58/1 77/56/1 17/82/1 18/83/1
f 81/60/1 79/58/1 18/83/1 19/84/1
f 80/59/22 82/61/22 41/12/22 40/14/22
f 82/61/22 84/63/22 42/10/22 41/12/22
f 83/62/1 81/60/1 19/84/1 20/72/1
