# Blender 4.1.1
# www.blender.org
o Cube.015
v -0.150000 0.000000 0.437300
v 0.150000 0.000000 0.437300
v 0.150000 0.004133 0.446280
v -0.150000 0.004133 0.446280
v 0.150000 0.014111 0.450000
v -0.150000 0.014111 0.450000
v -0.150000 0.014111 0.000000
v 0.150000 0.014111 0.000000
v 0.150000 0.004133 0.003720
v -0.150000 0.004133 0.003720
v 0.150000 0.000000 0.012700
v -0.150000 0.000000 0.012700
v 0.150000 0.060066 0.450000
v -0.150000 0.060066 0.450000
v -0.150000 0.059934 0.000000
v 0.150000 0.059934 0.000000
v 0.237500 0.000000 0.437300
v 0.237500 0.014111 -0.000000
v 0.237500 0.004133 0.446280
v 0.237500 0.014111 0.450000
v 0.237500 0.004133 0.003720
v 0.237500 0.000000 0.012700
v 0.237500 0.060066 0.450000
v 0.237500 0.059934 -0.000000
v -0.237500 0.004133 0.446280
v -0.237500 0.014111 0.450000
v -0.237500 0.004133 0.003720
v -0.237500 0.000000 0.012700
v -0.237500 0.000000 0.437300
v -0.237500 0.014111 0.000000
v -0.237500 0.060066 0.450000
v -0.237500 0.059934 0.000000
vn -0.0000 -0.9768 0.2140
vn -0.0000 -0.6803 0.7330
vn -0.0000 -0.1775 0.9841
vn -0.0000 -0.1775 -0.9841
vn -0.0000 -0.6803 -0.7330
vn -0.0000 -0.9768 -0.2140
vn -0.0000 -0.0000 1.0000
vn -0.0000 -0.0000 -1.0000
vt 1.000000 0.068806
vt 0.815790 0.068806
vt 0.815790 0.000000
vt 1.000000 0.000000
vt 0.184211 0.068806
vt 0.184211 0.000000
vt 1.000000 0.234919
vt 0.815790 0.234919
vt 0.184211 0.234919
vt 1.000000 0.068807
vt 0.815790 0.068807
vt 0.815790 0.234920
vt 1.000000 0.234920
vt 0.184211 0.068807
vt 0.184211 0.234920
vt 1.000000 0.000001
vt 0.815790 0.000001
vt 0.184211 0.000001
vt 0.000000 0.000001
vt 0.000000 0.000000
vt 0.184211 1.000000
vt 0.815790 1.000000
vt 0.000000 0.234920
vt 0.000000 1.000000
vt 0.815790 0.997805
vt 0.184211 0.997805
vt 1.000000 0.997805
vt 0.000000 0.997805
vt 0.000000 0.234919
vt 0.000000 0.068806
vt 0.000000 0.068807
vt 1.000000 1.000000
s 1
f 27/1/5 10/2/5 12/3/6 28/4/6
f 10/2/5 9/5/5 11/6/6 12/3/6
f 30/7/4 7/8/4 10/2/5 27/1/5
f 7/8/4 8/9/4 9/5/5 10/2/5
f 25/10/2 4/11/2 6/12/3 26/13/3
f 4/11/2 3/14/2 5/15/3 6/12/3
f 29/16/1 1/17/1 4/11/2 25/10/2
f 1/17/1 2/18/1 3/14/2 4/11/2
f 17/19/1 2/18/1 11/6/6 22/20/6
f 2/18/1 1/17/1 12/3/6 11/6/6
f 5/15/3 13/21/7 14/22/7 6/12/3
f 20/23/3 23/24/7 13/21/7 5/15/3
f 7/8/4 15/25/8 16/26/8 8/9/4
f 30/7/4 32/27/8 15/25/8 7/8/4
f 8/9/4 16/26/8 24/28/8 18/29/4
f 9/5/5 21/30/5 22/20/6 11/6/6
f 8/9/4 18/29/4 21/30/5 9/5/5
f 3/14/2 19/31/2 20/23/3 5/15/3
f 2/18/1 17/19/1 19/31/2 3/14/2
f 6/12/3 14/22/7 31/32/7 26/13/3
f 1/17/1 29/16/1 28/4/6 12/3/6
